<svg xmlns="http://www.w3.org/2000/svg" width="51" height="48.108" viewBox="0 0 51 48.108">
  <g id="compass_msg" data-name="compass msg" transform="matrix(0.995, -0.105, 0.105, 0.995, 3.803, 77.127)">
    <g id="Groupe_1796" data-name="Groupe 1796" transform="translate(14.002 -71.999)">
      <path id="Tracé_3878" data-name="Tracé 3878" d="M27.674.343A1.169,1.169,0,0,0,26.406.087L.726,10.592A1.168,1.168,0,0,0,.96,12.822L13,15.011,15.2,27.056a1.167,1.167,0,0,0,1.026.952c.041,0,.082.006.121.006a1.169,1.169,0,0,0,1.081-.726L27.929,1.609A1.168,1.168,0,0,0,27.674.343Z" transform="translate(-0.002 -0.001)" fill="#fff" stroke="#c8a67a" stroke-width="2"/>
    </g>
    <text id="Map_maping_msg" data-name="Map maping msg" transform="matrix(0.995, 0.105, -0.105, 0.995, 0.714, -43.181)" fill="#c5a072" font-size="10" font-family="SegoeUI, Segoe UI" letter-spacing="0.001em"><tspan x="15.517" y="11">Map</tspan></text>
  </g>
</svg>
