<svg xmlns="http://www.w3.org/2000/svg" width="122.734" height="45.899" viewBox="0 0 122.734 45.899">
  <g id="Layer_2" data-name="Layer 2" transform="translate(0 0.023)">
    <g id="Layer_1" data-name="Layer 1" transform="translate(0 -0.023)">
      <path id="Tracé_4757" data-name="Tracé 4757" d="M110.955,42.307A12.461,12.461,0,0,1,105.7,38.62a25.991,25.991,0,0,0-1.843-7.742,12.332,12.332,0,0,0-6.894-6.894A13.346,13.346,0,0,1,99.8,33.661a12.056,12.056,0,0,1-2.747,6.175,18.526,18.526,0,0,1-7.613,2.581,35.155,35.155,0,0,1-4.572,0A9.549,9.549,0,0,0,83.8,38.27a32.852,32.852,0,0,0-1.843-3.226l.59-.277-1.438-.885a8.369,8.369,0,0,0-1.585-1.4l.664-.922-2.028.129a10.6,10.6,0,0,0-1.733-.627L78.271,29.9a12.166,12.166,0,0,0-5.659-1,11.521,11.521,0,0,0-5,1.161l-2.249,2.341q-.553.332-1.106.719l-.977-1.567A26.305,26.305,0,0,0,60.5,36.445a31.134,31.134,0,0,0-3.8,5.18,18.674,18.674,0,0,1-2.212.332,11.742,11.742,0,0,1-10.839-5.53,32.37,32.37,0,0,1-7.134,4.148,11.65,11.65,0,0,1-8.111-2.212,12.5,12.5,0,0,1-4.83-12.9A12.627,12.627,0,0,1,36.241,14.84c5.844-.092,7.1,3.447,7.1,3.447a3.926,3.926,0,0,0-2.046-1.124,3.5,3.5,0,0,0-2.175.369,4.148,4.148,0,0,1,2.341.848c.7.737.627,1.161.627,1.161a5.9,5.9,0,0,0-2.968-.737c-1.161.2-4.867,1.936-3.687,8s5.53,4.94,5.53,4.94a3.576,3.576,0,0,1-1.4-1.53A2.452,2.452,0,0,1,39.1,28.2a2.913,2.913,0,0,0,1.548,1.18A4.738,4.738,0,0,0,43.3,29.5a3.318,3.318,0,0,1-1-.959,1.641,1.641,0,0,1-.129-1.456l1.346.756a3.687,3.687,0,0,1,0-1.677,4,4,0,0,1,3.134-2.618c1.567-.129,2.12,1.585,1.843,3a3.687,3.687,0,0,1-1.456,2.12,6.434,6.434,0,0,0,1.161-.129A4.221,4.221,0,0,0,49.5,28a2.028,2.028,0,0,1-.369,1,3.945,3.945,0,0,1-1.014,1,8.018,8.018,0,0,0,1.585-.2,4.166,4.166,0,0,0,1.548-.7,4.424,4.424,0,0,1-.922,1.954,7.208,7.208,0,0,1-1.843,1.585,4.443,4.443,0,0,0,1.751,0,11.5,11.5,0,0,0,2.452-.664A5.53,5.53,0,0,1,51.1,34.159a5.235,5.235,0,0,1-2.212,1.014,6.526,6.526,0,0,0,2.8.406A8.111,8.111,0,0,0,54.9,33.735a2.968,2.968,0,0,1-.756,1,4.461,4.461,0,0,1-1,.664s.83.129,2.544-1.29,2.212-4.922.811-6.268a6.913,6.913,0,0,1-1.972-2.949,2.581,2.581,0,0,1-2.913-1.567,1.548,1.548,0,0,1,.977-2.212,2.986,2.986,0,0,1,.866-2.47,10.471,10.471,0,0,1,3.318-1.843,5.53,5.53,0,0,0-1.843,2.581,5.106,5.106,0,0,0,1.106,4.793c1.364,1.364,3.078-.479,3.447-1.843a11.189,11.189,0,0,0-.092-3.871,5.2,5.2,0,0,0,4.664,2.212,10.065,10.065,0,0,0,6.286-2.949,12.793,12.793,0,0,1-4.682.129A11.3,11.3,0,0,1,60,14.527a11.189,11.189,0,0,0,6.507.24,4.738,4.738,0,0,0,3.078-3.318,11.835,11.835,0,0,1-6.4,1.733A7.042,7.042,0,0,1,56.445,9.6C55.081,7.559,50.288-.681,37.126.019S11.65,8.425,11.171,21.845C10.784,32.113,15.964,37.109,18.4,38.9,16.2,41.053,12.572,44,9,44.114a12.572,12.572,0,0,1-9-3.337,9.659,9.659,0,0,0,8.332,5c5.825,0,10.507-5.327,10.507-5.327a18.766,18.766,0,0,0,12.5,5.327,16.867,16.867,0,0,0,11.337-4.664,14.544,14.544,0,0,0,12.5,4.664,15.337,15.337,0,0,0,9.659-5.2s3.171,5,8.019,5.162a11.06,11.06,0,0,0,7.669-3.318,12.9,12.9,0,0,0,10.268,2.36,19.393,19.393,0,0,0,10.6-4.627,15.466,15.466,0,0,0,9.844,4.83,19.8,19.8,0,0,0,11.5-3.171S115.121,43.487,110.955,42.307ZM19.171,33.661a23.817,23.817,0,0,1-1.548-2.3,18.3,18.3,0,0,1-1.032-2.378l.424-2.968-.9,1.383a16.848,16.848,0,0,1-.461-4.277,21.863,21.863,0,0,1,.94-6.71l2.728-3.263-2.3.424a16.48,16.48,0,0,1,3.042-4.332,28.02,28.02,0,0,1,6.71-5.162l2.249-.184-1.364-.7a33.015,33.015,0,0,1,7.374-1.678,27.375,27.375,0,0,1,5.917,0V1.66a22.25,22.25,0,0,0-6.839.811A25.089,25.089,0,0,0,19.024,16.057c-3.687,8.572.332,17.494.332,17.494Zm53.164,9.457a12.111,12.111,0,0,1-4.129-2.36,5.917,5.917,0,0,1,5-1.032c3.078,1.161,3.576,2.82,3.687,3.429a9.77,9.77,0,0,1-4.553-.037ZM54.141,22.693a.756.756,0,1,0,.848.756A.811.811,0,0,0,54.141,22.693Zm1.659,3.3a.535.535,0,0,0,.571.5.5.5,0,0,0,0-1,.535.535,0,0,0-.571.5Z" transform="translate(0 0.023)" fill="#b6a183"/>
    </g>
  </g>
</svg>
