<svg xmlns="http://www.w3.org/2000/svg" width="1532.038" height="1375.727" viewBox="0 0 1532.038 1375.727">
  <g id="Layer_2" data-name="Layer 2" transform="matrix(-0.809, 0.588, -0.588, -0.809, 1532.019, 556.289)" opacity="0.94">
    <g id="Layer_1" data-name="Layer 1" transform="translate(-0.024 0.002)">
      <path id="Tracé_4761" data-name="Tracé 4761" d="M2.472,213.471c1.99-.876,2.906-1.99,1.99-2.926S.88,214.128,2.472,213.471Zm14.59-7.723c-1.99-.7-6.867,2.329-5.155,2.568,1.214.159,1.712-1.035,3.085-1.035s3.961-.856,2.07-1.533Zm43.511-20.183c0-.936-1.294-.856-3.006,1.115s-3.165,3.006-3.424,3.981-2.229-.179-2.846,1.015.438,3.861,1.632,3.006,1.294,0,1.99,0a13.077,13.077,0,0,0,5.135-3.6c.776-1.194-1.373-1.553-1.453-2.309s1.791-.776,2.747-1.294S60.493,186.521,60.573,185.565ZM6,175.434c-.159-1.373-3.861,0-3.424,1.214s3.981,2.13,5.394,1.632a1.553,1.553,0,0,0,.776-2.667C7.707,174.757,6,176.807,6,175.434ZM169.668,99.519c3.085.7,3.424,6.19,5.494,6.19,1.353,0,.338-1.732,2.568-1.732s1.712-1.194,3.782-1.015,3.762-.518,3.762-2.926,1.553-3.264,3.6-3.782.179-3.085,3.105-3.762a66.083,66.083,0,0,0,12.361-5.155c1.373-1.035-1.732-2.408-4.817-4.3s-5.494-2.388-7.962-.856-.5-1.712-2.388-.856-7.046-1.373-7.723-2.229-9.952,1.99-12.2,1.99.179,2.408,1.732,3.6-3.762,4.877-2.687,5.693-1.075,3.165-3.443,5.832S166.562,98.8,169.668,99.519Zm85.827,14.072c1.015-1.194,5.314,2.408,5.494-.159s-4.817-3.782-6.867-5.155-2.926-.677-6.19-3.085.856-3.6-1.533-5.494-3.264-7.046-1.553-8.758,3.6-4.3.518-5.494-8.081,1.035-7.564,1.712,4.817,3.105,4.817,4.12-3.981-2.906-5.334-1.99-2.906-1.712-4.12,0,1.553,7.723,2.588,9.435-1.035,1.712-2.408,1.99-1.553-4.817-2.926-6.708-6.847-4.12-7.205-2.747,3.443,1.373,2.926,3.264-2.568-1.194-4.459.338-1.553.518-1.214-1.015-2.747-3.264-6.17-2.926-1.553,2.747-2.588,3.6-6.17-.518-2.906-1.194,1.99-2.588.677-4.459-4.459.338-9.773,2.229-7.723,3.981-7.046,4.12.856,1.015-1.194,2.747,0,3.244,1.891,3.244.219,1.513,1.533,1.891,7.384-2.389,9.1-1.194-10.111,1.99-10.111,3.981,6.509,3.264,11.325,2.408,13.216.7,13.216,1.891-5.673.856-9.952.677-11.684,1.214-11.345,2.588.876,1.533,5.334,3.6,9.1-1.035,8.917,1.891,2.408,3.6,8.419,3.762,8.758-2.727,11.664-2.568,4.3-.338,5.673-2.408,2.568-.856,2.906.179,4.12.856,4.976,1.712c2.189,2.189,9.454,1.553,12.2.179s-1.214-5.155-2.588-3.443-2.568.7-2.906-.159,2.747-1.433,3.782-2.647ZM190.248,71.335c3.105.338,6.19-2.408,5.971-3.981S188.716,71.156,190.248,71.335Zm-14.232-4.817c1.194.518,0,2.926,1.373,2.249s1.712-.876,2.747-.518c1.851.617,2.229-1.035,3.085-1.891s.518,3.085,2.747,3.085c1.99,0,1.533-4.12,3.264-2.926s2.229-.5,2.568-1.712.338-3.264,2.229-3.6.338,1.891,1.214,3.443c1.234,2.249,3.424.159,3.6-.876s3.264-.338,3.085-1.533.856-1.553,0-2.926,1.373-1.035,2.408-1.99-1.373-.179-3.105-1.712-2.388.5-2.388,1.533-3.264.179-5.155-.518-4.3,2.229-7.046,3.6-2.906,3.722-5.494,3.463S174.8,66.021,176.017,66.518Zm26.771-.836c-2.408.179-2.229,2.588.518,2.588s3.6.856-.338.677-5.673,3.264-2.926,2.588,5.971-.7,3.981,0-7.663,1.154-6.867,2.229c.518.677,2.747.518,5,1.373s3.6,1.373,5.314-.518,3.981-3.782,3.085-1.214,2.747.7,7.384.518-.856,2.747-5.673,3.085-3.981,2.747-.159,3.623,11.943-2.408,13.734-4.3,3.6,1.035,5.494-.338,5.494.159,8.738-.518,3.782-6.867,1.373-7.962-2.388,1.214-4.279,1.553-2.926-1.99-4.459-3.6-.518-4.478-2.747-4.12-7.046,3.981-4.12,4.279,1.871,1.891.338,2.588,3.6,1.99,2.906,2.906-8.579.179-8.917-1.533-6.529-4.817-9.1-4.12-1.553-1.99-4.12-2.229S205.2,65.5,202.788,65.682Zm8.917-12.361c.876-1.99-5.673-1.712-5.135-1.015,1.194,1.433,4.279,3.065,5.135,1Zm14.251-.856c2.229-.338,1.214-1.99-2.389-1.533s-9.793.5-9.793,3.085c0,1.99,1.194,3.085,5.155,3.424s7.384-3.424,5.494-3.424-.7-1.214,1.533-1.572Zm-8.4-3.264c1.712.7,3.424-1.533,4.618-.5s6.529,1.871,6.529-.876-6.688-3.085-8.4-1.99-9.614,1.373-7.384,3.085c1.373.975,2.906-.418,4.638.259Zm28.662-5.414c1.99-1.373,5.832.856,5.155,2.408s-6.628-.318-6.19,1.035c.179.5.856,2.568,4.976,1.373a10.728,10.728,0,0,1,10.31,1.871c2.747,2.249,5.314,3.105,7.205.876s-2.408-2.588-1.553-4.3-2.747-2.747-4.638-2.747-2.568-3.443-4.12-2.747-2.568,1.891-2.568-.338-8.917-2.408-11.146-1.553S244.149,45.241,246.219,43.788ZM247.413,58.2c1.373-1.712-5.494-7.205-5.832-4.618s4.379,6.529,5.832,4.7Zm22.313-22.372c1.214-1.99-7.225-3.682-5.135-1.891C265.785,34.95,268.532,37.816,269.726,35.826ZM250.339,74.778c1.194-1.373-2.588-4.279-3.6-1.871s2.369,3.264,3.6,1.851Zm19.387-11.943c-.159,1.712-4.12-.358-7.205-1.553s-1.194,2.408,1.194,4.459-1.194,1.035-4.459-1.194-2.906,1.553-1.373,2.747-.338,2.926-2.388.179-3.105-5.673-6.369-5.852-1.771,3.185-.5,4.817c1.712,2.229,3.424,2.747,6.17,4.279s7.205-.677,9.275-.159-2.229,3.085-.856,4.8,5.135.517,8.061.358,1.553-1.99,3.264-3.105-1.712-1.015-.338-3.981-4.3-7.6-4.479-5.872ZM276.951,52.7a18.193,18.193,0,0,0,6.867-1.194c2.229-.876-1.214-.876.338-2.926s-3.782-2.229-4.12-1.553-7.046-4.12-8.081-2.568,2.408,8.161,5,8.161Zm13.933.856c-.338-1.035-13.356.537-11.326,1.99,3.384,2.568,11.624-1.035,11.286-2.07Zm-1.99,25.059c3.085-.179,1.553-3.981-1.891-6.529s-11.146,2.727-9.773,3.782a28.443,28.443,0,0,0,11.724,2.667ZM267,102.644c3.782,2.588,2.588-1.99,6.867-1.871s4.478-6.867,5.155-9.454-3.424-2.389-2.408-.518-.159,3.782-.517,1.553-3.6-.179-4.8-1.99,3.782-1.891,4.976-4.12-3.981-1.99-2.747-3.6-7.544.179-4.976,1.194.179,2.408-2.229.7-9.056,1.154-6.688,3.085c1.871,1.553,7.544-1.035,4.279,3.443s-4.638-1.214-7.723-.7-1.712,4.3,2.926,5.673,4.1,3.961,7.862,6.529ZM294.984,75.2c1.194,3.424,2.568,1.015,4.459,2.389s4.817,2.229,6.349.856,2.229-2.389,2.747-1.194c.836,1.99,4.638,2.229,12.878,2.408s6.19-3.443,8.579-1.99,7.962,1.373,10.31.856,3.6-4.279,3.424-6.17-18.531-3.424-21.8-1.553-8.419-.856-10.987.518-1.712-1.712-6.349-1.99.338-2.568,1.194-3.6-7.026-3.762-10.29-3.085-5.155-1.035-8.24-2.408-11.485-1.035-9.793,1.373c1.214,1.732,11.166,5.334,12.2,3.6s3.6,1.99,5.135,3.981-1.035,2.468.159,5.931Zm8.758-20.262c-3.085-1.553-6.966,1.712-3.782,2.926,2.727.936,6.847-1.453,3.762-3.006ZM279,35.627c2.528,1.274,1.035,2.926,3.782,4.12s10.629-1.553,11.326.338-8.061,1.99-6.867,3.264,6.17,3.085,5.494,4.12,8.24,3.981,9.1,2.588,3.264-1.035,5.494-.179,2.408-5.314,3.981-4.3,1.373-2.229,3.981-3.264,6.27-1.035,6.509-2.229c.179-.856-.677-1.99-3.762-1.712s-5.155-.856-3.782-2.568-3.443-2.229-1.712-3.6-3.264-2.747-2.747-.7-3.105.179-3.6-1.712-7.564-2.568-12.2-6.688-9.435-1.373-6.688-.876,2.568,1.891.338,1.732-6.17.159-2.568,1.533-.338,1.891-3.264,1.891-3.085,3.782.677,4.3,1.035,2.747-1.99,1.99S276.254,34.253,279,35.627Zm20.78-17c2.388-1.533,4.279-.518,2.229.518s-1.373,1.712,1.533,1.553-1.194.856-1.194,2.568,3.424.7,3.6,2.408,7.544,2.408,9.793.338,1.373.518,1.194,1.891,10.47,2.568,10.987.856,1.99-1.035,4.12-.518,12.181-1.891,12.361-3.981,3.264,1.035,0,3.264-9.793,1.99-12.7,2.747,1.871,2.906,4.8,5.155-3.782,1.015-6.529-1.891-8.917-2.926-12.181-2.747-2.229,6.17.179,6.17,4.8.856,7.205,4.638,7.544,2.926,7.544,4.638-6.688-1.373-10.47-1.99-9.773,1.732-9.952,4.478,5.494,2.389,9.275.159,1.015.7-.856,2.408,4.458,3.085,4.458,5.155-4.638,1.373-5.155-.518-2.229-3.782-6.688-3.443-3.264,3.443-.517,3.782,2.926,2.408-.179,2.408-10.052,1.99-7.962,3.981,11.146,0,12.7,1.373,5.832,1.891,6.867.338,4.459-.856,7.962-.856,4.279.518,5.832,1.891,4.279.856,6.17-.518a4.916,4.916,0,0,1,4.3-1.373c2.388,0,2.906-1.533,1.712-3.424s-4.3,1.373-4.638,0c-.418-1.712-3.264-2.229-8.061-1.553s-2.747-3.085.159-2.229a20.462,20.462,0,0,0,10.131-.338c3.264-.856.7-2.408.7-3.782s4.12-.518,7.205-.518,7.544-4.976,7.723-7.962-6.867-2.229-10.29-2.229,2.229-2.568,8.738-2.229,3.623-2.568,4.817-3.6,4.279,1.214,7.544.518,1.035-3.424,3.264-3.424c1.592,0,5.155-2.408,12.181-6.369s12.54-3.244,12.878-5.494-9.773,0-11.5-.677,7.046-2.568,9.116-1.99,4.8,0,11.843-3.424,3.981-4.3,1.015-3.782-6.17-.518-5.971-2.389-4.279-.179-4.459-1.214-4.279-.518-8.758,1.214-.338-1.732,1.553-2.408-11.325,0-13.555-1.553-4.817,2.588-6.867.518-7.384-.338-6.708,1.194-.856,1.553-2.906-.159-5.971.159-9.614-.338-1.99,2.906-5.971,1.194-8.24-.856-7.026-.338-.358,1.533-1.99,1.015-3.264.179-2.408,1.99-6.349-.518-6.349,1.373-2.568,2.926-4.638,1.214-8.718-2.369-6.887-.9-5.832.7-3.782,2.229-2.568,2.747-2.568,1.891-4.3-2.408-5.971-.856-2.229,3.424-3.085,2.408-4.638-.7-8.24.677S297.373,20.181,299.781,18.629Zm43.252,148.147c1.194-.179,3.6-4.459.518-4.3S341.162,167.034,343.033,166.776Zm-15.107-3.782c2.747,1.712,6.867-2.926,6.529-4.279S324.6,160.924,327.926,162.994Zm12.46-9.435c.338-1.712-5.673-2.408-5.334-4.3s-5.653-3.424-7.544-4.459-4.817-1.553-4.817-3.6-4.1-.518-4.279,2.568-1.891,2.408-1.035,5.334-3.782,3.6-3.264,5.135,2.747-.159,4.817-.159-.557,2.866,1.99,3.085a9.952,9.952,0,0,0,6.529-3.6c.856-1.373,2.568-1.99,4.976-.179S339.948,155.251,340.386,153.559Zm32.086-47.889c1.732-.179,3.782-1.553,3.264-3.105s-4.976-1.712-5.832.179-4.459-1.99-4.459-3.6-5.494-.179-4.817-2.747-6.349-3.264-8.24-3.264-4.618,1.553-4.279,3.264-1.99,1.035-2.408-.856-4.976,1.99-6.349,1.99.856-4.976.179-6.509a39.026,39.026,0,0,1-2.747-4.638c-1.035-2.588-6.19-1.553-7.564,0s-5.832.856-8.24,3.264.179,4.8,1.214,5.653-3.6,2.229-1.99,3.6,3.981.7,4.12,2.926-5.653-.7-6.529-2.568.358-3.623-.856-5-.159-3.085,1.99-5.474,3.981-1.99,3.981-3.443-9.614-1.373-15.267,3.782a13.216,13.216,0,0,0-3.6,13.376c.338,1.373,5.314.7,8.22,1.553s1.373,1.99-.856,1.712-5.971-1.015-5.832.518,4.817,4.459,7.564,3.782,2.747-.7,3.981.856,4.459,1.035,7.723,1.194a80.447,80.447,0,0,1,8.579,1.553,4.777,4.777,0,0,0,3.981-1.712c.5-.856,6.847,1.373,8.738,1.194s.7-1.99-.518-2.408-.677-2.747.876-1.871,4.12,1.373,4.618,2.906,1.99.7,1.99,1.99,5.653,2.568,5.832,3.981-5.314,1.99-3.782,3.264,3.981-1.533,5.971-1.712,1.99,4.459,3.6,3.782c2.11-.935,3.782.856,5.852,3.762s-.179,5.673,0,6.708,4.12.677,6.349-.518,4.279,1.373,5.971,2.926-6.369,4.1-5.673,2.727-4.817-5.474-9.793-3.6-1.533,4.817-1.015,6.529-4.478,3.443-9.1,1.99-3.264,1.035-5.155,1.035-3.981,2.906-2.229,4.8,5.494.179,8.579.338,3.424,1.035,3.782-.677,3.6-.856,5.832-.338,1.712,3.6,4.459,3.981.517,3.085,2.229,4.976,7.205.856,9.275,2.926,10.788,6.15,11.943,4.638-7.564-9.614-10.131-10.31,2.568-1.533,5.832,1.035,8.061,3.782,10.47.677-1.99-2.229-1.99-4.459-1.553-5.314-3.981-5.314-8.579-4.817-6.349-5.832-.677-2.408,1.035-4.3,3.424,1.712,5.494,1.99,2.408,2.747,5.653,5.494,3.623.856,4.12-1.035,4.12-.338,3.981-2.229,2.906-4.12,4.976-4.976-1.712-2.926-4.459-2.747a2.727,2.727,0,0,1-3.264-2.926c0-1.194-5.155-4.12-6.867-3.6s-4.638-2.229-6.867-2.408-5.494-1.871-5.155-4.279,4.458.677,5.314-1.214-4.279-.856-4.459-2.229,1.214-.856,2.229-1.712-.856-2.568-1.99-3.264-1.553,1.373-2.747,1.373-.179-1.891.677-3.085-3.981-2.568-5.971-1.99-2.747-.518-2.747-1.891-3.623,0-5,1.035-3.185-1.254-1.473-1.413ZM360.29,130.212c1.99-.338,1.672-3.523.518-5.155-.856-1.194-3.085-1.373-4.976-1.194s-5.155,3.085-3.443,5.971S358.14,130.55,360.29,130.212ZM338.734,85.586c-1.035,2.229,2.229,2.229,2.408,4.8s3.424,3.443,5.832,1.99,9.275.458,9.275-1.553-7.205-5.314-9.793-4.8S339.769,83.357,338.734,85.586ZM403.1,231.663c.338,1.373,10.31,5.494,10.649,3.6S402.805,230.489,403.1,231.663ZM364.151,364.345c.677-.856-4.638-4.3-7.225-4.3s-10.987-5.832-18.71-7.544-14.45,3.842-13.734,4.8c1.035,1.373,4.817-1.712,6.708-3.085s3.6.7,3.762,1.553,2.588,1.373,6.529,1.533,4.459,3.443,8.24,4.3,0,2.408,1.891,3.085S363.455,365.2,364.151,364.345Zm-15.923,7.544c.7,1.214,7.225,2.926,7.962,1.393s-8.857-2.866-8.021-1.393Zm44.128.358c1.533,2.388,5.971.955,6.349,0,.617-1.732-7.962-2.408-6.409-.04Zm-23.885.517a6.569,6.569,0,0,1,5.673.856c1.373.677,1.712-.7,4.8-1.732s8.061.876,8.061-1.533-8.22-4.976-10.291-4.3-6.529-2.408-8.24-1.194,2.568,3.782,2.568,5.314-6.887-.279-7.544,1.373c-.378.856,2.369,2.07,4.936,1.214Zm53.522,296.015c1.373.7,7.006-1.672,6.349-2.906C426.969,663.186,420.62,668,421.993,668.779Zm-.7-4.8c-1.99-.338-6.409,3.483-4.459,4.459s6.349-4.22,4.459-4.558ZM297.711,443.862c-1.712,2.568,1.692,5.076,2.408,3.981S299.423,441.255,297.711,443.862ZM568.408,111.6a11.365,11.365,0,0,1-6.867.338c-2.289-.577-5.971-2.508-8.579-1.035s-1.035-2.17,1.135-2.508,1.274-1.373.7-3.662,3.662-.8,5.494,1.831a7.782,7.782,0,0,0,8.459,2.906c3.085-.916.119-3.443,1.373-5.155s-9.494-7.106-10.072-8.937,2.747-.557,5.732.7,3.662-2.408,3.662-3.981-6.409-1.732-9.275-.119-5.613-1.99-1.712-2.528.338-1.99,1.493-3.2,5.971,3.324,8.579,2.528,4.339.119,6.529-1.612-3.981-3.3-5.155-4.8,6.29-.916,8.579-.8,2.866-3.324,1.035-2.647-8.36-2.289-6.986-4.339,3.881.338,6.748-1.135.239-7.106-1.831-7.106-6.867-.677-6.867-1.712-3.981-1.99-2.846-2.986,2.627,1.274,5.255-.677,8.121.458,10.529,0-1.035-4.916-2.408-4.12-5.971,1.035-6.409-1.373,4.458,0,5.275-1.154-6.648-4.12-7.783-1.712-5.275,1.612-3.105.239,2.647-5.275,2.408-7.225,7.783-1.99,6.867-5.255,3.782-3.881,6.409-3.881,0-3.443-2.627-3.105-5.155,3.2-6.409,1.99,2.966-3.2,5.255-3.2,7.783-.239,9.733-1.373-3.424-2.17-7.086-1.712-3.662-1.154,1.831-1.274,4.578-1.254,8.459-1.712,2.627-1.99,5.036-2.17,8.7-2.747,8.7-3.981-9.037-3.782-13.276-3.782-7.663.677-7.962,3.662-5.593-.577-7.962.458-1.015-2.369-3.2-1.294-4.8,3.981-7.544,5.036-4.817,3.981-6.529,4.22,3.662-5.255,6.409-7.962,1.254-5.971-2.408-5.613-2.846,2.627-4.916,3.085-11.943,5.394-12.361,3.981,8.121-3.981,7.962-5.036-10.888-1.154-15.685-.458-13.276,3.424-13.4,1.99,9.853-3.3,14.888-3.981,14.291.338,18.193-1.254,9.733-1.732,10.748-2.986-4.5-2.926-7.3-2.826-5.494-.219-5.255-1.592-4.18-1.612-4.7-2.747-9.036-.239-10.868-1.373S535.268-.241,530.71.1s-13.933.219-16.142.458a34.734,34.734,0,0,1-5.494.916c-1.99-.119-4.916.577-3.782,1.831,1.99,2.289-3.085,3.2-2.747,1.493s-4.459-2.528-5.971-1.274-9.375-1.473-10.529,0-10.171,1.035-12.818,1.493,4.12,2.408,3.981,3.543-8.579,0-6.867,1.99,7.205,3.543,9.833,6.17-2.05,1.194-5.036-.8-6.747-1.254-8.579-3.2-8.738-3.463-10.41-2.329c-1.99,1.373,4.7,3.981,4.7,5.394s-4.578-.358-5.394.219-4.8-3.881-7.086-3.881-.338,1.99-.338,4.916-4.459,4.578-3.2,2.627.338-6.986-1.99-7.962-8.579,1.99-11.783,1.831-7.444.916-4.7,2.528-.1,2.508-2.508.8-10.31,0-8.7,1.154a4.976,4.976,0,0,1,1.135,5.832c-1.015,1.373-4.339-1.373-7.424-1.154s-18.431,7.564-17.516,9.494,7.444.358,9.494,1.493-.677,5.374-3.2,7.106-11.943.1-12.122,2.17S370.74,45.36,370.74,48.664a2.787,2.787,0,0,0,2.289,2.866c1.99.438,4.578-.219,6.409,1.831s6.986,2.17,10.529.8,6.19.239,5.971,2.289-7.962-.8-10.41.7-9.853.219-9.514,1.831S380,60.228,383,60.806s.239,1.831.119,3.085,1.592,1.035,4.578,2.528,7.962,2.389,6.29.677,3.085-1.493,3.981-.458,2.966-1.493,5.135-.916,2.986-1.99,4.7-.916,9.733,1.831,12.48,3.324,6.509,1.831,6.17,3.981,2.289,3.782,5.374,5.155a6.19,6.19,0,0,1,3.5,6.33c-.119,1.99,3.3,3.324,2.747,4.24s-.119,2.17,1.99,3.981-3.2,3.2-1.99,4.8-1.831,4.7,1.831,5.275,3.085-2.369,5.832-2.369-.119,2.408,1.373,3.981,4.578,1.135,7.444,3.543,1.015,3.543-1.612,1.612-10.29-1.493-10.29-.816,8.459,5.494,10.41,4.817,4.578,2.846,3.424,3.981-.577,3.981-.8,5.374-3.085,0-4.916.239-3.085.8-3.085,2.747-2.866,3.3-3.224,5.712,2.289,2.289,3.782,3.324-2.747,1.712-2.966,3.424,3.981,4.817,5.374,5.613.119,4.7.7,6.648,2.508-.458,2.269,1.99,1.831,2.408,1.99,3.981,3.662,1.274,2.986,3.324,1.015,3.543,1.831,4.7,3.762,3.085,4.339,4.578,2.289,3.424,4.359,2.866,2.17,1.373,3.762,1.135,4.12.7,4.578,1.99,5.394,2.408,6.767,2.627,1.592-2.289,2.846-2.966.816-5.732,1.99-5.971.8-5.613-.338-5.971-.7-2.289,1.99-1.99,1.712-2.289,2.966-2.647.7-2.747,1.592-2.966.816-1.831.119-2.747.119-1.612,1.493-1.831,1.035-2.17-.8-2.866-1.254-2.747.557-1.493,3.2.358,2.189-1.015,1.254-1.99,3.662-2.289,3.662-1.493,3.2-3.324,2.747-1.712,1.99-.119-.338,3.2.816,1.99,3.3-.358,7.205-1.493,7.663-4.359,8.579-7.444,5.374-2.747,4.817-4.8.8-2.866,3.642-1.493.577-.916,3.782-.916,2.647-1.154,5.732-1.254,11.087-1.493,13.933-3.782,8.6-4.24,10.987-5.712,2.707-3.045,1.214-2.249Zm-116.559,4.2c.1-1.831-1.99-.7-3.105-2.866s-6.986-3.085-7.544-1.373c-.239.677-1.99,1.712-.577,3.324s2.528.916,4.24,2.508S451.69,117.612,451.849,115.8ZM667.611,280.23c-.3-1.99-4.22.6-3.384,1.154,1.672,1.135,3.623.8,3.344-1.154Zm22.89-8.121c1.652-.219,1.433-7.146.8-7.205s-.8,1.075-2.408,1.99-.02,5.434,1.572,5.215Zm-4.18,2.986c-.637,1.075,1.99,2.747,1.433,4.976s.279,5.036,1.592,3.7,1.99-.677,2.687-1.652.12-4.578.637-6.29-2.289-2.528-3.543-1.433-2.408-.179-2.846.7Zm24.94,12.3c-2.349.5-3.3.677-4.7,0s-3.583.617-3.244,1.533,1.135,1.433,3.981,2.17,3.2,2.707,4.4,2.747,1.314-1.075,1.035-2.627,1.433-3.324,1.592-3.6-.756-.736-3.1-.219Zm43.491,12.3c0-.577-1.493.338-2.408-.179s-5.036.338-6.111-.677-3.3.8-2.349.955a28.864,28.864,0,0,0,5.653,1.493c2.189.06,5.235-1.035,5.175-1.592Zm29,1.433a3.086,3.086,0,0,1,1.99-2.468c1.234-.478.8-1.493,0-.736a9.952,9.952,0,0,1-5.494,1.652c-2.568.119-3.384,1.811-1.772,2.747,2.03,1.194,5.354-.577,5.235-1.194ZM595.418,150.474c2.229-.119,2.169-2.588,3.085-2.468s2.408-1.712,2.986-2.866a2.548,2.548,0,0,0-1.99-3.2c-1.373,0-2.408-1.075-2.11-1.99s-.756-1.831-.7-2.389-1.712,0-2.627.159-2.866-2.229-3.722-1.771-.239,1.672-.458,2.349-2.289-.637-2.289.179-.856.916-1.553,0-2.289-.338-2.229.358-.677.119-1.99-.7-2.687.916-2.588,1.771-.458,1.095-1.533-.8-2.349.179-1.771,1.214.338,2.269-.518,1.771-1.99.338-2.528,1.135-2.349-2.349-1.035-3.085-4.16-3.981-5.971-3.981-.557,1.274.577,2.189-.8.677-1.433-.119-1.831-.179-2.508.975-1.831,1.771-1.99,2.568,1.99,1.652,3.722.916a4.837,4.837,0,0,1,4.7,0c.916.856-1.672,1.194-.756,1.99s.179,1.254-1.99,1.095-4.817.458-4.419,1.194,5.553-.637,5.613.119,0,1.99,1.373,1.433.458,1.015,1.135,1.314.518,1.652-1.314,1.771-2.707.478-1.99,1.254,2.966.279,4.916-.179,4.737,1.99,7.026,2.807,6.25-.338,6.708-1.533,3.543-.756,4.8-1.612a9.952,9.952,0,0,1,5.374-1.871Zm22.711,72.312a11.7,11.7,0,0,0,6.688-2.747c1.99-1.831,2.986,0,4.757-.975s.677-7.6,0-8.977,1.772-1.314,2.926-2.468-.577-2.787-2.189-4.339-3.7,1.314-5.314.677-3.842-.617-3.881.816,1.771.916,1.831,1.831-1.831.677-3.165,1.592-2.747-.637-4.12,0,1.493,1.493.458,2.926,0,1.373,1.791,2.747-1.035,1.712-1.035,3.244-2.13,1.493-2.587,2.528S616.119,222.786,618.129,222.786Zm10.708-32.324c-1.154.916,1.314,2.11,2.787,2.289s-1.135,1.254-1.413,2.866,1.99.916,1.99,1.99-3.2,1.433-3.2,2.468,1.99-.518,2.747-.975-.458,2.687,1.612,2.349,1.473-3.145,2.229-3.045-.338,1.493.279,2.707-1.493,3.025-1.373,3.881,4.24.856,5.553-.518,1.99.119,1.035,1.154a1.353,1.353,0,0,0,.617,2.388c1.154.418,1.552.518,1.035,1.433s0,2.647-.338,3.5-3.841.736-3.981.159-1.592-.159-1.194.637-1.254,1.652-1.135,2.408,2.229.557,2.289,1.473-1.552,1.99-3.722,2.647.458,2.349,1.493,1.592.8.518,2.269.518,2.408,1.194,4.08.577,1.592,0,.338.975-3.145,0-4.3.557-5.792,5-4.916,5.971c.518.637,1.194-.916,2.866-1.592s1.99.458,2.846.557.975-1.891,1.732-1.712,1.433-.637,2.806-.4a3.583,3.583,0,0,0,3.026-.856c.7-.577,2.508,1.135,3.085.736a11.365,11.365,0,0,1,4.359-.8,12.142,12.142,0,0,0,5.374-2.229c.856-.8-.518-.975-1.652-.8s-.935-1.154.279-2.289,3.085-1.99,3.2-3.722-3.662-2.926-3.981-1.99-1.254.8-1.99-.219.577-1.99,0-2.13a2.309,2.309,0,0,1-1.254-2.11c.159-.577-.975-4.24-2.926-4.7s-2.229-3.2-2.568-4.7-1.612-.677-2.568-1.99-2.647-.637-3.5-.577,0-1.592,1.373-2.508,2.986-5.792,2.986-6.767-5.971-.916-7.166-.338-2.289-.856-1.314-1.254,3.025-2.408,2.926-3.2,1.433-1.553.557-2.289-.956.975-1.712,1.533a6.111,6.111,0,0,1-4.18,0c-1.772-.338-2.448,2.189-2.388,3.264s-1.99,1.712-1.732,2.627-.4,1.612-.955,1.095S629.972,189.546,628.838,190.462Zm-1.612-1.712c1.553,0,3.324-2.687,2.588-3.443s-3.742,3.483-2.588,3.443Zm22.153-12.42c.975-.975,2.11-4.7.617-4.3s-1.095,4.717-.617,4.3Zm49.6,28.264c-1.035-.219-.4,1.493,1.035,1.712s2.966-2.508,2.787-3.2,1.473-3.842.935-4.18-.816.816-1.314.916-1.095-2.17-1.334-.916-1.373-.5-2.508,1.095.677,3.025,1.493,3.543-.06,1.274-1.095,1.035Zm27.746-16.2c-2.17,0-3.185,4.339-2.627,5.036s4.8-5.076,2.627-5.036Zm12.142-1.135a11.465,11.465,0,0,0,3.981-2.627c.617-.637-.4-1.314-2.468-.756S738.052,187.3,738.868,187.257Zm3.244-5.036c.458-.856-3.3-.478-2.448.279a1.672,1.672,0,0,0,2.448-.279Zm638.447-38.913a7.644,7.644,0,0,0,4.339.9c.975,0,0-.9-.916-1.075s.179-.975.876-.338,1.99.916,2.11.219.8-2.17,1.99-2.11,1.612-.637.458-1.035a18.887,18.887,0,0,1-5.712-3.981c-.916-1.314-5.315-1.99-5.315-1.254s-1.433-.179-1.771-.916-4.976-.856-5.056,0,1.095.856,1.791,1.771-.916,1.433-.577,2.468-1.732-.518-2.468-1.095-.4-2.807-.159-3.981-1.333-.916-1.493-1.99-5.314-3.483-7.5-4.4-4.976-1.732-5.713-2.866-4.638-1.254-6.13-2.806a26.175,26.175,0,0,0-10.808-4.459c-2.807-.179-2.17-1.712-3.543-1.493a55.236,55.236,0,0,1-9.1-.338c-1.831-.279-2.229,1.095-3.563.577s-8.121-2.986-8.917-1.99-.458,2.229-1.254,2.468,0,1.373,1.891,3.085.736,3.025-.975,3.782a5.294,5.294,0,0,1-5.334-1.99c-.856-1.314-3.185-.736-3.762-2.468s.677-1.99,1.831-1.015a1.732,1.732,0,0,0,2.846-1.095c.179-1.254-3.085-2.11-4.857-1.99s-2.747,2.568-4.578,3.6-8.917-.4-9.673-1.095-10.629,0-11.664.7-.3,3.364-.8,3.6-1.035-3.105-1.035-3.722-1.194-1.095-2.986-1.095-2.787,0-1.99-.8-.7-1.493.677-2.468-2.508-3.981-6.29-5.494-12.36-.617-14.649,0a43.532,43.532,0,0,1-9.036.518c-2.17,0-.4-.856-1.035-1.99s-4.339-2.289-4.857-1.433-1.493,0-1.493-.617-3.483-1.891-4.857-1.612-1.99-1.254-.4-1.254,4.339.338,3.145-1.493-11.5-2.408-12.48-1.99,0,1.652-2.289,3.782-4.4.677-4.12-.358,3.045-.856,3.045-1.891-3.782-.458-4.359-1.314.8-1.433,2.17-1.015,3.782.617,3.981,0-1.433-.756-3.722-1.154a52.17,52.17,0,0,0-10.748-1.433c-2.926.3-4.24-1.075-5.852-1.194s-1.592.856-.856,1.771-1.533,1.493-3.423,1.194-4.638,1.035-3.543,2.408,2.17-.4,3.085,0-2.409,1.433-1.035,1.99,1.135,1.99,1.194,2.647-2.289,1.015-3.145,0-1.991-.119-3.662-.239-2.807.637-1.075.856,2.289,1.314,0,1.553-1.732-2.13-3.1-1.831-4.339-1.095-5.971-1.035-2.329,1.314-4.458,1.493a7.961,7.961,0,0,1-5.832-2.229c-.856-1.154-1.135-1.493-2.17-.179s-1.095,3.842-2.13,3.981-1.413,2.408-2.448,2.986-1.095-.856-2.409-.756-5.553-3.981-5.772-5.195-2.866-3.5-3.543-3.981.677-.677,1.533,0a2.428,2.428,0,0,0,2.806.3c.856-.458.736-2.588-.736-2.647s-.916-1.314-.179-1.533-1.712-2.468-.8-2.687.517-1.214-.756-1.373-2.568-1.214-2.627-1.831-5.374-.856-5.155,0-1.712.617-1.413-.119-1.891-.518-4.419-1.194-2.568-2.468-3.423-2.588-.577,2.468-1.831,1.891a1.453,1.453,0,0,0-1.99,1.99c.7,1.473,0,1.712,0,2.906s-.8.7-2.289.179-1.493,1.254-4.7.458-4.618,0-5.2-.975-1.552-1.135-1.672-.279-5.036.517-5.434-.756.876-1.473,1.612-1.831-.8-.856-3.483-.677-4.419-1.373-7.166-1.095a93.209,93.209,0,0,0-9.733,1.254c-.856.4.816,1.99-.5,1.99s-.418-2.528-.637-3.782-2.229-1.433-1.99-.458-3.145,1.314-3.981.577a10.729,10.729,0,0,0-4.6-2.229c-2.229-.577-4.976,1.831-4.359,2.508s2.289.179,2.349.637c.119.936-4.737.577-4.737,1.373s-4.538,1.99-5.971,1.99c-3.762.458-4.558.458-6.349,1.99s-.4-1.314.975-2.687,2.806-.8,3.6-1.99,1.99-.975,4.24-1.314,1.99-1.592,3.085-1.99,3.563-1.433,3.981-2.468,5.593-2.747,6.628-2.687,1.254-1.99,1.831-1.99a32.607,32.607,0,0,0,4.7-1.811,3.066,3.066,0,0,0,1.772-2.349c0-.756-1.553-.637-1.712-1.314s.736-.239,1.99-.7,0-1.99-.955-1.771.5-.856-.358-1.891-2.568.637-2.508-.458a4.438,4.438,0,0,0-.8-3.145c-.7-.7-1.99,1.194-3.384.119s-5.613-1.771-5.613-1.314-1.99-.7-2.408-.239a9.952,9.952,0,0,1-4.737.119c-1.035-.3-2.468.4-2.528,1.433s-4.1.617-4.857.458,2.807-3.105,2.807-3.6-5.971.1-6.349-.458-3.264-.756-4.578-.7,0-.338,1.135-.458,2.289-1.135,3.6-1.373,1.035-.677.458-1.493-1.99-.4-3.264-.8a20.3,20.3,0,0,0-3.981-1.035,39.071,39.071,0,0,0-5.076,1.095c-2.707.518-2.926,2.568-4.3,3.2s-3.782,3.145-2.627,3.384.577.916.736,1.652-.856.916-2.17.677-5.971-.159-5.971.816,2.687,1.433,2.508,1.99-1.99,0-2.906-.557-2.986-.239-3.384.736-1.99.736-2.528.518-1.652.458-2.508.179,1.712-1.553,1.095-2.189-3.384,0-3.662.975-1.99-.736-2.588-.4a26.1,26.1,0,0,1-2.508,1.254c-1.194.518-3.264-.557-3.722.358s2.289,1.194,2.349,1.592-6.23.338-6.409.975-2.289.637-4.857.677-1.553,1.334-3.6,1.732-2.986.458-3.662,1.473a1.99,1.99,0,0,1-2.986.418c-.7-.816-2.568.4-1.552.5s0,1.154-.557.916-2.468,1.095-1.433.975,1.553.756,1.035,1.373-2.747-.736-3.324-.159,1.075,1.314,2.11,1.194a1.493,1.493,0,0,1,1.732,1.314c0,.736-2.408-.458-2.926.179s.4.916,1.473,1.015.3.518,1.274,1.373l.179.2c.6.7-.518.955-.418,1.632s-1.075,1.035-1.075.358-3.045-.916-3.662-.179-1.095,1.314-1.831.637-2.926.159-5.732.279a64.969,64.969,0,0,0-9.952.856c-1.433.517-2.627,2.528-1.314,3.841s0,1.99,0,2.747,3.424,2.627,5.275,2.806,3.3,2.389,2.229,3.762-4.419-.4-6.588-2.11a17.2,17.2,0,0,0-8.877-2.289c-1.652.119-.677-1.493-2.787-1.433s-3.981,1.99-2.468,1.99,2.349-.119,1.592.577.418.5,2.13,1.254-1.433,1.771-3.2.577a3.006,3.006,0,0,0-4.18.856c-.518.916,1.99,3.543,5.155,3.981s1.99,1.433,3.483,1.99.4,1.075-.577,1.135-2.906-1.493-4.459-2.289-5.712.338-6.588-.577.577-1.831-.219-2.508-.119-2.229.916-3.842a3.643,3.643,0,0,0-1.652-4.8c-1.493-.458-1.373,1.095-1.035,1.533a4.777,4.777,0,0,1-.975,3.981c-1.154,1.433-4.638,1.433-4.638,2.389s-2.349,1.732-1.552,2.408a30.876,30.876,0,0,1,4.419,5.314c.458,1.095-2.806,4.538-2.289,6.529s-.458,2.926.159,3.981,1.99.1,2.986.518,2.408-.577,4.518-.975,5.971,1.831,7.444,2.508.677,1.831,1.433,2.986-1.732,1.135-1.771,2.846,4.279,2.468,4.458,2.986-3.105.119-4.359-.338-1.373-2.13-1.771-2.468.856-1.712.975-2.806-1.433-1.712-1.99-2.468-1.433-1.811-2.448-1.592-4.817.577-5.971,1.592.159,3.981.8,5.394-3.324,3.424-3.2,4.578-1.194,1.652-2.926,2.568-3.6,1.612-3.543,3.085-2.289.7-3.483,0-2.747.4-4.458.358-1.732-1.493-3.105-.975a1.331,1.331,0,0,1-1.871-1.672c.418-1.035,1.99-.219,1.99.518s1.095.4,2.229-.219.577.8,2.229.916.756-.856,1.991-.756,1.314-.279.915-.916.916-1.075,1.712-1.433.458-1.652,1.194-1.99.239-1.194,1.035-1.254,1.154-1.274,1.891-1.274,1.154-1.194.677-1.831.3-2.329,1.035-2.568.816-.916.119-1.433-3.2-2.229-3.025-3.3-.478-3.105-.119-3.981a9.951,9.951,0,0,0,0-3.662c-.119-1.035.637-2.17.975-3.981s-1.99-3.881-3.145-4.4-.4-1.553,1.254-2.926,1.771-5.653,1.652-6.588-3.483-1.712-4.8-1.592a53.086,53.086,0,0,1-7.384-.338C924,91.9,923.6,93.17,923.021,94.3a26.326,26.326,0,0,0-2.428,5.215c-.756,2.568-3.782,3.384-5.155,3.981s-2.229,2.468-1.612,3.384,1.552.179,2.189.518,0,2.747-.478,3.085.756,1.194-.219,1.831-1.99,1.99-1.314,2.627,3.384,1.035,4.578,1.732.737,1.99,1.652,3.145,1.891.458,2.349,1.194-1.652,3.722-2.408,3.842-3.762-3.045-4.678-3.722-4.478-1.771-6.25-2.687a33.6,33.6,0,0,1-5.135-2.13,10.848,10.848,0,0,0-7.166-1.99c-3.543,0-5.832-.8-7.026-.617s-.756-1.214-2.866-2.13-3.483-2.17-4.7-1.533-.736,2.906,1.095,3.2.916,1.254,2.866,1.135,2.508.577,2.448,1.771a4.638,4.638,0,0,0,1.771,3.264c.856.816.358,2.13-1.194,2.13s-3.324.219-2.627,1.314-.458,1.373-1.99.8-.637-1.652,0-2.289-1.373-1.433-2.349-1.771-4.857,2.528-5.971,2.966-3.762-.677-6.509,0-2.588,2.866-3.6,2.647-4.08.279-5.215-.4-.239-1.095.975-1.035,1.592-.338.916-1.154.916-1.99.856-2.627-4.518.916-5.275,1.553,0,1.771-.736,2.17-.8-.7-1.712-1.035-7.623,1.214-8.877,2.627-3.722,1.493-3.722,2.289-3.026.756-4.22,1.334-.418,2.906-.856,3.981-5.155.8-6.588.856-1.99-2.747-3.085-2.926-.458-1.771-.119-2.448,1.254-.119,2.687-1.035,2.866.458,3.443-.179-2.189-2.289-2.349-3.722-3.2-1.831-4.936-1.373a7.325,7.325,0,0,1-4.8-.518c-1.194-.557-1.095,1.035.677,1.493s.856,1.831,1.154,2.687a6.708,6.708,0,0,1-1.493,4.3c-1.035,1.493-.279,1.433,1.254,1.373s1.433,1.99,1.433,3.424-1.194,1.99-1.194,2.986-1.254-.518-1.652,0-.916-.219-1.154-1.135-2.568-.418-3.881-.756-1.831.239-2.468,1.194a5.275,5.275,0,0,1-3.443,1.493c-1.075.139-2.687,1.99-3.7,2.687s-1.214,1.99.219,3.384,1.712,2.289,1.612,3.025-3.981.518-4.638-.279a5.812,5.812,0,0,0-3.981-.916c-.876.179-3.2-2.568-4.419-2.627s-1.99,1.433-2.349,2.17.577.975,1.154,2.229,2.687,1.314,3.782,1.314.677,1.672.338,2.349-2.349,1.194-2.926.458-2.966,0-3.025-.916a3.225,3.225,0,0,0-3.543-1.99c-1.791.3-2.13-.856-1.99-2.229s-.975-2.17-.916-2.807-.8-1.871.119-2.508.219-1.592.279-2.468-1.573-2.17-3.006-2.17-1.155-1.433-2.349-1.712a7.564,7.564,0,0,1-3.782-3.145c-.179-.856-1.99-.975-1.373-1.254a3.324,3.324,0,0,1,3.085,1.135,8.858,8.858,0,0,0,5.374,2.289c2.707.338,3.782,1.612,6.767,2.11s4.737.876,9.037,1.493,9.952-3.722,11.226-4.916-.358-3.662-.358-4.578-1.99-1.035-2.229-1.712a3.742,3.742,0,0,0-3.2-1.99c-1.652,0-1.891-1.99-3.2-1.771s-2.229-.577-5.673-2.866-8.161-3.981-9.037-3.543-1.433.617-1.99-.239a1.99,1.99,0,0,0-2.806,0c-.916.677-1.831-.637-3.543-.239s-2.627-.736-2.19-1.254,2.986,0,2.866-.916-1.035,0-2.568-1.035-2.408-.338-2.747.518-1.552.637-2.349-.119-2.926-.916-3.145,0-1.772.7-1.712-.159-2.408-1.553-2.528-1.99,1.035-.338,1.99.179,1.553.159,2.568-.816,2.468-.159,2.627-1.035-1.652-1.413-1.99-1.99a3.264,3.264,0,0,0-2.926-.975c-1.254.219-1.314-.279-1.99-.975s-3.045.458-3.045,1.99-1.433,1.194-.916.338-.677-1.891.458-2.17.518-1.99-1.592-2.189-2.926,1.612-2.408,2.189-1.433,3.025-2.289,3.025.12-2.11,0-3.264-.856-.518-2.468,1.314-2.787,3.5-3.7,3.662-.816-1.652.677-2.448,1.553-2.986,2.508-2.986.975-1.135-.438-1.493-1.672,1.274-2.13,1.732-2.807-.816-2.747-.358-1.254.637-.677,1.493-.3,1.612-.876.577-1.99-.239-2.687.916-1.592,1.075-.916,1.493a1.314,1.314,0,0,1-.4,2.229c-1.015.279-.617-2.806-1.413-2.528s-.3-1.493.8-1.493a2.607,2.607,0,0,0,1.99-1.99c-.179-.677-1.373-.518-1.373.338s-1.712.7-3.145.637-1.373,1.652.239,2.568-.3,1.493-1.095.8a2.866,2.866,0,0,0-2.926,0c-.856.4,1.99,1.433,2.189,1.99s-1.493-.637-1.831-.239-1.99-.279-1.99-1.254-2.687.4-1.254.756.916,1.254.916,2.508-1.672.279-1.314-.8-1.035-.856-2.17-.179.159-1.254-.3-2.229-1.493,0-2.687.239-1.831.279-1.075,1.075.617,1.99-.358,1.771-1.373,0-1.254.916-1.254.975-1.373.179-1.99-.577-2.627.338-2.19,1.612-1.99,2.627,1.433-.518,2.468-.159,0,.856.518,1.373.438,1.771-.358,1.035-1.831-.975-1.99.219-1.035-.179-1.732-1.035-1.373,1.612-2.11,1.035,1.493-2.349.916-3.2-.975.518-2.289,1.831-3.085,1.254-2.448,1.99-1.334.975-1.672,1.99-3.025,1.493-4.737,2.647.338,1.194,1.314,0,1.314-.458,2.846-1.433,3.2-1.771,3.782-1.373a1.513,1.513,0,0,0,2.289-.338,1.473,1.473,0,0,1,2.408-.159c.737.617-1.254,1.135-.338,1.99s-1.095,1.433-1.095.637-1.135-1.493-1.553-.756-1.075,1.553-1.831,1.612-1.533,1.433-1.533,2.806-1.314,0-1.433,1.194a12.1,12.1,0,0,1-3.543,4.857c-1.612,1.553-.119,1.99-.637,2.866s-2.408.119-3.025.518.338,2.807-.518,3.543,0,1.771,0,2.627-2.229-.5-2.408.358-2.11.617-2.687.856,1.154,1.592,2.169,2.408-.975,1.413-1.194.5-1.652.577-3.443,1.373-1.015,2.408-2.389,2.468-.975,2.229-1.891,2.926-.7-1.612-2.13-1.672-1.314.975-.458,2.189-1.314.279-2.11,1.314-3.085.518-3.722,1.373,1.712.856,1.99,1.533-1.99.358-3.324,0-.916,1.612-1.99,1.373-2.588.975-1.791,1.771-.617.916-1.433.4-1.473.756-1.771,1.732,1.553,1.473,1.493,1.99-1.493,1.214-.458,1.433.3,1.154-.4,1.433-.677.975,0,1.831-1.194,1.035-.279,2.349,1.592-.338,1.99.637,1.493.1,2.747-1.035,1.732,1.254.7,1.194-2.229.577-1.99,1.612-1.592.856-1.533-.4-2.13.219-1.334,1.135-.358,1.831-.358,2.627,1.553.7,2.17-.279a1.095,1.095,0,0,1,1.99.219c.4.975-.975.239-.975,1.553s-.856.159-1.612,1.194,2.926,2.926,3.981,3.2,2.249,1.553,4.538,1.194,6.628-4.578,7.205-5.314,1.831.119,2.687-.577.338-2.448.975-2.806.975,1.99,1.533,2.13.975.677.916,2.11a4.658,4.658,0,0,0,1.732,3.981c1.254,1.015.279,2.568,1.373,3.981s.737,2.468,1.99,3.483,1.314,1.612.816,2.926,1.015.975,1.075,1.771-.338,2.468,0,3.264,1.194,0,3.025,0,1.373-1.194,1.433-2.289.975-.577,1.214-1.254,1.891-.856,3.2-.3,1.99-.4,2.229-1.771.975.3,1.373.577,1.592-2.11,2.17-3.662,0-1.254-1.373.239-.577-1.493,0-2.707a34.8,34.8,0,0,0,.637-5.494,2.627,2.627,0,0,1,2.17-2.329c1.652-.358,3.841-2.408,3.483-3.264s2.289-2.289,2.289-3.145-2.747-3.5-3.662-3.981-2.906-.119-2.747-.756a17.921,17.921,0,0,0-.458-4.339c-.219-1.274,1.433-2.588,1.433-3.782s0-2.568,1.035-2.966.4-1.433,1.831-1.791,1.135-2.389,2.687-3.025,1.652-1.154,3.662-2.11a17.593,17.593,0,0,0,5.971-4.478c.577-1.194-1.99-2.448-.4-3.7s.279-2.707,1.493-3.165a6.111,6.111,0,0,0,2.508-1.99c.856-.916,1.99,0,3.981-.4a8.618,8.618,0,0,1,5.215,1.373c1.533.677,1.314,1.771,1.373,2.966s0,1.99-.7,1.373-1.652,0-2.11,1.712a6.17,6.17,0,0,1-3.981,3.981c-1.334.119-1.214,1.493-2.289,1.771s-2.13.916-1.99,2.11-1.592,1.334-2.687,1.334-.856,1.99-1.712,2.448-.7,1.194.119,2.229.1,1.99.378,2.687a5.056,5.056,0,0,1,.7,4.359c-.856,1.99-1.771,4.24-1.035,3.981s2.468,1.553,3.6,1.433,1.274,1.592,2.349,1.254,1.095,1.035,4.24.916,9.494-2.747,11.943-2.747a11.584,11.584,0,0,0,5.1-.975c.9-.458,1.533,1.771,2.448,2.528s2.747,0,3.384.736-.518.756-1.831.518-1.672.577-3.722,1.254-1.095,1.433-2.747,1.99-5.275-1.135-7.325-.736-6.23.4-7.205,1.433-3.443,1.314-2.349,2.229,0,1.373.8,2.448,1.214,1.553,2.289,1.314,1.99.358.8,1.553-.338,1.99-.4,3.981-1.99,1.473-3.145,1.473-2.846-3.264-3.424-3.981-2.408.916-3.722,1.712-.637,2.349-1.553,3.105a2.687,2.687,0,0,0-.577,3.662,3.762,3.762,0,0,1-.279,4.4c-.916,1.035.279.736.8,1.652s-1.99,1.035-1.254,2.13-1.831,1.135-1.831,0-2.747-.577-2.627.159a2.11,2.11,0,0,1-2.349,1.99c-1.652,0-1.771-1.652-1.831-2.408s-6.688.637-8.459,2.408-5.971,1.075-5.971,1.99-1.254,1.314-1.433.4-.8-1.254-2.289-1.254.916-1.493.338-2.229-1.99,1.373-3.424.916-3.145,1.612-4.359,2.528-2.906-.179-1.99-1.493,0-1.214-1.373-.7-3.045,0-2.866-1.373-1.891-2.17-1.771-2.966,1.194-.3,1.99.4,2.588.8,2.747,0c.119-.518-.279-2.966-1.373-2.408s-1.373.358-1.772-.219.816-1.493,1.095-2.408,2.169-.577,2.468-1.314-1.274-1.553-1.851-1.831a2.13,2.13,0,0,1-.1-2.687,3.225,3.225,0,0,0,.4-3.324c-.577-.577-2.627,0-2.806,1.553s-1.831.856-2.289,1.194.916,1.035.179,1.712-1.035-1.015-2.229-1.135-1.334,1.831-1.99,2.807a7.5,7.5,0,0,0,0,4.4c.219,1.373,1.99,2.229,1.473,3.384s1.791,2.568,1.274,3.543.279,1.99,1.035,3.324-1.612.617-1.672,1.533-2.17,0-2.866-.4-2.966-.119-2.906.458-.239,1.712-1.095,1.214-2.17-.239-3.881,0-2.229,1.99-1.612,2.687-1.652,1.035-1.831.119-1.891-.279-1.772.916-1.891,1.672-1.771,3.145-1.831,2.866-3.085,3.6a7.963,7.963,0,0,1-3.981,1.553c-1.373,0-2.588,1.035-2.349,3.324s-1.672,2.508-3.981,2.687-1.552,1.99-2.528,2.747a4.638,4.638,0,0,1-4.857-1.672c-.458-1.254-3.543,0-2.229,1.493s1.254,3.543.518,4.12-2.349-.916-3.384-.159-1.095-.7-2.349-1.154-1.772.577-3.782.4-3.145.975-2.389,1.831-.119,1.672.458,2.408,3.2.637,5.135,1.652,2.408.179,3.384.916,1.194.3,1.254,1.712a3.782,3.782,0,0,0,3.045,3.324c1.871.517.458,1.771,1.015,3.045s-.856,3.085-.557,4.618-.916,6.529-1.831,6.986-4.578-.975-6.927-.677-9.952-.358-12.759-.119-3.1-1.194-4.7-1.194-.916,1.99-3.2,1.99-2.508,1.493-.856,2.806,0,5.215.8,6.409-.916,7.544-2.408,9.275,0,2.17,1.493,3.364.518,5.553.518,6.588,1.373.736,2.966.736,3.563-1.194,5.155-.458,2.528,4.737,4.7,4.459c.916,0,.458-.8.916-1.254s1.314-.119,2.229-.119,1.373-1.314,3.543-1.373,3.543-.219,4.916-.159,2.468-.4,2.807-1.373a3.7,3.7,0,0,1,3.045-1.99c1.533-.219,1.314-1.831,1.413-2.747s2.707-2.289,2.866-2.966-1.493-3.324,0-5.673,3.2-2.448,3.2-3.762,1.612-1.672,3.543-1.99,2.588-1.553,4.24-2.229,1.99-1.99,1.373-4.24,1.314-3.543,3.2-3.841a15.922,15.922,0,0,1,7.106,1.553c1.075.677,2.568.517,4.458-1.493s3.085-1.493,4.279-2.11.7-1.712,2.687-2.289a5.971,5.971,0,0,1,5.454,2.289c.8,1.194,1.015,1.314,1.194,2.289a7.424,7.424,0,0,0,3.662,4.677c2.747,1.791,3.822,3.782,5.255,4.538s2.866.557,3.722,1.592a8.976,8.976,0,0,0,3.384,2.229c1.373.637,1.433,2.11,2.747,2.289s.458,1.314,1.254,2.289a3.821,3.821,0,0,1,.179,4.18c-.876,1.154-.418,3.085.159,3.085s1.771-1.99,1.99-3.2,1.314-1.075,2.229-2.289-1.373-1.493-1.771-3.025,1.712-2.926,3.722-1.652,2.807,2.11,2.906.159-6.17-4.518-7.663-5.434-.518-2.408-2.846-2.289-5.155-2.807-5.971-6.17-4.518-3.563-5.454-5.553.876-2.229,0-3.981,3.045-2.966,4.18-2.508.358,2.806,1.373,2.806,2.926-.119,2.986,1.254,2.508,4.4,3.424,5.434,2.986.8,3.085,1.652,1.612,1.672,3.324,1.771,4.7,3.324,6.349,4.18,2.349,1.433,1.274,2.528-1.334,4.737-.119,5.712,1.493,2.986,2.747,3.384a3.2,3.2,0,0,1,1.99,3.324c-.159,1.433,1.831,1.99,2.747.916s3.5.557,3.5,1.254-2.647-.736-4.12.338,1.135,2.11.8,3.264a2.209,2.209,0,0,0,1.99,2.687c1.334,0,2.806,2.11,3.623,1.712s-.975-3.424-.7-3.881,1.99.8,2.687-.119-.577-1.592-1.772-1.553,0-1.592,1.373-.736,2.11-.219,2.807-.338.856-2.588-1.254-3.145-1.831,1.533-3.2.1,1.254-.856,1.254-1.99-2.11-2.926-3.145-4.359,1.433-2.11,1.99-1.075,2.13.856,3.105.458-1.035-2.229.736-2.926,1.771.517,2.349.756,1.075-1.433,2.906-1.433,3.264,2.349,4.876,2.349,2.229-1.732,3.6-2.229,4.459.159,5.215-.517-1.99-1.553-2.926-2.349-.856-2.806-1.493-2.926-1.592-2.747-.8-2.906,1.831-2.926,3.085-3.324.756-1.672.8-2.866.756-3.025,1.99-3.145,2.17-.119,1.99-2.11.159-1.831,1.831-3.085,1.831-3.623,3.324-3.981a8.8,8.8,0,0,1,4.279-.637c2.17.358-1.075,1.732.4,2.528s5.971-.239,6.29.916-5.255,2.289-5.135,2.866,2.906,1.135,3.881,1.771-.279,2.389.179,2.966,1.99.119,3.145-.736,2.17-.577,3.722-1.612,4.737,0,5.155-.736-.935-1.254-3.981-1.035a2.866,2.866,0,0,1-3.145-3.145,8.5,8.5,0,0,1,4.857-3.085,14.589,14.589,0,0,0,4.916-1.493c1.732-.8,6.768-1.652,7.106-.975s-3.981,2.528-4.817,2.806,1.553,1.493,1.493,2.17-2.508.856-2.289,2.229-.8,1.672-2.11,1.672-1.672.8-1.035.916.577,1.831,3.025,2.448a17.435,17.435,0,0,1,7.225,5.215c2.11,2.289,6.469,1.373,6.986,4.12s1.991,1.652,1.473,3.981-6.529,4.3-8.061,3.722-4.518.179-6.748.179-2.866-1.612-4.578-1.493-1.732-1.553-3.443-1.553-.4-.856-5.772-1.533a16.063,16.063,0,0,0-11.744,3.6c-1.712,1.493-7.962,0-8.459.458s.119,2.17-1.99,2.966-6.568,0-8.121.7-2.11,2.966-.8,2.866,1.991.5,1.592,1.075,1.095,2.17.358,2.866a1.751,1.751,0,0,0,.1,2.687c.916.677,1.095,1.99,0,2.11s1.891,1.433,1.99,1.99,2.528.856,2.528,1.553.736.916,1.99.557,1.672,1.314,2.408,2.468,4.976.338,4.976-.916,1.254-1.612,3.145-1.433,4.359,2.747,5.275,3.085,2.807-.677,3.981-.677,2.906-1.891,3.6-2.289,1.891,1.314,2.986.736,2.269-1.194,2.966-.8-1.652,2.17-1.035,3.085-.617,2.408,0,3.264-.338,1.99-.338,3.384-3.085,5.076-3.483,7.6a24.3,24.3,0,0,1-3.5,7.5c-.458.458-2.349-.7-4.12-.239a6.569,6.569,0,0,1-4.857-1.035c-1.712-.856-7.325.239-8.061,1.314s-2.647,1.095-4.359.418a22.569,22.569,0,0,0-7.086-1.99c-3.145-.279-5.673-.736-5.971-1.552s-1.831-.856-5.215-1.373-2.11-2.806-5.971-3.025-8.579,2.807-8.638,4.4,1.772,3.384.518,5.036a3.981,3.981,0,0,1-5.971,0,11.047,11.047,0,0,0-7.146-2.568c-2.349,0-3.981-1.493-3.842-2.747s-.577-1.831-2.528-2.229-3.6-1.99-7.026-1.433-5.971-1.831-5.971-2.568-1.035-1.99-1.612-1.334-2.747.119-3.025-1.314,1.433-1.373,3.025-2.687a3.324,3.324,0,0,0,.119-5.2c-1.712-1.373-.518-2.13.7-3.384s.1-1.99-.518-1.373-1.672.736-1.831-.637-3.981-1.592-5.334-.279-5.036.119-5.713-.119a23.39,23.39,0,0,0-3.981.4c-1.274,0-4.359,1.99-5.394,1.095s-11.544.736-14.53.856-4.24,3.2-5.971,3.2a9.952,9.952,0,0,0-5.971,3.145c-1.493,1.652-3.981-.338-5.971-.4s-5.1.975-6.588-.677-2.508-2.189-3.6-1.672-3.085,6.25-4.24,7.962a8.8,8.8,0,0,1-5.971,2.807c-1.533,0-1.712,2.349-2.906,3.3s-.756,2.528-2.19,3.662-.736,4.638,0,5.971-2.627,5.195-4.578,6.349-2.568,3.3-5.653,3.822a6.588,6.588,0,0,0-4.916,4.916c-.7,1.831-5,4.518-5.155,7.106s-4.18,6.568-6.807,12.082-.179,6.628,1.035,7.962-.916,3.782.856,6.23-.4,6.25-1.274,7.623-.279,4.558-1.533,6.449.518,4.638,1.433,5.494-1.214,3.324.159,4.876,1.274,2.229,3.5,2.846-.179,1.791,1.652,2.926,1.493,2.468,3.2,3.722a11.764,11.764,0,0,1,4.916,6.17,7.743,7.743,0,0,0,3.085,4.876c1.334,1.075,5.334,3.324,8.141,5.434a49.978,49.978,0,0,0,9.037,5.653c1.99.756,6.688-1.373,12.36-2.329a18.371,18.371,0,0,1,10.41,1.473,36.005,36.005,0,0,0,7.5-3.025,37.538,37.538,0,0,0,5.255-2.408,8.678,8.678,0,0,1,4.757-1.075c1.254,0,1.99-1.732,2.687-.816s3.981,1.095,5.772,1.493a5.732,5.732,0,0,1,3.662,3.981,5,5,0,0,0,1.991,3.324c.856.458,2.966-.856,3.981-.856s4.458,0,5.155-.577,1.413.975,2.229,2.13,2.349.279,2.966.617a5.752,5.752,0,0,1,1.095,3.782c-.239.736-1.274,2.687-.7,3.543a1.652,1.652,0,0,1-.916,2.528c-1.194.4-1.135,1.473-.159,1.533s0,1.314-.518,1.831,1.194,1.214,1.493,1.99-2.189.517-2.13,1.612a3.165,3.165,0,0,1-1.553,2.448c-.677.518,1.851,2.687,1.99,3.443s.637,1.433,2.807,3.543.975,2.568,4.24,5.1a13.216,13.216,0,0,1,4.7,8.34,52.235,52.235,0,0,0,3.483,8.479c.518,1.095-.637,1.99-.637,3.981s2.19,5.653,2.408,8.121-1.373,3.981-2.747,5.613a14.191,14.191,0,0,0-2.807,7.444c0,2.229-1.99,4.4-1.99,5.434a34.247,34.247,0,0,1-.518,5.195,8.917,8.917,0,0,0,2.17,5.215,29.852,29.852,0,0,1,3.782,7.962c.856,2.787,3.324,5.971,3.981,8.061s-.458,5.155.179,6.529a26.117,26.117,0,0,1,1.373,5.971c.338,2.349.518,7.325,2.627,9.395A25.237,25.237,0,0,1,719,564.74c.916,3.045,3.165,5.971,3.722,7.683s1.214,3.424,0,3.6-1.194,1.194,0,3.145.179,3.085,1.254,3.324.756.9,1.612.975,1.493.9,1.99,1.652a1.612,1.612,0,0,0,2.528-.179c.617-.916,2.568-1.194,4.578-1.194s1.592-.856,3.543-1.433a10.451,10.451,0,0,1,5.971,0,4.08,4.08,0,0,0,3.722-.458c.8-.517,2.349.8,2.448-.517s1.732-1.075,3.2-1.075,5.1-2.349,7.962-5.036a72.891,72.891,0,0,0,9.216-11.286,28.266,28.266,0,0,1,5.553-6.17c1.314-1.194,1.871-6.469,1.99-8.3s-1.135-.338-1.533-1.493,2.807-3.264,5.971-4.459,4.518-1.891,4.877-3.025,0-4.359.4-5.613-.3-1.99-.7-4.857-1.433-3.324-1.871-4.936-.358-2.846.617-2.906.975-.518,1.771-1.99,1.732-.916,3.264-1.99,1.612-2.588,3.981-4.458,5.155-1.831,7.564-3.264,6.509-7.046,6.111-8.081a26.611,26.611,0,0,1-.975-7.544c.239-1.891-.338-6.867-.338-9.275s-2.627-1.314-2.747-3.662-1.493-2.329-1.433-3.981.179-3.025-.4-3.2-.219-1.553.677-2.926-1.652-1.533-1.99-3.244,4.638-13,5.494-14.311,1.712-1.095,2.468-1.99.955.458,2.11-1.373a130.22,130.22,0,0,1,8.917-9.554,20.481,20.481,0,0,1,6.767-5.155,45.524,45.524,0,0,0,9.614-9.435c1.99-2.528,4.16-5.314,4.459-7.146a16.6,16.6,0,0,1,3.483-5.971,21.257,21.257,0,0,0,3.6-7.663c0-1.373,1.154-4.3,1.334-6.748s-1.891-2.707-2.528-1.334-5.553,2.289-8.7,2.349-5.036.338-6.17,1.433-3.981-.279-5.036.916-5.1,2.229-6.409-.517-3.662-2.687-3.981-3.085,1.154-1.552,2.249-1.771.557-1.493-.358-2.289a38.908,38.908,0,0,1-4.618-5.1,10.171,10.171,0,0,0-6.13-4.24c-1.373,0-1.612-2.349-2.468-2.448s-2.787-3.5-2.846-5.673a11.186,11.186,0,0,0-4.578-6.529c-1.373-.617-2.289-3.026-2.289-5.971a33.119,33.119,0,0,0-.876-6.409,7.145,7.145,0,0,0-3.364-3.981,4.1,4.1,0,0,1-2.169-4.478c.279-1.831-.975-1.712-1.772-4.279s-3.981-6.409-4.12-7.962-1.99-2.349-1.831-3.981-.856-1.772-2.647-4.3-2.289-6.927-1.771-7.086,1.99,3.7,2.587,4.976,2.508,5.1,3.881,5.1,1.99-5.792,2.349-5.494-.119,4.279.736,4.578,1.314,1.831,3.145,3.822,5.553,7.384,5.613,8.7a5.493,5.493,0,0,0,2.986,4.3c2.289,1.533,2.289,3.424,3.483,4.339s.916,1.99.975,4.3a8.26,8.26,0,0,0,3.145,6.529,9.833,9.833,0,0,1,4.458,5.076,18.154,18.154,0,0,0,3.543,5.971c1.334,1.314.577,1.99,1.334,2.966s1.99,3.324,1.592,4.638a8.738,8.738,0,0,0,1.135,6.17c1.214,1.771.756,5.036,1.334,5.673s5.036.517,7.026-.8a8.14,8.14,0,0,1,4.976-1.553,6.847,6.847,0,0,0,4.24-1.99c.518-.677,2.866-.736,3.841-.617s1.99-.975,3.025-1.99,4.518-1.533,8.181-2.687,2.866-2.846,3.722-3.881,2.11-.458,4.279-1.712,4.638-.637,6.31-1.095,0-1.831,1.473-3.025,3.5-.3,4.24-.7,1.274-3.025,2.528-3.543,2.627-.179,2.448-1.254.119-5,1.314-5.215,3.1-1.493,3.145-2.17a44.037,44.037,0,0,1,3.2-4.518c.756-1.274.816-1.99-.279-2.13s-2.807-3.2-3.264-3.981-3.762-.279-6.469-2.408-2.448-8.857-3.145-8.917-3.483,2.966-4.618,5.215a7.384,7.384,0,0,1-7.325,3.423,4.9,4.9,0,0,0-4.6,1.194c-.736.517-3.085-2.508-2.329-3.762s1.194-4.518-.458-4.976-2.588,2.846-2.588,3.762-3.2-3.145-2.349-4.12-.438-3.025-1.712-4.18-3.822-3.244-3.981-4.558-2.349-5.673-2.349-6.529,1.99-1.712,2.966-1.712.975-1.154,1.791-.458,1.871,0,2.687-.119,2.966,3.981,3.981,6.071.916,2.687,2.229,3.543,2.806.4,4.7,2.349a17.038,17.038,0,0,0,8.818,3.364c1.99.119,3.6-2.229,6.23-1.712s1.99,3.981,2.966,5.1,11.684,1.99,13.515,2.508,10.649.517,11.266-.159a2.588,2.588,0,0,1,2.986-.458,9.275,9.275,0,0,0,6.23,0c1.871-1.055,3.026,0,3.085.916s.916,1.314,1.772,2.11.239,1.712.816,2.647,1.712.736,3.364,1.473,1.99,2.806,4.18,3.662,4.24-1.433,4.24.239-5.275,1.314-5.374,1.831,5.434,7.205,8.24,6.688,4.857-3.543,3.981-3.981.478-2.349,1.214-1.99.119,3.324.975,3.981.577,1.99,0,3.563.577,4.737.736,6.509,1.373,4.359,1.771,6.986a41.8,41.8,0,0,0,3.6,10.35c1.552,2.926,2.747,8.638,3.782,9.952s3.662,5.553,3.662,8.141a11.943,11.943,0,0,0,3.782,6.867c.975.677,3.085-.816,3.6-2.408s3.424-2.229,3.6-3.6.458-2.468,1.493-2.647,1.015-1.254,1.015-2.727a8.36,8.36,0,0,1,1.154-4.936,8.339,8.339,0,0,0,.577-6.29,6.728,6.728,0,0,1,.279-4.857c.577-1.433.338-3.105,1.433-3.2a6.468,6.468,0,0,0,3.841-2.627,38.576,38.576,0,0,1,5.971-4.7,38.877,38.877,0,0,0,6.23-6.29c1.134-1.99,4.4-2.528,5.971-4.08s.916-2.329,1.194-3.981,5.1-2.329,6.927-2.329,2.289-.816,3.563-.816,2.966-.159,3.085-1.473,1.533-2.309,2.349-1.99a9.374,9.374,0,0,1,1.99,5.255,8.2,8.2,0,0,0,4.24,5.772c2.229.916,3.722,5.434,4.4,7.842a8.42,8.42,0,0,1-.577,6.25c-.8,1.373.3,1.413,1.612,2.11s2.807.916,3.782-.458,2.966-2.349,3.244-3.981,1.214.756,1.99,1.552a7.206,7.206,0,0,1,1.552,4.3c.159,1.99.338,6.807,1.99,8.34a7.006,7.006,0,0,1,1.493,6.131c-.458,1.194.856,3.264.518,4.578s-.856,4.976-1.314,6.748-.8,3.324.219,3.443,3.105,2.448,5.1,4.976a12.36,12.36,0,0,1,2.229,7.842c0,2.269,3.443,5.971,3.981,7.424s1.473,1.99,3.722,3.543,6.568,4.18,7.424,3.782-1.314-4.18-2.568-5.494-.119-4.857,0-7.424-2.408-2.309-2.986-4.08-1.533-.736-1.871-1.871a6.688,6.688,0,0,0-4.757-3.165c-1.99-.159-2.866-3.085-2.687-4.4s-1.433-2.468-1.433-3.6-1.135-1.194-2.448-1.831.279-4.518.438-6.17,2.926-6.409,2.13-7.962,2.807-2.627,3.264-.975.617,2.468,2.906,2.349,2.289,1.652,4.12,2.17,1.155,2.528,1.314,3.6,1.612.458,2.408.4-.517,1.274.179,1.99,2.687-.7,3.085.279,1.134,1.314,1.99,1.891-1.135,1.553-1.075,3.384,1.433,2.289,1.99,1.533a11.526,11.526,0,0,1,3.5-2.687c.856-.279,0-1.533.916-1.493s.637-1.314,1.035-1.99,1.015-.458,2.389-.4a11.943,11.943,0,0,0,5.275-2.528c1.99-1.254,2.289-1.533,3.025-5.135s-.856-7.962-.916-9-2.687-6.111-3.662-5.971-5.434-4.538-6.23-5.275-.577-1.99-1.712-2.966-1.274-3.5-.975-5.275,2.806-2.17,2.747-3.384.219-2.229,1.473-2.269a4.239,4.239,0,0,0,3.045-1.99c.577-.916,2.349.119,2.687-.916s1.612-.736,2.11.119,1.095,1.015,2.229,0,1.732,1.015,1.035,1.592-.219,2.349.856,3.384,1.254-.637,1.035-1.672,1.831-1.99,5.434-3.244,7.5-3.841,7.564-4.419,2.568,1.035,3.782.119,5.533-1.035,6.688-1.095,1.075-1.015,2.289-1.99.916-1.433,2.289-1.831a3.085,3.085,0,0,0,2.548-2.946c0-.7,2.568-.916,2.627-1.672s1.99-.955,1.99-1.871,1.135-.756,1.652-1.433-.4-2.687.517-2.986-.338-1.373-.517-1.891,1.712-.617,2.687-1.254a3.842,3.842,0,0,0,1.771-2.687c.179-1.095,1.772-1.99,2.528-2.349s1.035-1.831.8-3.145,1.314-.975.637-1.493.279-1.99,1.652-2.329-.856-1.035-1.592-.478-1.552-1.652-2.249-.8-2.627-.518-1.374-.8a35.5,35.5,0,0,0,3.981-1.99c.856-.279-1.274-2.17-2.349-2.11s-2.289-2.508-3.443-2.508.856-.816,2.17-.119,2.866,1.254,3.443.677-2.229-2.846-3.264-3.662,0-1.891-.677-2.349a16.655,16.655,0,0,1-2.468-4.677c-.458-1.314-2.866-1.553-3.443-2.408a2.906,2.906,0,0,1,1.831-3.6c1.771-.736,1.035-2.229,1.851-1.99s1.473-.159,2.11-1.473,1.712-.518,2.349-1.214,3.423-.617,4.4-1.314-.916-2.806-2.229-2.448a3.523,3.523,0,0,1-3.782-1.553c-.916-1.373-3.324,2.508-5.155,3.364s-3.025-1.533-2.388-3.085-1.433-1.473-3.981-1.373-1.592-4.578,0-4.8,3.822,1.433,4.8-1.433,2.349-.637,4.518-3.145,4.7-3.981,6.588-2.568-1.991,3.822-2.627,5.255.557,1.99-.577,2.966.458,1.373,2.687,0a49.151,49.151,0,0,1,7.146-3.981,6.33,6.33,0,0,1,6.29,1.99c1.095,1.373-1.254,2.926-2.289,4.18s.637,1.314.7,2.349,1.433,1.891,1.99.975,1.373-.577,2.966-.577.916,2.468,2.13,2.568a.856.856,0,1,1-.239,1.672c-1.313-.3-1.313,1.771-.179,3.543s-2.17,3.782-1.254,4.7.179,1.99.577,2.568,5.255-.219,7.385-2.408,2.687-1.99,3.762-1.592,2.189-.8,1.612-1.672a10.049,10.049,0,0,1-1.035-5.593c.179-2.647-6.111-8.937-7.424-9.733s-.518-3.025,1.075-3.424a47.554,47.554,0,0,0,6.748-4.12c1.214-.7.4-2.926,1.373-4.7s6.947-6.807,8.44-6.807,2.866,2.468,4.458,2.528,8.877-4.817,8.917-5.613,4.3-4.857,6.31-6.986a31.288,31.288,0,0,0,5.653-7.6c.637-1.473,3.443-4.339,4.12-5.494a19.89,19.89,0,0,0,2.408-3.981c1.254-2.687,1.254-9.733,1.652-10.191s.179-1.652.756-2.408.279-1.771,1.433-2.747a1.99,1.99,0,0,0,.617-2.568c-.279-.736,0-2.408-.219-2.926s-.239-.736.458-1.135-.458-1.433-1.433-1.99-2.229-.856-2.349-1.99a3.265,3.265,0,0,0-3.026-2.289c-1.274.119-3.6-.677-3.324.119s-.119,1.493-.736,1.314-.916.338-1.672,1.493-3.364,1.254-2.17.179-.4-1.154-.179-2.289,1.214-2.289,0-1.553-1.333,2.508-2.408,2.747-.756-3.085-.458-3.981-1.99,0-4.419-.119-1.772-1.831.179-2.866,1.612-1.99,2.568-2.408,3.5-1.99,4.976-2.906a4.3,4.3,0,0,0,2.13-2.807c.338-.975,3.085-2.17,5.553-4.18a15.01,15.01,0,0,0,4.24-4.339c.557-1.214,4.22-2.707,4.279-3.623s4.359-3.185,7.265-3.762,7.564.159,8.42,1.015a1.174,1.174,0,0,0,1.99,0c.518-.577,1.672-.3,3.623,0s2.388-.916,3.7-.518,2.409.617,3.2-.916,4.578-1.254,5.434-.637,1.553,1.493,2.926.577,1.373,1.194,2.687,1.373.458,1.314-.677,1.194-2.588.577-1.274,1.314,2.866-.677,3.981-.557a6.171,6.171,0,0,0,3.981-.7c1.433-.916,1.831.756,2.747,0a6.887,6.887,0,0,1,3.981-.975c1.035,0,.179-1.194-1.533-1.194s-1.672-.916-.3-3.264,3.981-3.6,5.673-5.036,2.846-.736,2.846-1.652.816-3.483,1.99-3.543,4.4.518,6.35-.577,1.771.8,2.568,1.095,1.891-1.672,2.807-1.095-1.374,1.99-1.99,3.6,1.214,1.035,2.189,1.493-1.274,1.135-1.035,1.592,2.17.458,4.7-1.99a8.28,8.28,0,0,1,6.389-3.045c1.612.179.7-1.413.816-3.762s5.036-3.045,6.628-2.349,1.493,1.314,0,.916-2.966.975-2.906,2.906-1.373,2.588-.637,3.324-1.075.916-1.135,1.712,0,1.433-1.154,1.791-4.976.736-5.1,2.229-2.17,1.652-3.145,3.483-4.677,2.926-7.146,6.588-6.349,3.662-6.349,4.339-2.687.637-3.6.736.856,2.349-1.314,4.7a13.116,13.116,0,0,0-3.563,8.877c0,3.264,1.155,12.639,2.13,14.291s.4,5.732,1.194,6.588.518,2.289,1.035,2.807,2.627-2.289,3.981-3.483.975-1.612,1.99-2.249.557-3.264.856-3.981,1.99-1.035,2.627-1.771,1.99-.279,2.866-.577,0-2.17-.338-3.264,2.329-2.568,3.7-3.543,3.085.637,4.638-.8-.1-3.085-.677-3.842,1.533-4.339,2.747-4.7,1.831.876,2.966-.159-1.035-2.687-1.831-2.568-1.075-2.926.8-4.359,1.155-1.712-.1-1.99-1.493.1-2.468.159-1.99-1.99-.458-3.981,2.926-1.771,3.264-3.424a18.788,18.788,0,0,1,2.926-4.876c.5-.856,2.568,0,3.364-.159s.518,1.533,1.493.677,2.568-3.722,3.981-3.722.458,2.13.816,3.384,1.075-.338,3.6-1.99a13.256,13.256,0,0,1,9.673-.736c1.652.8,1.99,2.687,2.846,2.468,1.393-.358.239-1.99,1.612-2.289a24.041,24.041,0,0,0,5.613-3.165c1.831-1.314,1.314-.338,2.269-1.533s1.99-.7,2.249-1.493,2.906-2.11,6.509-2.926,8.3-3.185,8.081-3.981,1.373-1.095,1.533-.338,1.552.458,3.443.856,2.747,1.135,4.22-.338-.159-1.99-.1-3.145-2.588-2.349-2.229-3.563-1.99-4.4-2.647-3.762-2.289-.518-2.289-1.433,0-1.99-1.194-1.314-2.926.338-3.264-.7,2.11-1.771,3.841-1.075,1.194,1.373,1.99,1.871a6.27,6.27,0,0,0,4.419-.279c1.194-.577,4.578-1.652,5.135-2.627s0-1.433,1.095-1.99.279-1.771-.677-2.289a1,1,0,1,1,.279-1.99c1.015,0,.736-1.194,1.433-1.254s.8.518,1.99-.119,0,.975-.518,1.99,1.214,1.99,1.374,2.627,2.627.856,3.981.119,5.792.916,5.971,1.99a4.936,4.936,0,0,0,2.747,3.324c1.831.916,3.5.518,3.842,1.373a1.652,1.652,0,0,0,1.99,1.095c1.035-.239,1.612.916,2.349.219s1.154.4,2.13-.458-2.13-1.433-1.732-2.11,1.035.518,1.99.458-.219-1.712.4-1.99.119-3.6-.557-3.842S1379.246,142.234,1380.56,143.309ZM771.292,476.784c-1.771.756-3.085-4.558-4.976-5.593s-2.647-13.933-1.712-14.331,1.712,9.952,3.7,11.763,1.632,3.861,1.99,5.076S772.506,476.266,771.292,476.784Zm16.322,22.472c-1.015,1.453-3.862-3.085-4.22-5.971s1.652-4.2.438-6.867-1.99-5.235-.338-5.235,3.424,6.947,2.568,9.176,2.329,7.783,1.553,8.9Zm-9.713-56.13c2.926-.856,7.962.617,7.743,1.552s-2.747.517-2.747,2.488a4.32,4.32,0,0,1-1.891,3.981c-1.115.518,1.533,2.13.259,2.408s-4.22-1.214-6.27-.358,0-9.2,2.906-10.072Zm87.36-167.593c-1.373-.1-2.528,1.274-3.981.816s-3.085-1.612-3.543,0-1.035,3.3.8,3.2,1.493,1.135.239,2.408,1.99-.239,2.17.916,1.254,1.254.8,3.085.358,6.509-.119,7.205-5.036,1.712-8.34,1.831-3.543-4.24-7.106-4.24-5.971-4.459-3.981-6.867,3.443-6.17,2.289-8.24-7.962-9.255-7.962-11.206.916-3.2-1.473-5.275.219-3.424,1.99-5.593,5.593-2.986,7.544-4.7a10.191,10.191,0,0,1,8.121-2.627c2.627.677,4.817-.458,5.971,1.135s0,4.578.458,5.732-1.99,1.254-3.782,1.015-5.255.7-4.8,1.732,1.712,3.424-.577,2.17-3.2,1.254-1.99,1.254,2.986,1.493,2.986,2.528.119,3.3,1.254,2.966,1.154,1.712,2.747,1.612,3.085.458,1.831,1.99.8,5.613,1.254,4.7-.458-3.543,2.289-3.324,1.493,3.443,2.986,3.563S866.633,275.652,865.26,275.532Zm22.432-15.923c-2.866,1.99-5.613,1.712-4.7-.816s1.035-5.494-.458-5.494-.458,5.275-1.612,5.613-1.473-4.8-.219-6.628,2.946-.318,3.543.1.239-1.99,1.612-1.831-.12,2.289.915,2.289,3.762,4.618.975,6.688Zm4.12-9.773c-.458.617-4.976-.557-5.354-1.473s6.349.04,5.275,1.393Zm64.987-.418c-3.2,0-10.29-1.612-13.157,1.493s-.8,4.677-1.99,4.916-1.99-4.7-.478-6.29,6.767-2.289,9.952-1.493,8.917-.677,9.713-.458-.836,1.752-4.041,1.752Zm113.454-34.494c-3.245,2.906-9.773,3.6-9.773,5.971s-7.962,3.623-8.579,2.588,5.832-1.214,7.365-4.638,7.424-5.195,10.31-9.793c1.99-3.244,3.782-8.24,4.976-7.962s-.975,10.828-4.24,13.754ZM701.528,40.265c1.632.338-1.712,2.15-2.229,3.782s2.568,3.085,3.861,4.279a5.732,5.732,0,0,0,5.494.358c1.115-.7.776-3.105,2.229-3.006s.677-1.294,1.891-1.732,1.373,1.115.338,2.329,1.811,1.115,3.344-.338,1.891,0,1.552,1.274-3.523.6-4.638,2.15-4.558.338-6.091,1.99,1.373,1.791,3.523,1.373a26.652,26.652,0,0,1,7.723-.358c1.533.358-.955.856-3.523.856s-3.443.776-3.344,1.473-3.6-.776-3.782.776,3.424,2.13,3.861,3.085,2.826,0,3.782.418-1.553,1.035-1.99,1.473,2.667,1.015,3.165,1.871,2.667.438,2.588-.756,1.891-5.971,4.458-6.966,1.115-1.791,1.453-3.244,2.408-.259,1.811-1.473-.259-1.712,1.373-3.264,2.647-.418,4.638-1.373,2.906.7.756.856-.935,2.329.617,2.926.159,1.115,1.373,1.373.856,1.99-.7,3.7.438,1.99,3.7.756,1.194,1.035,2.13,1.99,3.523-.7,4.9-2.329,3.424-1.353,3.344-2.229-1.533-1.194-2.747-.7-4.2.179-3.165-.756.856-1.732-.7-1.553-4.279-.6-3.006-1.115-.935-2.229-2.13-2.15-.876-1.274-.776-2.229-3.443-1.373-2.747-1.712-1.473-1.115-1.99-.438a.836.836,0,0,1-1.553-.518c0-1.015-2.568-.756-3.6-.677s-.518-2.229-1.553-3.006-2.408,1.553-3.165,1.373.6-1.712,1.035-2.747-3.623-2.408-3.981-1.373-1.214-1.553-1.99-1.811-.159,1.732-.935,1.99-1.811.955-.518,1.811a10.568,10.568,0,0,1,2.408,5.832c-.179.7-4.12-3.085-4.3-4.9s-2.15-3.264-2.647-1.99-1.99,1.811-1.552,3.085-1.035,1.732-1.035.7-2.15-2.229-2.906-2.329,1.99-.6,3.244-1.194-1.115-1.453-2.229-.776-2.568-.418-3.264.518-1.533,0-2.747-.259-2.229,1.712-3.085,1.373-1.373,1.712,0,3.861S699.9,39.926,701.528,40.265ZM698,47.211c1.035.259,1.811,1.99,2.747,1.99.438,0-1.453-2.15-2.568-3.344s-1.035-2.408-2.588-1.99S696.97,46.952,698,47.211Zm27.289-13.933c.776.6-1.274.617-.418,1.453,2.568,2.568,12.7-.338,14.072.438s-8.5,1.712-8.061,2.747,8.479,1.871,9.1,1.194,1.99,1.373,4.618,1.553,2.408-1.035,4.379-1.135,4.9-1.015,4.976-2.13,5.852-2.488,5.334-4.379-6.091-.6-7.643-1.373-5.155-1.811-5.752-.6-1.632,1.533-2.15,1.015.259-3.264-2.229-2.488-.159,3.443-.677,3.782-2.926-.518-3.085-1.712-2.846,1.274-3.185-.179-3.523-2.488-4.2-2.408.677,1.035.259,1.732-2.15-.7-2.846-.776.438,1.453.1,2.15-1.732-1.99-2.926-1.99-.776,1.373-1.632,1.453,1.214,1.095,1.97,1.692ZM841.215,120.22c3.085,2.846,5.732-1.254,7.205-1.493s-.9-1.831-3.424-2.508-6.111,1.871-3.782,4.041Zm20.143-30.652c.119,1.135-.577,1.99-2.747,1.99s1.035,1.373,1.254,2.627-2.17.338-2.269,2.289-4.24,0-4.817,2.508,1.99,2.189,3.881,2.289-.677,1.831.7,2.866,2.408.7,1.493-1.254,4.8.677,3.085,2.17,2.747,2.627,4.916,2.747,9.952,1.811,10.072,0c.119-1.135-2.866-2.17-5.255-4.7s-4.12-6.628-1.373-8.34.338-2.528,3.085-4.478,1.135-3.762,3.424-3.981-.219-2.289,1.99-2.627a3.085,3.085,0,0,0,2.408-3.782c-.358-.916,2.389.119,3.662-1.254s4.22-.458,5.135-2.408,14.072-6.409,21.516-8.121,12.6-4.8,9.952-6.867-10.072.8-11.943,2.289-4.458.458-6.29,1.493-5.713,1.99-7.663.677-4.24,1.493-5.713,1.373-3.2,1.493-4.817,1.373-4.8,1.274-5.036,2.189-2.966.677-2.966,1.831-2.189,2.17-3.324,1.135-2.528,1.154-.916,2.627-2.986,1.612-2.17,2.528-1.732,1.473-1.154,2.508-1.592,1.373-3.324,1.712-2.508,2.607-.3,2.707-1.254.458-1.015,2.189S861.259,88.433,861.358,89.567Zm65.684,1.373c1.493.219,5.494-.577,5.971-1.373s-1.592-1.712-4.24-1.712-3.005,2.906-1.732,3.105Zm33.419,1.712c1.831.916,3.2.577,2.966-1.254s-4.419.557-2.966,1.274ZM835.383,28.82c2.627-2.408,6.071-.119,6.529-1.254s-4.916-1.493-6.867-.458-6.509.2-5.971,1.493a4.439,4.439,0,0,0,6.31.219Zm10.768-.955c1.592,1.154-4.478.816-5.275,1.99s-4.319.736-3.662,1.99,6.409,1.473,6.409.338,2.986-.119,3.085-1.154,1.373-2.17,4.578-2.389,3.2-1.373.239-2.747S844.539,26.65,846.152,27.864Zm32.265-1.712c.338-2.408-3.662-.458-6.648-1.712s-4.717-1.174-2.747.577c.916.8-5.1,1.413-4.12,2.389,2.19,2.11,13.177,1.075,13.515-1.334Zm-1.99-2.17c2.747,0,1.99-1.712,3.782-1.493s4.24.119,3.324-1.035-7.564-.677-6.867.239-5.394.577-5.275.916c.279.6,2.428,1.274,5.076,1.274Zm-14.192,7.663c0-1.831-5.971.179-4.8.577s4.837,1.174,4.837-.657ZM877,30.153c.338.916-.577,1.035-2.866,1.035s-3.483,1.294-2.289,2.289,7.444.7,8.479-.677,3.662-.239,4.12-1.612-7.743-2.03-7.4-1.115Zm19.606-2.289c.8-1.035-1.493-1.035-1.712-1.99s-6.648-1.274-6.31-.119-4.419,2.389-2.966,3.543C888.368,31.447,895.813,28.939,896.609,27.864Zm8.36-.577c4.339-.458,4.22-2.846,1.99-3.3s-2.627,1.373-3.762,1.254-5.474.717-4.578,1.712,4.18.617,6.349.378Zm106.647,5.155c2.169.916,1.373,1.493-.916,1.493s-4.26.756-2.747,1.373c1.154.458,1.035,1.712,3.443,2.289s4.8-1.373,4.578-2.747,8.34-2.647,10.629-3.2-1.473-2.986,1.035-3.2,1.493-1.373-1.612-1.831-1.811-3.085-2.846-3.981-1.612,1.135-5.613,1.99-5.971,1.831-4.339,2.647,0,2.727-1.732,2.627-2.05,1.672.119,2.588Zm5.971,3.2c0,1.254-3.682,2.508-2.627,3.443s1.712.557,2.846.8,1.732,3.085,3.782,2.627,7.663,2.289,10.987,2.289,3.662-2.747,2.627-2.866-.12-1.712,1.712-4.339-5.713-4.578-5.713-2.528-2.17-.458-2.866-1.712-10.649,1.075-10.649,2.329Zm17.834,16.1c1.592.916,6.748-1.154,10.191-1.035s13.037-2.627,13.376-4.459-3.543-1.732-5.036-3.324-4.8-.219-5.593,1.135-1.732.119.458-1.99-2.189-3.981-2.289-2.528-4.12.239-4.12,1.493-1.493,1.831-1.373,3.085-2.747-.677-2.866,2.189S1033.729,50.854,1035.421,51.749Zm-26.771-27.468c.458-1.712-7.146-.975-5.155.677.677.657,4.7,1.115,5.155-.6Zm76.154,56.15c-.458.916-2.946.975-2.289,1.831,1.135,1.493,6.867.677,6.967-1.154S1085.32,79.615,1084.8,80.431ZM1206.9,90.045c1.99-.458-1.493-4.24-5.036-4.817s-6.847,2.349-6.409,2.986c1.095,1.493,9.454,2.289,11.5,1.831Zm-9.156-7.564c0-1.712-6.23.637-3.662,1.493,1.433.458,3.722.239,3.722-1.493ZM1182.991,75.4a10.175,10.175,0,0,1,3.085,2.508c.915.936,4.339-.458,5.712-.916s1.493,1.99,3.662.7,4.359-.7,6.867-.7-.458-3.085-.338-4.459,2.966-.458,1.99.7,1.374,3.762,5.036,3.543.916-2.508,2.747-3.324,1.612-1.712-1.015-3.3-6.071-.577-8.36-1.612-5.374-1.135-5.494,1.373-4.916-2.747-7.444-3.543-10.191,7.146-6.39,9.037Zm34.673-.119c2.727.239,4.12,2.866,9.375,3.2s9.156-.677,9.275-1.831-4.817-2.846-6.31-1.99-2.627-1.493-4.458-.916-4.339.458-5.255-1.154-3.941,2.588-2.568,2.687Zm127.705,32.046c2.289,1.154,3.663-1.373,5.494-.119s6.29-.557,8.121-.916.916-2.627-4.24-3.3-11.783,3.105-9.315,4.339Zm41.66,48.646c-.816.557-5.971.279-4.817,1.473s5.275.458,7.205,1.612,4.7.219,4.7-.7-6.23-2.966-7.026-2.388ZM1201.7,225.314c.916,1.99-1.274,13.037-.338,14.868s-1.493,9.952-.7,10.868c1.373,1.612.458-2.17,2.508-2.508s1.99,2.289,3.324,2.846.458-3.662-.677-3.424-1.99-2.747-2.647-4.578,1.155-3.981,1.155-6.29,2.866-2.17,4.578-.458,1.99.577,1.254-.7-2.866-10.41-4.12-13.734,1.831-6.509-.458-8.24-1.373-5.255-2.508-4.578,0,3.782-1.831,3.981-.12,1.99-.816,4.22a12.878,12.878,0,0,0,1.274,7.723Zm-6.648,39.808c-1.373.239.119,1.612-1.473,2.289s-1.493,1.831-.7,2.289.219,1.99,0,2.986,1.035.219,1.99-.8,1.871.478,1.99-.458-2.389-1.732-2.289-2.866,1.831.338,3.2-.338a6.151,6.151,0,0,1,5.832,1.373c1.732,1.473,2.189.916,2.528-.916s2.966-2.647,5.613-2.647,2.846-1.254,1.99-1.831,4.359-3.981,4.24-4.8-2.747,1.99-3.543,1.035-2.189.557-3.981.916-7.086-4.12-8.459-6.19-3.662-.338-2.528,1.154-.219,1.99-.219,3.981-1.373,1.99-1.154,3.424S1196.426,264.9,1195.052,265.122Zm-20.362,34.335c.12-1.035-1.99-.458-4.7.577s-4.24-1.154-5.713.338-3.981,4.12-5.971,4.459-.836,2.707,0,2.289c1.373-.677,3.543,0,4.22-1.015s6.31-2.289,9.733-2.408,1.373,1.592,1.612,3.424,3.085,1.493,4.578-.219,2.627-1.612,1.373-2.627.219-1.99,1.135-.577a3.125,3.125,0,0,0,4.916-.338c1.155-1.831,1.493.338,2.866.219s2.17-3.543,2.289-2.289,2.289.916,3.662-.577.119-4.12,1.035-5.494a6.828,6.828,0,0,0,.916-5.971c-.916-1.712,1.99-2.846,3.543-4.22s-1.712-8.24-1.831-10.31-3.782.8-4.916,1.373-1.99,4.12-.7,5.155-1.99,2.986-1.99,5.155-1.99,2.17-2.389,3.762-1.612,1.274-3.543,2.747-2.986-.219-2.528-1.254-2.966.577-2.866,3.085-3.2,2.747-2.389,3.981S1174.571,300.552,1174.69,299.457Zm-8.479,11.564a2.389,2.389,0,0,1,3.324-1.254c1.155.557,2.627-1.732,2.627-3.443s-3.424-1.712-3.881-.458-1.831.7-3.662,1.035-1.99,4.717-.577,5.155,1.831.438,2.17-1.035Zm-11.943-1.831c-1.732,1.254-2.289,1.493-1.612,2.747s1.732.119,2.17-1.154,1.612,1.831.577,3.981.139,4.956,1.493,4.677,2.628-4.339,4.359-6.509-.816-1.373-.816-2.528-2.508-.916-2.627-1.99-1.891-.478-3.6.776Zm-36.8,47.491c1.154-.8,5.832-10.649,4.817-11.943s-5.613.8-6.867,5.374S1117.088,356.94,1117.466,356.682ZM1077.3,370.615c.119-1.373,2.369-3.523,1.99-4.558s-3.324-.358-4.817-.358-5.255,2.17-3.762,5.275,6.469.916,6.588-.458Zm36.624,10.072c-.338,1.035.119,5.275,1.035,5.275s1.592,1.135,1.015,2.966,1.732,1.99,3.981,1.274,1.373,1.473,3.543,1.135,5.155,2.408,4.7,3.443.119,4.339,1.135,3.424,2.647.219,1.612,1.712,1.592,2.986,1.991,4.817,1.493.338,1.274-1.035.219-1.254,1.712-2.289-.119-2.747-1.035-4.7-4.339-1.254-4.339-3.085-2.508-2.408-2.627-3.424-3.443-1.99-5.374-.916-.577-1.99-1.99-3.543,1.015-3.682,2.627-5.514-.458-4.916-.239-6.29.119-1.831-.677-1.373-4.12-1.373-5.613-.458-.1,8.479-.8,9.036-1.672-1.314-1.931-.557Zm2.17,11.684c.358,1.592,1.155,4.916,3.662,4.12s-3.9-5.374-3.662-4.22Zm6.19,5.832c-1.732.338-1.135,5.533.219,5.275.577-.119,1.99,0,1.99-1.154s1.373,1.99.338,3.085-1.035,3.981.577,4.24,4.558-5.155,4.12-6.17-1.831.677-1.493-.7-4.041-5.016-5.752-4.7Zm-13.276,7.444c-1.612,1.99-5.434,5.474-4.916,6.409.677,1.254,4.916-5.036,6.966-6.529a2.727,2.727,0,0,0,1.035-4.12c-.677-1.473-1.413,2.07-3.085,4.14Zm23.228.458c-.916-1.154-3.2.975-2.866,1.831s3.782-.8,2.866-1.891Zm3.782,1.99c1.015,1.732-1.991.358-2.189,1.99s-2.389.338-2.289,1.712-2.289,0-3.423-.8-2.747,2.17-4.458,2.627-2.627,4.1-1.493,3.981,1.99-1.99,3.423-1.831.935-1.373,2.866-1.015.577,6.17,3.2,6.628,2.747,1.99,3.981,1.99-.219-3.662,0-4.916,2.747-.119,4.12-1.732-.916-5.832-.916-8.579-3.861-1.931-2.826-.119Zm-110.548,31.25c-.239,1.154,1.035,4.459,2.408,3.085s-2.19-4.359-2.409-3.244Zm5.613,9.833c-.239.577,1.015,2.866,1.811,2.189s-1.095-4.14-1.831-2.349Zm28.483,12.6a23.314,23.314,0,0,1,.577-3.981c0-.8.577-1.135,1.592-.916s.916-2.17.12-2.389-1.254-3.085-3.2-3.085-1.592,1.592-.458,1.712,1.831,1.015,1.493,1.831-.8-.816-2.408-.7-.577-1.99-2.408-1.99-1.473-3.443-3.423-3.443-1.99-1.592-.8-2.747-1.99-2.17-1.99-3.543-1.991-.577-1.991-1.712-.916-.577-1.99-1.99-1.493-.119-2.408-1.154a3.065,3.065,0,0,0-2.986-1.254c-.8.358-2.627-1.473-3.3-3.3-.557-1.473-5.852-3.981-6.529-5.852s-2.528-2.747-5.613-2.627-4.3-3.025-5.036-1.493c-.916,1.99,3.324,6.31,5.275,7.444s2.966,5.275,5.255,5.494,2.528,7.444,4.24,7.783,5.374,5.971,5.971,8.917,4.339,4.478,5.613,6.648,6.29,5.155,6.967,5.971,1.373,2.966,1.99,1.99,2.986,0,4.12.119S1059.684,463.328,1059.564,461.776Zm11.107-19.466c1.712,1.612,1.254,4.12,1.99,5.394s3.324,1.473,3.324,3.981,2.17,6.17,3.662,5.155,2.627.458,3.085,1.473,3.981-.8,5.155-.557,4.7.916,4.916,2.289,3.443-.119,5.613-.916.916-7.325,2.966-8.579a5.971,5.971,0,0,0,2.289-5.971c-.219-2.269,5.036-2.389,5.832-3.3s-1.135-2.408-2.627-3.085-.219-2.189-1.254-3.105-2.747-3.3-1.254-3.424-1.035-2.17.219-2.866,3.981-1.712,2.986-2.627,3.085-.119,3.543-1.493-1.612-2.508-2.627-2.289-3.443.119-3.443-.916-2.17-2.966-3.543-2.966-2.966,2.747-3.085,3.881-2.289,1.035-1.99,2.627-2.747.916-2.747,1.99-1.831-.458-2.747-.458-2.966,3.2-3.423,5.374-2.528,1.493-5.613,1.732-1.831,3.423-2.508,4.916-4.7-1.612-6.19-1.493-3.961,3.861-2.528,5.2Zm-2.17,13.734c0-1.035-2.966-.537-1.99.916s1.99.08,1.99-.955Zm23.567,22.094c.8-1.154,2.289,1.831,4.578.119s-3.782-1.035-3.981-2.408-4.578-.119-6.747-1.035,2.408-1.712,3.981-2.627-.916-1.254-4.578-.119-7.962-2.508-7.962-.916-6.628-.677-8.24-1.831-7.783-2.627-9.036-.458-2.349.219-1.831,2.289c.338,1.373,1.831.577,2.866.577s.577,1.99,1.99,2.17,6.409,1.612,6.867.577,5.036,0,7.325,1.831,7.564,1.99,9.614,1.592,4.359,1.334,5.155.2Zm12.241-1.254c-.458,1.015-2.408,1.254-3.543.458s-2.568,1.075-1.831,1.99a4.936,4.936,0,0,0,5.613.916c2.846-1.373,4.8-.119,5.494-1.592s-5.334-2.846-5.733-1.811Zm23.009,1.373c1.99-.119,4.339-.7,1.254-1.154s-5.155,1.831-8.24.7-7.723,0-7.205,1.015,3.2,1.035,6.29,1.154,5.832-1.652,7.9-1.752Zm-13.933,5.971c.8.677,3.662,2.17,3.662.219s-7.962-3.085-7.086-1.99,2.707,1.015,3.5,1.712Zm14.868,1.015c1.712.916,4.359-1.99,5.394-3.424s8.579-3.443,8.917-4.359-3.423.239-5.712.119-2.528,2.747-5.494,2.986-4.757,3.662-3.025,4.618Zm-15.784-37.818c-1.035.577-1.035,4.12-3.085,7.444s.677,3.762,2.389,3.881,1.493,2.627,1.154,4.12-1.035,5.036.458,4.459c1.831-.677,2.986-2.966,1.99-3.762s-.916-5.852-.458-7.106,3.543-.338,2.508,1.612,1.99,1.712,1.99,3.981,1.712,1.035,3.543.458,1.493-1.592.239-2.966.916-3.324-.8-4.478-2.866-2.846-1.274-3.185,6.409-3.105,5.832-4.24-7.325.219-7.962,2.289-5.394-.239-4.817-3.782,10.072-4.12,12.818-2.866,5.712-1.99,6.747-3.981-2.17.338-4.12,1.612-7.086-.119-9.713-1.035-2.528,1.592-4.7,1.99-1.632,4.976-2.667,5.553Zm25.139,10.37c.458,1.831,3.782,2.866,4.7,1.274S1137.091,455.605,1137.609,457.795Zm7.962-.219c.458,1.373,2.866.8,5.255.8s3.662,1.712,4.936,1.712.338-2.966-2.647-3.981-8.1-.119-7.6,1.393Zm.577-17.914c0-.8-.816-3.981-2.647-1.473s.6,8.718,1.99,8.459-1.035-3.324,1.473-3.085,1.393-1.254,1.393-2.866-2.269-.358-2.269-1.174Zm74.939,31.847c1.99.119,2.408-1.015.816-2.508s-7.444-1.99-7.683-4.24-10.629-7.325-15.207-8.36-14.431-5.593-16.142-5.493-1.99,3.105-3.423,3.105-3.563,3.085-6.31,3.981-2.846-7.962-4.12-9.614-8.121-3.085-8.8-1.154-3.085.936-3.324,2.528.577,1.035,1.99,1.035,1.473,1.135,2.17,2.627,4.8.458,6.17.338,1.612,1.831-.339,1.154-1.99.916-3.324.557-3.2-.219-2.289.577,2.408,1.612,2.408,3.443,2.628,1.493,2.628,0,1.373.458,3.981,1.135.816,1.712,3.443,1.831a27.624,27.624,0,0,1,10.868,3.782c2.289,1.712.7,2.866,2.17,4.459s1.99,3.443,0,3.443-4.24,1.99-3.663,3.085,7.325-.458,8.917-.458,3.2,4.339,8.24,4.578,3.782-2.627,4.7-2.627,1.254-1.612,2.289-2.866,5.494-.239,8.121,1.831,5.713,8.121,8.459,7.544,5.613,1.612,8.121,1.493.239-1.99-.557-2.408-2.866-1.712-2.747-2.627-2.289-.8-3.981-1.831-1.015-4.339-2.747-5.155-2.946-3.344-.9-3.244Zm16.839-7.544c0,1.035-1.831,1.592-4.7,2.747s-7.962-1.314-8.24.338c-.12,1.035,3.2,2.866,6.29,2.866s7.962-3.085,7.962-3.981,1.99-2.528,1.154-3.443-2.528.378-2.528,1.413Zm2.727-4.12c2.289,2.17,1.075,3.981,2.408,3.662,2.17-.577.577-2.747-1.254-3.981s-3.5-1.911-1.214.259Zm9.156,6.867c-.219,1.035,3.443,6.469,4.817,5.613,2.448-1.672-4.618-6.708-4.876-5.673ZM964.243,406.8c-1.035.119-.8,2.17-1.373,3.662a10.789,10.789,0,0,0-.239,5.155c.239,2.17,0,4.459,1.99,5.712s5.832-2.289,5.971-5.494S965.1,406.7,964.243,406.8ZM842.589,491.254c-.5-1.871-.916.7-1.373,1.154a3.981,3.981,0,0,0-.557,2.727c.1.916-1.373,1.831-2.289,1.732s-2.408.458-1.99,1.712-.677,1.035-.119,1.99-1.254,2.289-2.866,2.408-3.662,2.986-5.374,2.747-3.424,1.154-4.916.916-.458,3.085-1.612,5.155-.557,4.458.458,6.986,1.831,4.578-.916,7.962a8.818,8.818,0,0,0-1.473,9.275c1.015,2.289,1.015,5.712,2.508,7.325s5.613,2.966,6.867,1.712,2.588.179,3.981-1.493,3.662-10.41,5.613-16.242,4.458-13.5,4.24-15.107,1.373-2.627.677-4.339.239-3.782,1.035-2.408,1.99,1.373,2.289-.458-1.373-4.7-1.493-7.325S842.947,492.508,842.589,491.254ZM436.921,224.4c1.612-.916-.119-1.99-1.831-1.274s-6.29,6.986-6.29,8.7-.119,3.782-1.712,3.662-3.443,1.373-2.189,2.289-3.324,3.523-1.135,4.7c1.493.8,3.981-.338,5.971-.119a6.966,6.966,0,0,0,5.494-.916c1.712-1.254,1.712,1.154,3.543.916s-1.035,1.493-.916,2.747,1.99-.677,3.324-1.373,3.085,0,2.408,1.154,3.762,2.289,4.8.458-1.035-4.7-1.712-3.443-1.712-.916-.239-1.99-.219-1.612-1.592-.916-1.035-3.085.219-3.782-3.085-1.99-3.085-.8-3.085.458-3.424-.7-2.528-1.473-1.732-2.289-2.627-1.254-2.966.119-1.373-.916.338-2.747S435.329,225.314,436.921,224.4ZM859.388,395.674c1.274,1.314,3.8-.219,3.981-.756s-5.474-.816-3.981.756ZM47.794,364.942c-2.13.259-.955,5.633.2,4.737.816-.637,2.329-.756,2.787-1.572S49.785,364.7,47.794,364.942Zm-2.826-3.284c-1.274.2-.458,2.508.378,1.99,1.314-1.095.8-2.17-.458-1.99Zm-13.4-4.359c1.135,1.214,1.99.9,2.289-.179s-3.583-1.095-2.369.179Zm5.971,2.607c.816,1.254,1.692,1.513,2.389.378s-3.324-1.851-2.369-.378Zm468.7,319.363c.338,1.513,1.851.836,3.364,2.169s2.846,3.861,4.359,1.513S506.068,678.433,506.248,679.269ZM920.016,652.12c-.5-1.154-4.7,2.866-1.334,4.359,1.493.677,2.17-.836,3.185,0a2.09,2.09,0,0,0,3.344-1.493c.358-2.01-4.7-1.692-5.2-2.866Zm337.058-180.67c0,.438,2.667,3.105,3.264,2.667s-3.105-3.443-3.264-2.667Zm12.878,6.867c.955-.6-5.314-3.981-5.414-2.906s4.478,3.5,5.374,2.906Zm-.677,3.7a3.264,3.264,0,0,0,3.981,2.15c1-.617-4.339-3.941-3.981-2.15Zm7.026,3.762c.179.438,2.408,2.508,3.523,1.732s-3.822-2.448-3.523-1.732Zm-3.005-7.623c-.856,1.99,2.588,5.135,3.085,5.235s-2.488-6.688-3.085-5.235Zm-28.662,79.159c.7-.518-.339-3.264-.935-2.826s-.617-4.279-.179-6.429.179-1.891-.935-.776-2.329-2.15-2.588-3.006-1.533-3.264-3.005-2.926-.517-1.99-1.99-1.791-1.632-1.99-1.373-3.981-.935-.418-1.533-1.294-1.294-.159-2.229.179-1.214-1.791-.955-2.667-.159-1.891-1.453-2.826a2.668,2.668,0,0,1-1.294-2.826c0-1.115-7.285-4.9-8.917-5.235s-.259-1.99-.955-2.667a8.34,8.34,0,0,1-.935-4.717c0-1.891-2.408-2.488-2.309-3.981s-.7-3.006-.518-4.717-2.488-2.15-2.588-3.085-1.533,0-3.006,0-1.373-1.891-1.194-3.861a8.74,8.74,0,0,0-1.812-6.17c-1.194-.955-1.274-4.22-1.871-4.717s-2.588,1.712-2.488,2.826a3.862,3.862,0,0,1-.955,3.085c-.776.677.518,3.344-.517,4.3s0,4.717-.338,6.867a13.934,13.934,0,0,1-1.194,5.971c-1.035,1.453-1.214,3.782-3.264,4.558s-4.817-.856-4.717-1.99-2.249-1.811-3.443-1.632-1.991-1.553-3.782-3.006-3.344.338-3.981-1.373-1.194-1.99-2.568-2.926-.955-.935.339-1.99,1.035-2.15.338-3.264.776-.856,2.488-1.791,0-1.99,1.294-2.588.518-1.612-.856-1.891-.955,1.373-1.453,1.553-1.035-2.15-1.473-1.99-1.99,2.309-2.906,1.194-5.672-1.99-7.563-2.309-2.488-2.667-3.6-2.229.179,1.194,1.453,2.568-4.279,2.309-5.971,1.791.259,1.214-1.115,1.135-1.632,2.309-2.747,3.5-.338,1.99-1.552,2.846-1.274,1.612.179,3.244-.7,1.732-1.99.438-2.588-1.294-2.488.179-1.553.756-1.294-.856-1.811-.876-2.15-1.811a4.539,4.539,0,0,0-3.264-2.408c-1.115,0-1.115,1.294-2.229,1.294s-1.373.6-1.194,1.791-1.712,0-3.005,0,0,1.632-.7,1.712-.677,1.294-1.792,1.294-.955,2.488-.776,3.762-1.712-.6-2.827-.259.259,1.473.6,2.926-.6,1.373-1.214,1.99-1.533-1.632-1.533-2.906-1.453,0-3.006,1.533.518,4.12-.179,4.558a45.057,45.057,0,0,0-5.573,5.494c-1.811,2.13-5.653.856-6.867,1.891s-2.488.239-3.682,1.194-3.443,2.747-3.7,1.632-3.344-.259-4.638,1.115a8.557,8.557,0,0,1-4.8,2.667c-1.453,0-1.453,2.309-1.99,2.826s-.438-1.811-.438-2.408-1.373,1.035-1.99,2.826,1.453,2.488.159,4.379-2.488,3.782-.677,6.19,2.826,3.981,2.229,5.155-1.891-2.408-2.309-1.99,1.632,1.99,1.115,2.747-2.369-2.906-2.747-1.99,3.861,6.608,3.981,8.758,3.424,4.2,3.264,7.285,2.926,8.081,3.423,8.837-1.194,2.846-.856,5.155-.776,3.185-2.229,3.185-.6,2.388,1.035,2.568,1.035,1.294,2.826,2.488,6.091.776,7.564.776,1.871-2.229,3.861-2.329,1.791-.677,2.747-1.891,5.394-.856,9.952-.6,6.509-1.115,7.205-3.006,3.861-1.712,5.155-2.906,2.388-1.294,5.752-1.115,6.429-1.632,8.579-2.488,6.091-.518,8.141-1.035,2.408,2.568,4.737,2.309,3.344.7,4.538.617,1.035.856,2.229,1.115,1.035,1.274.259,2.389,1.811,1.035,3.443,3.264,0,2.587.935,4.3,1.453,1.294,3.185-1.115,3.6-.856,3.861-2.926,1.99-4.458,3.264-3.424-.876,1.533-1.632,5.494-2.15,1.891-2.408,3.005,3.6,1.712,3.6-.358.677-3.006,2.15-1.115-.856,3.443-.518,4.3,1.99-.259,2.826-.179c1.533.159,3.6,3.523,3.264,5.334s-.856,3.5,1.99,4.976,1.792,1.712,3.981,1.712a17.915,17.915,0,0,1,7.8,2.747c1.214,1.035,4.3-.776,4.9-2.826s2.826,0,1.632.6.6,2.309.677,1.194.617-1.99,1.035-.776,1.99,1.294,2.587,2.329,1.274,1.791,1.274.936.358-1.632,1.732-2.15a13.656,13.656,0,0,0,3.682-2.647c1.453-1.214,7.464-1.473,7.962-1.473s.956-5.135,1.294-7.8,2.568-3.085,2.926-5.971a18.493,18.493,0,0,1,4.12-8.34,3.145,3.145,0,0,0,2.309-2.647c0-1.632,1.99-3.443,1.99-5.414s1.115-4.3.955-4.9a3.841,3.841,0,0,1,.418-3.861C1245.748,559.426,1244.037,557.794,1244.634,557.316Zm-90.982-66c.856.7,5.155-.159,4.976-1.194s-6.27.119-4.976,1.154Zm24.3,100.417c.935.856,4.12.617,4.638-.6s-5.494-.2-4.638.557Zm38.793,23.885c-2.329.259-5.792-2.11-6.608-1.891s3.006,6.19,1.792,7.723,3.523,5.752,5.155,5.971,1.035-1.632,2.15-1.533.677-1.115.856-1.99,1.294.955,2.229.438-.259-4.2,1.115-4.2.259-4.478-.179-5.971-4.2,1.134-6.509,1.393Zm107.881-.776c-1.194-.856-1.811.358-3.085.955s-2.15-2.846-3.782-1.552-.179,1.811-1.991,3.344-1.035,1.99-3.185,5.414-9.534,5.235-10.629,7.046-4.817,3.264-4.9,4.618-2.349,2.369-1.035,4.22c1.035,1.453,2.409.418,3.523,1.533s2.229.179,2.747,1.115,4.279.955,7.126-1.632,1.453-3.762,2.567-4.458,1.294-2.747,1.991-3.981a3.981,3.981,0,0,1,4.3-2.667c3.085,0,1.453-.6,1.274-1.99s2.588-1.712,2.588-3.6,3.782-3.6,3.005-5.056.677-2.508-.517-3.364Zm-24.86,29.558c.6.179,2.568-.338,1.453-1.712S1298.4,644,1299.768,644.4Zm38.793-43.431c-.776,1.294-2.329-.338-3.782-.338a2.209,2.209,0,0,1-2.309-2.329c0-1.274-.358-3.165-1.732-3.085s.438,1.473,0,2.15-.856-.776-1.553-.776-1.453-.936-1.453-2.647-1.453-1.553-1.453-3.523-3.105-3.523-4.817-3.523.338,3.085,1.214,4.12,2.747,1.99,2.647,2.747a4.518,4.518,0,0,0,2.329,3.085c1.015.338-.617,3.344-.617,5.752s-1.871,1.99-3.165,3.523,3.264,3.085,5.155,4.638-1.612,5.334-1.115,6.17c.259.438,1.533,1.035,3.523.518s2.906-4.8,4.279-5.971.518-3.085,1.194-3.981,1.632-.856,2.587-.856.418-2.309,1.632-2.309.6-1.632,1.274-3.423-3.026-1.234-3.782.06Zm-.259-84.195c1.453,1.373,4.379,1.294,4.458-1.194s-5.712-.06-4.4,1.194Zm5.314-4.538c.955.338,3.981-.7,3.981-2.15s-5.354,1.612-3.921,2.15ZM136.388,210.366c-3.085,1.632,4.339,9.474,5.971,8.479,1.055-.657-1.831-3.981-1.831-5.971S139.473,208.714,136.388,210.366Zm377.6,253.878c-1.712,0-4.976-.338-9.255-4.976a10.529,10.529,0,0,0-11.345-3.523c-2.826.776-5.752-1.373-7.623-1.791s-3.7,1.99-5.076,2.488.7-1.99.776-3.7-5.155-3.981-9.1-5.494-5.673-.756-5.673,1.732-1.533-.776-2.747,1.871-3.424.955-1.99.1a8.758,8.758,0,0,0,3.344-4.459c.517-1.632-5.653-2.926-7.8-1.99s-.776,3.981-2.488,3.006-.338-3.264,1.035-3.185,2.906-2.747,3.861-4.8-1.632-2.408-3.185-4.12-1.194-6.787-2.826-7.464-4.12-4.638-6.608-5.155-5.076-2.229-7.126-1.99-4.2,1.194-4.976,0-1.891-.936-2.926,0-2.906-3.085-3.981-3.085a1.99,1.99,0,0,1-1.99-2.329c.259-1.453-2.408-1.632-3.861-3.244s-5.593-1.552-7.046-1.473.935-1.632,1.035-3.165-4.12-1.811-5.752-2.15-1.194-1.99.518-2.15-.955-1.294-3.264-.935a27.028,27.028,0,0,0-7.464,2.647c-1.891,1.035-5.155-3.005-7.3-2.13s-5.135.856-5.056-.876a2.627,2.627,0,0,0-3.006-3.005c-2.15.179-1.632-2.13-3.264-2.13s0,1.99-1.115,2.488-4.976,1.453-5.235,3.006,1.99,4.12,1.294,5.653-3.364.259-4.12-1.373,2.229-4.12,1.712-5.056-1.294-3.105.418-3.443,2.588-1.453.955-2.388-2.568,1.791-4.379,1.99-2.15,1.373-3.344,1.99-3.443,0-3.523,1.115-.776,0-1.791-.259-3.7,1.99-3.623,3.364.517,2.488-1.373,3.682a17.436,17.436,0,0,0-3.782,4.479c-.856,1.035-1.871-.776-3.244-2.826s-3.881-1.891-5.414-2.568-3.523.239-5.494,1.99-4.459.776-6.19-.179a32.9,32.9,0,0,1-6.349-7.365c-.6-1.135.438-3.364.955-5s-.438-5.573.517-6.608.418-1.612.856-3.981-2.408-1.553-4.3-3.443-5.971-1.015-8.24-.159-4.8-.955-7.205.418-1.99-1.632-.438-2.826-.756-5.971,1.035-6.429,2.329-3.443,2.588-5.752-.518-3.105.677-4.379,2.488-1.373,2.15-3.185-1.99,0-3.344-.856-2.588-.259-6.091.259-5.155,1.99-5,4.459-1.194,1.373-1.115,3.523-2.747,2.229-2.568,3.523-2.229,0-2.926-.438-8.061,1.811-9.1,1.99-2.906-2.13-4.379-1.99-1.99-2.15-2.229-3.981-2.906-3.443-4.12-5.076-1.373-5.235-1.453-7.544a27.15,27.15,0,0,1,1.294-10.828c1.632-4.538-2.926-4.976-.776-6.608s0-3.005.935-3.682,2.846-1.373,2.846-2.408.936-1.035,2.309-.856,3.981-2.229,3.782-3.165.259-1.115,1.891-.776,1.373-1.891,2.388-1.553,1.891.936,1.99.179,1.115-.6,1.871.418,3.006,1.294,3.185.1,1.453,0,2.568,1.194,1.632.856,3.264.935,1.632-.338,1.712-1.373,1.811,2.249,3.443,2.408.338-1.035-.856-1.99.259-1.373-.776-2.15,1.294-1.791,3.344-1.712,1.99.6,2.747-.6,1.553,0,1.553,1.015,3.344-.6,5.155-.6a3.981,3.981,0,0,1,3.6,2.588c.159,1.015,1.373,1.533,2.647.418s2.408-2.408,3.6-1.194,2.408,2.826,3.861,4.279-.677,3.264,0,4.379,0,2.667,1.632,3.861.159,3.7,1.533,3.981,2.488,2.488,2.667,3.344,2.747,1.99,2.926.518,1.533-3.165,1.712-4.538a18.751,18.751,0,0,0-2.15-7.822c-1.115-1.533.259-1.99-1.115-3.682a13.1,13.1,0,0,1-2.15-7.564c0-2.568,3.085-6.767,4.558-8.061s3.085-.6,3.423-1.99,2.15-3.085,3.185-3.085,2.15.259,2.309-.876,1.891-2.488,4.12-2.826.936-1.533.338-2.568.518-1.99.955-1.373a1.99,1.99,0,0,0,2.647.159c.856-.6,2.846-2.229.955-2.309s-2.329-.856-1.214-1.294.179-2.488-1.373-2.647-1.015-.955,0-1.891-1.373-2.488-2.488-3.264.7-1.194,1.553-1.373.159-4.12.6-5.056,1.891-.955,1.294,0-1.473,2.488-.358,3.762a4.837,4.837,0,0,1,1.035,4.638c-.418,1.99.438,1.453,1.712-1.115s1.473-4.8.617-5.056-.776-2.846.159-1.632,1.294,1.373,2.747-.179,3.005-4.2,1.99-4.8.418-1.214,2.13-1.115a11.823,11.823,0,0,0,5.673-1.553c.836-1.672-5.971.776-5.971-.179s4.3-1.99,6.27-1.99,1.035-2.747,1.891-1.632a2.289,2.289,0,0,0,3.264.259c1.115-.677.259-2.667-1.035-3.006s.955-1.194.517-1.99a4.339,4.339,0,0,1,2.488-4.2c1.632-.338.856-1.373,2.229-1.373s1.632-1.632,2.846-2.826,2.906,1.871,4.8.159,5.414-3.981,6.947-3.861a6.787,6.787,0,0,0,4.558-3.264c.677-1.274,1.632,1.214.259,1.632s1.115,1.453,3.523,1.373-1.134.856-2.926.776-2.568.179-4.976,2.568-1.811,3.105-.438,4.3,3.185.677,5.076-.955,1.791-3.244,3.682-3.165a41.937,41.937,0,0,0,8.937-2.408c2.13-.677.756-1.035.756-1.99s3.782-.936,5.155-1.99-.259-1.712-1.453-1.533-.259-1.732-.1-2.667-2.568.418-2.647,1.533-1.99,1.553-1.99,2.249c0,1.99-.259.935-1.632,1.632s-6.708,0-6.867-1.214-3.981-1.791-4.22-3.424-1.99-2.15-.5-3.981-.259-2.647-1.732-1.274-2.309-.776-.338-1.553,5.673-1.553,3.782-4.976-13.734,1.035-16.739,2.747-6.787,7.205-8.419,7.205,2.846-2.906,3.523-3.981-.159-2.249.776-1.811,3.6-3.682,5.414-5.056,3.762,0,3.981-1.214,1.115-1.99,2.846-3.424,22.213-1.294,24.2-1.214,5.832-2.568,6.947-4.279,2.568-1.712,5.314-1.553,3.981-2.309,5.414-3.264.856-1.373-.338-1.632-2.329-1.015-1.115-1.115,1.791-.776,2.309-2.309-.438-.856-1.99-3.006-2.508.677-4.12.518,1.115-2.229-.259-3.085-3.981-.259-5.971,1.453-1.891,0-3.7,1.632-1.791-.856-.936-1.553,1.453,0,2.229-.936,1.553,0,3.523-1.294,3.682-.677,4.279-1.632-.935-2.229-2.826-1.791-3.165-2.588-4.379-1.732-.935-1.274-2.309-.418-2.15-.259-2.747-1.99-4.3-4.3-6.529-4.976-.776-1.99.438-1.035,2.568-.856,3.085-1.712-.856-1.632-1.552-1.712-.677-1.214-.518-1.99-2.388-1.99-2.488-2.826-1.533-1.473-1.453-2.229-1.453-1.99-1.453-2.926-2.588-3.085-2.667-4.279-1.453-1.99-1.99-3.523-1.214-.776-1.712,1.274-2.329,1.99-1.811,2.667c1.055,1.413.259,1.453-.518,2.329s.518,2.13-.776,2.13-.677,2.667-1.373,1.473-2.309-.876-2.309.338-2.747,2.309-3.861,2.229-1.115-2.408-1.99-1.712-.776-1.99-2.249-1.99-2.488,0-1.99-1.373-2.488-1.99-1.553-2.667-.259-2.15-.418-4.379,1.274-2.408,1.274-3.264-1.015-.856-1.99-.159-1.035-.955-2.15-.856-4.459-.1-4.638-1.632-1.274-.776-1.791-2.229-1.891-.358-1.891-1.373-.6-1.473-1.632-1.553-1.373-1.194-2.747-1.373a8.2,8.2,0,0,0-3.861,1.294c-.776.338-2.747-1.214-3.523-.6s-.936-.438-3.085-1.035-4.976-.776-5.155,0-1.891,1.035-1.632,2.826,1.99,1.453,2.488,2.667-.856.776-.935,1.99-1.194,1.015-1.194,1.791.756.6,1.194,2.15,1.294,1.453,1.533,3.523-.677,1.632-1.533,1.891,0,1.274-1.115,2.647-2.229,2.846-1.294,3.7,4.459,2.309,5.832,4.638a13.6,13.6,0,0,1,.856,8.479c-.418,2.588-3.344,3.185-5.474,5.414a6.728,6.728,0,0,1-5.414,1.99c-1.035,0-.438,2.15,1.035,3.782s.239,2.15,1.015,3.861,0,3.085,1.115,4.638.438,2.15-.856,3.264.518.518.6,1.99-.6.6-1.712-.179-2.15,1.473-2.15,2.408-2.647-1.294-3.244-1.194.159-1.473-1.393-2.667-2.727-1.453-2.727-2.667-2.667-1.99-2.667-3.424a19.308,19.308,0,0,0-.259-5.971,3.125,3.125,0,0,1,.438-3.085c.5-.936-.617-2.408-2.15-2.408a53.411,53.411,0,0,0-5.852-.338,5.314,5.314,0,0,1-3.981-.776,14.331,14.331,0,0,0-5.314-2.568,5.752,5.752,0,0,1-4.24-2.568c-.239-.776-2.906-1.373-3.5-2.15a6.389,6.389,0,0,0-4.22-1.035c-1.015.179-3.6-2.15-5.135-1.99a43.533,43.533,0,0,0-5.752,1.712c-.6,0,0-1.294.517-1.99s-1.294-3.185-1.732-4.9-1.015-3.6-2.826-3.344a7.066,7.066,0,0,1-4.279-1.035c-.517-.338-.617-5.235-.179-7.285s2.667-5.155,2.667-6.449,1.453-1.871,2.747-2.229.259-2.826,1.533-3.006,1.373-.677,1.632-1.712,1.811-.338.955-1.194-.179-1.115,1.791-1.115,4.9-.7,4.459-2.667-5.573-.518-5.573-2.15-6.529-1.712-6.091-2.647,6.529.677,8.758,1.533a8.6,8.6,0,0,0,4.638.7c1.791,0,.6-2.408.936-3.344s3.782,1.453,5.752.935,3.861-4.558,5.494-5.673.179-2.13-3.006-1.891a8.837,8.837,0,0,1-6.688-2.229c-1.732-1.274-1.553-2.309.259-2.13s6.091,3.682,7.723,3.762,4.459-3.185,5.752-4.2-1.294-1.453-2.229-2.229,1.632-1.294,3.006-1.294,1.99,1.214,2.488,1.811,2.906-.438,4.12-.438-.179-1.99-2.15-2.747,0-2.229.677-1.015,1.99.936,2.667,2.309c1,1.99,1.632.677,3.344,0a8.081,8.081,0,0,0,3.523-2.647c.936-1.035,1.115.159,2.229-1.473s-.518-3.165-1.891-4.2.1-1.99-1.274-2.747-1.632-1.99,0-1.632a3.5,3.5,0,0,0,3.861-1.373c.776-1.194-2.568-1.453-1.035-2.309s.259-1.732-1.274-1.732-2.846-.756-2.926-1.99-2.747-.438-4.379-1.194a15.426,15.426,0,0,0-6.091-.518c-.856,0-.955,3.6.338,3.682s2.309,1.453,1.194,1.99.179,1.791-.677,1.712-2.229-.518-2.488,1.712-.438,3.105-1.891,3.861-.338-2.488-1.712-2.388-1.553,2.747-.518,3.006,1.194,1.115,1.453,2.388-1.891.358-2.747,1.99-.935-.677-2.15-1.712-2.647-2.747-2.568-3.981a1.712,1.712,0,0,1,1.632-1.712c.935-.179,0-1.035,0-2.568s-1.214-1.035-2.588-2.667-2.826-1.632-3.6-.856-.259,2.229-1.453,2.747-.7,2.926-1.712,3.085-.438-4.2-1.294-4.638-.776-1.453.517-1.632,1.99-1.533.936-1.533a13.177,13.177,0,0,1-3.861-1.553c-.776-.338-1.99,1.453-2.906.776s0-2.408.159-3.344,1.373.418,2.229-.776-2.388-1.194-2.388-2.488-2.588-1.632-3.443-1.99.6-2.568.179-3.424-3.6-3.682-4.976-3.424-1.732-1.811-.955-1.732,1.373-.418,2.846-1.99,1.632-2.15.6-2.488-1.552-1.373.259-1.294,4.976,1.294,5.971.517a77.116,77.116,0,0,0,5.573-7.643c1.294-1.791-.955-1.99-3.981-1.712s-3.782-1.194-6.349-1.373-7.384.518-8.061,1.294,1.274,1.453,1.035,2.309-1.811-.6-2.508-.259.259,1.453,0,4.459a4.24,4.24,0,0,0,1.473,4.3c.856,1.115.677,2.568.677,4.459s-1.791,1.811-2.408,2.229,1.553,1.115,1.214,2.329-2.15-.7-3.185-.358-1.891,3.264-.756,4.22,1.533.756.677,1.891-1.811,2.747.259,4.379,5.832,1.453,7.8,2.727-.856.518,0,1.99-1.294,1.99-1.194,3.085.856.517,1.99-1.373,1.791.518,1.712,2.15-1.553.677-2.667,2.309a3.125,3.125,0,0,1-3.782,1.553c-1.632-.358-.677,2.309,0,3.762s-.159,1.99-1.99,1.473-3.006-1.732-1.99-3.185,1.632-3.165.517-3.006-3.682,0-4.459-1.274.518-.7,2.826-.438.358-1.553,1.99-1.553,3.006.955,4.459-.338-.935-3.782-2.15-3.344-3.085.936-3.085-.259,1.99-.338,3.185-.6-.617-1.811-2.329-1.373a3.7,3.7,0,0,1-4.279-.955c-1.373-1.453-3.861-2.309-4.478,1.035s-3.006,1.553-3.981,2.667,1.115,1.99,3.424,1.99,3.981,2.229,2.926,2.229-.6,1.632-1.791,1.035-2.408,0-1.552,1.035-.338,1.453-.259,2.488-1.811,0-3.6,0a32.444,32.444,0,0,0-7.564.955,7.146,7.146,0,0,1-6.091-1.453c-1.015-1.135-2.389-.955-4.12-.955s-1.194-1.632-3.424-1.712-1.712-1.99-1.99-3.085-4.737-.776-6.349.259-4.817.6-5.673,2.488.776,1.612,1.712,1.612c1.314,0,1.214-1.533,3.6-1.194s4.12-2.488,5.155-1.453-4.12,3.006-6.349,3.344-1.712,2.15.418,5.314-.936,1.373-.936,2.926-3.981-.518-2.408-1.035.856-2.15-.418-3.165-2.15,0-1.99-1.115-1.373,0-2.588-.856-1.791-1.732-3.424-.876-3.523.617-7.126,1.214-10.211.418-11.425-.776,3.105-3.344,4.379-3.006.518-1.373-1.453-2.926-6.349-2.488-6.27-1.533-2.488,0-5.653-.518-3.623-1.712-5.673-1.811a13.535,13.535,0,0,1-7.643-3.085c-2.408-1.891-8.081-1.373-8.758.338s-2.588,1.632-4.478,1.632.856-2.11.179-2.488,0-2.826-1.294-3.006-2.647,5.673-5.235,5.494-3.682-6.17-5.832-7.723-4.12-1.632-2.309.7-1.553.677-1.373,2.229-2.926,3.344-2.747,2.488-1.712-1.811-3.762.6-3.523,1.99-3.7,1.194-6.25,2.229-5.971,3.264-.955,1.811-2.588,1.712-.338-1.453.955-2.13,5.394-3.981,7.464-4.3,5.971-1.99,6.091-2.926-1.99-.159-3.344-.418-3.782,1.294-6.091,2.309-5,.7-4.3,1.99-2.15-.179-2.747.776-1.712-.1-.856-.617-1.99-1.453-1.99-.856-.518,1.373-2.568,1.373-4.12,1.473-2.747,2.488,2.229,1.553,1.553,2.229-2.846-1.791-5.852-1.533-9-3.344-9-4.2-6.449,0-8.937-.955-6.17-2.667-8.141-2.229-5.971.936-7.3.259a9.534,9.534,0,0,0-6.091-.856c-2.826.418-4.638-1.553-8.24-2.408a21.994,21.994,0,0,0-9.952.7c-1.194.418-.936-1.294-2.488-1.135s-.338-.677-1.194-1.99-5.155,0-6.708,0-1.99-.776-1.891-1.553-1.353-.517-1.99.518a2.13,2.13,0,0,1-3.006.518c-.677-.7,1.473-.955,1.553-1.712s-2.229-1.214-3.085-1.473-2.229.856-3.981,2.488a7.723,7.723,0,0,1-6.091,1.294c-1.632-.179-3.682.179-3.6,1.115s1.99.856.856,1.99-1.632-1.632-2.826-.358-4.817,1.214-5.673,1.035-3.682,2.926-4.538,3.782.677,1.632-1.632,4.12-8.5,1.99-9.793,1.99-.338,1.453-1.035,2.408.776,1.791,4.3,2.747,5.971,5.573,6.349,6.688,4.8,0,6.529.179-.179,2.647,1.274,3.344,3.7-.358,4.12.856-2.906,0-4.638,1.274-2.568,1.99-3.244.955-3.682.02-5.135.02,0-1.791,0-2.647-1.99-1.473-4.817.159S9,137.875,8.643,139.169s-1.533-.776-3.344.338S.581,141.457.024,142.572s3.861,1.99,5.573,2.229-1.99,1.453-.677,1.99.776,1.712,2.906,2.826,6.966,0,8.24,0,2.508,1.552,3.523.438,4.9-4.22,6.867-2.408-2.15,1.553-1.115,2.667,2.329,3.762.438,5.135a5.533,5.533,0,0,1-4.717.358c-1.035,0-.438,1.871-1.99,3.165s-2.826-1.373-4.9-1.373-1.632,2.667-1.533,3.981-3.145-.358-3.9,2.707-3.981.418-1.891,3.424,1.791,1.115,3.523,2.329-1.99,3.344-.179,3.682,3.6,3.424,4.8,4.558,2.747-.617,4.558-.7.935-2.568,1.99-1.632,2.488,3.7,1.553,4.379-.179,2.826-.358,3.861,3.981.7,4.22-.518,3.523-1.533,5.314.438,2.408,2.309,2.408.776,1.533-3.264,1.632-1.99,1.533,1.632,4.2.438,1.453,0,0,1.811c-1.891,2.369,0,5.832-1.373,6.17s-2.488,3.861-4.717,4.12-5.971,4.459-6.509,5.155-5.334-1.373-5.971.6-3.6,3.443-2.846,4.2,4.478-1.453,4.638-2.488.7-.856,1.373,0,2.408-.338,3.185-1.035,1.99-.418,2.826-.338,1.115-.955,3.424-1.373,1.811-1.115,2.329-2.329,5.971-3.762,7.046-3.981.418-1.99,1.533-1.99a11.106,11.106,0,0,0,4.339-2.767c1.453-1.214,1.791-.7,2.906-1.115s.259-2.667,1.373-2.846a2.17,2.17,0,0,0,1.99-1.99c0-.935-2.826-.935-3.085-1.553s2.229-2.826,3.185-2.727a2.727,2.727,0,0,0,2.568-2.329c.1-1.373,1.453-1.632,2.588-2.826s.856-2.229,1.99-2.329,2.15-1.632,3.344-2.309,0,.856,2.309.936,1.811,2.229,0,1.473a2.946,2.946,0,0,0-3.981.756c-1.553,1.473-.338,1.99-1.553,3.523s-1.274,2.667.259,2.846.1,1.274-1.373,1.712-.418,1.274,1.553,1.274,4.9-2.826,7.643-4.2,4.8,0,5.573-.259-.856-1.533,0-1.99-1.115-.677-1.712-2.309.935-.617,1.294-1.99,1.274-.776,2.15-.179,1.99-.6,2.826,1.035,1.632-.438,3.006.677-.259.955-1.732,1.294-.677,2.329.438,1.373,1.99-1.552,3.085-.6,1.473.518,2.329-.338.856,0,.856.756,1.791.955,4.379,1.393a43.093,43.093,0,0,0,8.4-.259c1.214,0,.776,1.791,3.443,2.309s3.344-2.667,4.717-1.553,0,1.553-.776,2.408.856.955,1.891,1.373a14.948,14.948,0,0,1,4.538,2.229,13.794,13.794,0,0,0,4.558,3.7c2.747,1.373,0-3.443,2.229-1.891s1.373,0,3.085,1.632,1.115-.7.358-3.264.756-.856,1.533.338a6.767,6.767,0,0,1,.259,5.056c-.518,1.553-3.085.259-2.826-.6s-2.568-.518-2.667.7a5.076,5.076,0,0,0,3.185,3.782c1.373.239.338,2.388,1.194,2.647,1.174.358,1.115,2.588,1.811,2.229s.418-3.006-.358-4.2-.418-2.926.617-2.568,0,2.13.5,2.747,1.135-.617,2.329-1.294-.518-2.667,0-3.7,1.791.876,2.309,2.667-1.294,1.712-1.294,2.667-1.632.518-2.13,1.035-.259,3.981.418,3.981,1.115-2.826,1.553-1.373,1.99-1.99,2.488-.518,2.488,2.926,3.264,2.588-.358-1.811-1.553-1.99a1.109,1.109,0,0,1,0-2.15c1.035-.159,3.105,2.826,3.006,3.861s-1.015.955-1.99,1.99-2.229-1.712-3.344-1.632,0,1.811.518,3.006-1.373,2.846,0,3.782,1.035-.6,1.294-1.294,1.373.179,2.15.776.856-1.373.856-2.15,1.274-.338,1.99.7.776-1.115,1.791-.955.358,1.811.358,2.747,1.791-.756,1.632.259.6,1.553,1.632,2.408-1.99.856-1.035,1.632-.179,1.99.677,2.926a2.508,2.508,0,0,0,3.344-.179c.955-.776,1.632.935.876,2.229a1.035,1.035,0,0,0,1.612,1.294c.776-.955,2.408,1.533,3.185,1.99s1.553,1.712.259,1.712-1.115,2.229-.179,2.329.856,1.274.856,1.99,3.006,1.99,4.12,1.553,2.15.677,2.667,1.632,2.568,1.632,3.344,1.015,1.294,1.115,1.473,2.329,1.871.517,2.906.418,1.632,1.373,2.329,1.115c1.692-.617,1.99,2.747,3.344,4.12s.259,2.408.677,3.981,0,3.981-1.194,3.981a1.035,1.035,0,0,1-.518-1.99c.936-.518.438-2.388-.518-2.388s-.936-1.99-.338-3.006-1.294-.358-2.408-1.553-3.981-.935-4.459-1.99-3.085-5.135-4.558-5.056a7.146,7.146,0,0,1-5.056-1.115c-1.712-1.294-2.826-1.373-3.981-.6s1.294.936,1.214,1.791.776,1.373,1.791,1.214,1.632,1.99,2.667,1.99,1.373,1.712,2.568,1.712,1.473,1.393,1.99,2.15,1.99,0,1.99.856,1.712,1.473,1.791,2.488a11.007,11.007,0,0,0,1.99,5.155c1.373,1.811.418,2.926,1.712,3.6s1.194,1.473,0,1.294-.338.936-.776,3.523-.338,7.962-.6,9.514-2.15,4.3-1.035,5.971a8.061,8.061,0,0,1,1.513,6.568,5.732,5.732,0,0,0,.418,5.056c.955,1.632.179,4.478,1.214,5.076a9.334,9.334,0,0,1,2.906,3.344c.955,1.553,1.811.6,1.99,2.15s.159,1.791,1.533,2.408.518,2.13.518,2.986,1.811,2.408,3.981,4.379.338,3.6,1.99,3.6a9.554,9.554,0,0,1,4.8,1.99c1.632,1.015,2.15.418,3.264.677a7.623,7.623,0,0,1,3.6,4.3,14.212,14.212,0,0,0,2.926,5.653,19.406,19.406,0,0,1,3.264,7.564c.159,1.373,2.667,2.488,4.8,3.861a5.135,5.135,0,0,1,1.99,5.155c-.259.756-2.906-.517-3.085.239s3.424,3.782,4.8,3.6,1.99.7,4.22,2.588,1.99,4.12,1.115,4.8,1.712,2.15,4.459,3.981a9.674,9.674,0,0,1,4.12,4.976c.259.935,1.453,0,1.99-1.214s-.856-1.612-.856-3.085-2.229-1.194-3.264-1.373,0-2.388-.955-3.424a15.108,15.108,0,0,1-2.488-5.494c-.517-1.891-3.165-3.782-4.279-5.832a13.655,13.655,0,0,0-3.105-4.22c-.756-.518,1.135-1.274.438-1.99s-1.712-.7-3.006-1.294a3.3,3.3,0,0,1-2.15-3.005,25.019,25.019,0,0,0-1.274-5.752c-.438-1.115.935-.936,1.373-.418s.756,1.015,1.373.677a1.553,1.553,0,0,1,1.99.856c.438.955,1.99,0,2.568.518s-1.533.955.7,4.9.677,1.712.677,4.379,1.373,1.453,1.811,1.035,1.632.856,2.747,2.229,3.264,1.453,3.264,2.229a2.528,2.528,0,0,0,1.99,2.568c1.453.259,1.712,1.891,2.647,1.99s1.115,1.194.617,2.309,0,1.99,2.388,3.006,1.294,1.115,3.185,2.926a112.745,112.745,0,0,1,8.32,9.255,15.924,15.924,0,0,1,1.891,4.22c.438,1.194-.856,1.791-.179,2.826s-1.274.6-1.194,1.373,1.194,4.638,3.085,4.8,3.981,2.488,5.593,3.782,3.861,1.035,6.17,1.891,4.3,2.926,7.643,3.861a34.634,34.634,0,0,1,8.758,3.782c2.13,1.373,4.8.776,7.8-.438s5.314.338,7.046,1.035,6.767,5.832,8.4,6.867,4.3,0,5.414.935a20.779,20.779,0,0,0,7.623,2.667c1.373,0,1.373-1.373,2.408-.518s-.418,2.15.955,2.926,3.264,3.762,4.717,4.538,1.791,2.588,1.035,3.105a1.99,1.99,0,0,0,1.015,3.344c1.99.776,1.294-.438,2.229-.438s.876,1.453,1.732,1.453,2.826,1.035,2.747,2.408.677,1.99,2.229,1.99a8.679,8.679,0,0,1,5.971,2.329c1.294,1.533,1.99.517,2.846,1.99s2.568,0,2.986-.776-.936-1.214-1.115-2.15,1.732-.6,1.99-1.99,3.085-1.891,4.3-1.373,2.229,1.373,1.115,2.667,2.309,3.981,3.5,5.235.438,2.309.776,3.006.7,1.712,0,2.15,0,5.135.7,5.971,0,1.632-.856,3.364-1.632,2.488-3.185,2.568-1.453,2.488-1.99,2.488-.856,1.373-.776,2.15-1.194,1.274-2.667,1.373-1.274,1.712-1.274,2.826-1.214,1.115-1.732,2.329.179,1.453-1.015,1.99a1.712,1.712,0,0,0-.856,2.667c.677,1.015-.1,1.99-.259,2.568s1.015.856,2.229,1.99,1.373-.418,1.99.438-.358,2.389-1.732,2.389-2.826,1.99-3.5,3.443,1.194,4.3,1.453,5.314-1.035.1-1.194,1.035,2.826,2.309,4.2,3.344,2.568,3.981,3.861,5.334,1.373,2.568,2.747,5.971a62.258,62.258,0,0,0,5.971,11.425c1.99,2.388,2.747,4.279,2.309,4.976a3.284,3.284,0,0,0,1.453,3.5,29.715,29.715,0,0,0,6.111,4.3c3.6,1.811,10.211,5.235,11.146,6.867a13.793,13.793,0,0,0,4.638,3.523c.6.339-.259,2.906.259,4.2a31.073,31.073,0,0,1,.259,9.952,48.783,48.783,0,0,1-1.553,5.832c-.518,1.473,1.214,1.552.517,2.249s-.418,2.388-.418,5.135-1.632,7.385-1.732,8.857-1.194,2.388-1.015,3.981a3.662,3.662,0,0,1-1.732,3.344c-.936.776,1.553,3.264,1.473,4.638s-1.891,1.99-1.473,4.2a43.788,43.788,0,0,1,0,8.5c0,.955-1.115.856-.856,2.667s-1.115,2.229-1.373,4.817a37.043,37.043,0,0,1-3.005,8.22c-.776,1.99-.776,3.105-1.791,3.105s-1.294,1.115-.517,2.826-.517,3.185.517,4.9.677,2.309.159,3.981-1.194,1.712-1.194,3.264-1.194,2.826-.517,4.538S366.5,618,365.644,618s-1.294,1.373-1.632,4.2-.259,2.747,1.811,2.588.418-6.966,1.712-6.966.159-1.115,1.453-1.453.179,1.194,1.035,1.453,1.453.955.259,1.732.259,2.309-.358,3.244-1.453,1.99-.936,3.105-.6,1.015-.677,2.488.756,1.533.159,1.871.776,1.473,0,1.632-.338,1.294.159,2.329-1.115.418-1.99,1.115.856,1.632.358,2.568-1.891-.518-2.488-1.015.936-1.552,1.712-2.588-.776-3.344-1.99-2.826,1.294,1.99,1.294,3.085-2.15-.259-1.99.955-1.453.756-2.229,1.612,1.035,1.632.179,1.891-2.329,1.473-2.408,2.329.955,1.035.955.159,1.373-1.115,1.791,0,1.035,0,2.229.259,1.035,1.99.358,1.99-1.373,1.115-1.214,2.388,2.588,0,3.6.338.7,2.15.1,1.552-1.99-1.632-2.588-.6-1.533.518-2.309.179-3.523,1.453-2.588,2.13.876,1.811,1.473,1.732a2.786,2.786,0,0,0,1.99-1.214c.338-.677,1.533-1.373,1.632.179s-1.632.776-1.99,1.632a5.594,5.594,0,0,1-1.99,2.309.922.922,0,1,0,.856,1.632c.856-.418-.259,1.035.936,1.194s1.473-.677,1.214-1.533.6-2.747,1.632-1.811-.517,1.891-.517,2.747-.6,1.99-.6,2.926-1.115.418-1.035,1.453-2.408.338-1.294,1.035-.677,1.632,0,2.309,1.115-.936,1.99-.6.776.6,1.99.1,1.871.935.756,1.274-2.309,1.632-1.791,1.811,1.99-.856,2.309.259,1.214.776,1.294-.438,2.15-.159,2.488.856-2.15,1.632-3.424,1.373-1.99,1.214-1.115,2.329,1.871,0,2.826-.955,5.573-.677,5.971.338-2.13.179-2.389.776-2.15,1.115-2.408.438-1.99.259-2.15,1.373-1.453,1.115,0,1.533,1.115-1.612,3.523-1.453,3.7-2.229,4.379-.856-1.99,2.488-2.926,1.632-1.99.6-1.99,1.891-2.747-.338-4.12-.518-.756,1.294.438,2.568,1.99-.159,3.344.776,1.453,1.99,2.488,1.035,0-.856-.677-1.294,0-1.99,1.533-1.115a2.229,2.229,0,0,0,2.349-2.727c-.518-1.99,1.453-3.005,3.443-3.682s.935,1.274-.517,1.891-1.732,1.015-.6,2.229,2.568-.776,3.5.159-1.712.776-2.13,1.732,1.612,1.99.159,2.727-.776-2.826-1.632-3.165-1.632.438-.776,2.408-1.015.259-1.871-.7-1.99.438-1.035,1.453-1.99,0-1.99,1.553,1.274.259,2.826.6.856,2.588,1.99,3.443.179-2.747,1.373-3.006,0,2.747,2.747,3.6.179-.518,1.373-1.373,2.747,2.568,3.981,2.926.418-1.552-.517-2.588.935-.418,2.229,0,2.309.6,2.568-.338,1.553.677,2.408-.259,3.443-.438,4.817-1.294-.438-1.115-2.588-1.194-6.349-3.981-7.643-5.056-.338-1.99-1.871-1.811-.518-1.194.338-1.632-.517-2.15-1.632-2.15-3.6.259-3.185-1.453,3.523.518,4.12,0-2.15-2.846-1.99-3.6-.438-1.99-.438-2.926-.418-2.747.776-3.6,1.294-1.712,1.99-1.552,2.309-.677,2.388-2.747,1.035-2.826,2.747-4.279,4.976-3.085,4.558-3.782.677-2.926.677-3.782-2.906-.677-3.861-1.015-4.379-2.767-2.647-5.971a7.683,7.683,0,0,1,6.349-3.6c1.015,0,0-1.552.935-1.99s1.035-1.373,1.035-2.647,0-3.782,1.533-3.981,1.99-1.015,1.035-1.274-1.373-1.373.179-1.553,1.035,1.294,2.15,1.294,3.005-1.891,1.533-3.006-1.891.518-2.647.677-1.373-1.015-2.15-1.015-.259-2.15-.6-2.926-.876-2.667-.179-3.6,3.6,1.453,6.17,1.632,4.478-1.294,4.478-2.229-1.214-2.667.338-3.7.259-1.373-.179-2.747.7-2.229,1.373-1.533,5.752.259,9.952-.6,7.126-2.408,7.384-3.623a34.409,34.409,0,0,1,3.523-5.056c.6-1.035,0-2.329-1.632-2.568s-1.632-2.249-.677-3.344-.517-2.15-2.15-2.329-4.2-1.294-2.747-2.667,1.373.7,2.926.518a9.953,9.953,0,0,1,4.976,1.294c1.871.856,1.194-.259,2.986,0a8.44,8.44,0,0,0,5.852-.776c1.99-1.194,2.488-3.682,4.876-5.414s1.811-2.747,2.926-4.8.179-2.926,1.99-4.717-.358-3.006,1.99-4.12,1.99,1.035,0,3.523-2.309,3.165.259,1.274,3.523-4.538,4.976-7.544,2.588-3.981,3.861-4.12,1.294-3.344,1.135-5.573-.876-4.3,0-5.752,0-2.846,1.194-2.846,3.006-1.791,4.9-3.682A6.548,6.548,0,0,1,475.734,539c1.99-.179.876-.856,2.15-1.194a8.16,8.16,0,0,0,3.006-2.329c.856-.776,4.379.1,6.429.1s3.443.159,3.443-1.135a2.209,2.209,0,0,1,2.15-2.309c1.194,0,1.712-.338,1.712-1.99a3.981,3.981,0,0,1,1.553-3.5c1.015-.776,1.194-2.488,1.533-3.6s1.473-.438,1.473-1.99.6-3.424.6-4.717,1.373-1.115,1.99-1.99-.517-2.13.418-4.8,0-5.155,0-7.564,0-4.877.876-5.653.418-1.194-.259-1.552,0-1.274.677-1.115,1.294,1.473,2.408.776,2.15-3.6,3.085-5.971,2.488-2.309,3.7-2.826A15.765,15.765,0,0,0,518.071,478c1.632-4.2,0-8.32-.776-11.246S515.7,464.164,513.99,464.244Zm-162.9-204.436c2.747.338,4.638-1.712,5.494-.179,1.234,2.229-3.264,3.6-7.544,3.782s-5.155,1.194-5.852-.517S348.348,259.47,351.094,259.808Zm-5.971,5.971c.458,1.154-5.653,4.12-8.917,5.832s-7.723.856-7.723-1.712,2.389-1.99,2.906-.856,3.782-3.105,6.349-2.926,3.264,1.712,5,.517,2.01-1.672,2.349-.816Zm-18.71-15.923c0-1.035,3.981-.518,6.349.338s5.971-1.035,7.225,1.99,3.981,5.115,1.353,5.314c-2.229.179-5.135-2.906-4.976-1.194s-1.194.856-1.194,3.424-1.712,6.19-2.747,5.971.517-4.279-1.553-4.976-4.459,2.926-4.12.7,3.443-4.12,1.553-7.046-5.314-2.926-5.971-.677-3.085,1.194-3.981,2.906a14.172,14.172,0,0,0-1.035,8.24c.7,2.747-.159,4.12-2.747,5.673s-3.981-2.369-2.906-7.384c.677-3.443,2.568-6.688.856-6.688s2.229-4.12,5.832-5,8.1-.557,8.1-1.592Zm-23.348-8.24c2.926.179,4.817-5.494,7.046-5.494s7.962.518,8.24,3.424,3.782.179,4.12,2.926,3.424,4.8,1.712,5.971-1.035-1.553-3.6-1.553-5.155,2.408-7.205,1.373-1.035-2.408-2.926-2.408,1.373-3.6-1.373-1.99-6.867,5.314-8.758,3.6-3.6.518-4.976-.856,4.777-5.175,7.683-5Zm-107.2-103.343c-2.269,2.787-3.006,3.2-5.334,2.787s-3.742.756-2.588,1.572,1.234,1.513-1.154,1.99-3.981,2.389-4.916,2.189,4.1-3.822,2.787-4.777-4.5,1.632-4.558,2.787-2.189,1.234-3.483,1.174-3.006-1.314-1.712-1.433.418-1.572,2.189-2.269-.338-1.692.2-2.448,4.16.756,4.24-.617-3.623-2.528-4.857-1.712a7.524,7.524,0,0,1-7.5,1.234c-1.075-.478,8.6-1.493,10.231-3.006s9.017-3.2,9.554-1.831-3.981,2.249-1.771,3.483a5.971,5.971,0,0,0,6.549-.9C194.548,135.347,198.111,135.466,195.861,138.273Zm21.7,27.567c-2.667,2.309-2.448,1.692-4.777,2.11s-.478,2.727-3.284,2.926-9.554.478-10.509-1.075c-.318-.537,3.682-.139,3.981-1.314s1.373-2.986,3.065-2.986,1.572-2.269-1.214-3.623,3.981-2.249,5.593,0,4.359,3.762,5.971,2.189,10.509-5.971,10.509-3.981S220.224,163.511,217.557,165.84Zm50.636,46.934a2.807,2.807,0,0,1,4.8-1.553c1.373,1.732,3.443,8.758,4.638,10.987s1.194,5.852-.338,5.971c-1.871.219.159-4.976-3.264-6.867a11.067,11.067,0,0,1-5.832-8.539Z" transform="translate(0.024 -0.002)" fill="#b6a183"/>
    </g>
  </g>
</svg>
