<svg xmlns="http://www.w3.org/2000/svg" width="600.473" height="874.132" viewBox="0 0 600.473 874.132">
  <g id="Layer_2" data-name="Layer 2" transform="translate(600.473) rotate(90)">
    <g id="Layer_1" data-name="Layer 1">
      <path id="Tracé_4760" data-name="Tracé 4760" d="M787.039,600.412V562.407L871.652,597.5a10.083,10.083,0,0,0,.8-.98l-85.412-35.38v-20.8h87.033v-.52H787.039V483.88h65.738l2.492,1.041,18.8,45.4v-1.343L855.922,485.2l18.15,7.514v-1.319l-18.15-7.514h18.15v-1.21H854.894l-37.231-89.889,30.128-12.487,26.281,26.256v-.726L848.3,380.052l9.244-3.836h15.524l1,2.42v-3.17l-2.154-5.215,2.154-.9v-1.307l-2.626,1.089-7.429-17.956,10.055,4.162v-.557L863.739,350.5l-12.983-31.338h23.316v-.508H850.538l-9.147-22.094,32.669-13.54v-.557l-32.875,13.624-11.809-28.507H874.06v-1.21H828.891l-3.981-9.607,49.161-49.161V205.9L824.463,255.51l-5.542-13.394L848.457,170.8l25.676,25.688v-1.718l-25.18-25.18,20.8-50.214,4.38,1.8v-1.21l-3.908-1.621,3.848-9.45v-1.355l-4.392,10.611L796,87.626l37.666-15.609-.194-.472-38.151,15.8-8.288-3.436v-15.8h87.033V66.9H787.039V51.085l87.033-36.057V13.721L787.039,49.766V27.491l.254-.617L814.166,0H812.46L788.5,23.945,798.424,0h-1.307L787.039,24.333V0h-.557V25.579l-.254.6L747.509,64.9,774.382,0h-1.21l-26.74,64.455V0h-1.21V64.407L718.542,0h-1.319l26.91,64.9L679.206,0H677.5l65.786,65.8-73.7-30.528L654.982,0h-.557l14.52,34.992L601.634,7.163,604.538,0h-.557l-2.856,6.909L598.2,5.7V.52l.508-.52h-1.73l-3.63,3.63L584.417,0h-3.17l11.12,4.6-59.761,59.8L471.889,3.63,475.519,0h-.714l-3.3,3.291L468.259,0h-.726l3.63,3.63L420.586,54.219l-.472-1.137L442.088,0h-1.307L419.437,51.521,398.081,0h-1.307l22,53.106-2.045,4.973L407.906,66.9H380.827V0h-.52V66.9H331.436V0h-1.21V66.9H248.6L238.038,41.381,255.183,0h-.569L237.76,40.7,220.9,0h-1.319l17.569,42.349L226.967,66.96H184.884L157.175,0h-.569l27.708,66.9h-5.4L99.411,33.964V0H98.9V33.746l-.811-.327L64.673,0H62.919L95.164,32.2,17.424,0H16.081L96.12,33.153,98.9,35.936V66.9H0v1.21H98.9V170.3L0,129.334v1.343l98.9,40.97v86.4l-82.46-82.5L0,135.868v1.343l15.488,37.4L0,159.111v.738l16.008,16,32.935,79.519L0,235.1V236.4l49.609,20.57,3.92,9.474H0v1.21H54.025l21.15,51.049H42.252L0,276.454v.726l41.526,41.526H0v.508H42.034l27.7,27.684-20.122,8.325L0,334.654v.508L48.98,355.49.109,375.745H0V377.1l2.033-.847h95.83L41.817,399.472,0,382.146v.557l41.139,17.049L0,416.787v.557l41.817-17.315,23.3,9.68L0,474.793v.726L65.629,409.89l16.407,6.8L54.7,482.67H0v1.21H54.195L31.036,539.817H0v.52H30.818L12.547,584.417,1.21,595.79a8.471,8.471,0,0,0,.69,1.029l9.45-9.45L6.147,599.9l.5.157,5.638-13.636,46.1-46.088H98.9v60.075h.508V540.337h67.565l12.4,29.935-72.768,30.14h1.343l71.618-29.656,12.281,29.656H193.4l17.69-42.712,41.926-17.363h10.14l4.477,4.477-55.6,55.659h1.718L268.493,545.7,320.3,597.508l-7.09,2.928h3.158l4.84-2.009.327.315-1.694,1.694h.714l1.343-1.331,1.331,1.331h.726l-1.694-1.694,1.21-1.271,6.679-2.759v5.723h1.21v-6.231l31.919-13.225-8.058,19.456h.557L363.96,580.7l16.274-6.74v26.474h.52V573.72l11.458-4.743,13.019,31.459h.557l-13.031-31.653,11.446-4.743,36.372,36.372h.726l-36.59-36.565,16.262-6.727,35.44,14.677,11.846,28.616h1.307l-11.592-27.987,35.089,14.52L479.609,600.4h1.706l12.959-12.959L524.608,600l-.169.4h2.48l-1-.411,16.6-40.074,19.36,8.022L548.42,600.4h1.319l13.31-32,33.988,14.072V600.4h1.21V582.977L640.317,600.4h1.343l-43.414-17.98V540.337h5.094l29.475,29.56,12.656,30.564h1.319l-11.737-28.326,28.325,28.326H665.1l-31.254-31.254-11.918-28.87h72.913L669.95,600.412h.569L695.4,540.337h38.368l11.483,4.755v55.32h1.21V545.589L786.482,562.2v38.211ZM817.2,391.656,810.827,376.3H843.75l3.11,3.122Zm-6.594-15.911-23.062-55.659,55.659,55.659Zm36.759,3.412-2.892-2.9h9.9Zm25.494-3.412H858.79l12-4.973Zm-2.529-6.05-14.713,6.05H843.956l-56.022-56.034,74.5,30.866Zm-8.179-19.747-74.075-30.685H849.4Zm-12.922-31.241H788.067l52.21-21.634ZM840.084,296.6l-52.815,21.876,16.94-40.994,9.849-9.849h13.987Zm-34.629-22.034,2.868-6.933h4.065Zm22.167-8.143H815.316l8.675-8.7Zm-4.138-9.91L813.6,266.4H808.83l9.377-22.639ZM787.039,85.23l6.7,2.771-6.7,2.747Zm0,6.05,7.381-3.061,74.8,30.987-20.715,50.032-48.4-48.4,12.426-12.426-.363-.363-12.378,12.487-12.7-12.7Zm0,18.15,11.846,11.846-11.846,11.858Zm0,24.429,12.209-12.221L848,170.4l-29.414,71.025L787.039,165.27Zm0,34.569,30.9,74.692-9.68,23.3H787.039Zm0,99.1h20.727l-3.255,7.877-17.472,17.472Zm0,27.067,16.25-16.262-16.25,39.251Zm0,25.47,22.99,55.574h-22.99Zm0,56.082H810.27l6.461,15.705-29.693,12.281Zm0,29.209,30.153-12.487,37.146,89.7H853.03l-65.98-27.321Zm0,51.194,62.81,26.014h-62.81ZM50.274,257.228l22.191,9.2H54.074ZM42.76,319.215H75.43L84.4,340.849l-14.108,5.844Zm42.047,22.747L98.455,374.9,71.171,347.613ZM70.65,347.831,98.1,375.285l-46.862-19.36ZM3.267,375.745l47.3-19.589,47.3,19.589Zm62.241,33.54-22.989-9.535,55.659-22.989Zm.52.218,32.4-32.4L82.278,416.23ZM13.491,583.5l17.883-43.16H56.663ZM98.9,539.817H58.889l40.014-40Zm0-41.72-41.72,41.72H31.592L54.751,483.88H98.9Zm0-15.427H55.259l27.249-65.786,16.4,6.788Zm0-59.555-16.2-6.7,16.2-39.094Zm0-48.484L85.291,341.769,98.9,336.13Zm0-39.808-14.084,5.832L75.95,319.215H98.939Zm0-16.117H75.732l-21.15-51.073H75.393l23.51,9.74Zm0-42.652-20.352-8.47H98.9Zm0-9.68H75.635L49.609,255.643,16.94,176.8,98.891,258.74ZM237.384,42.966l9.91,23.933H227.475ZM226.967,68.109H247.8l13.661,32.972L220.324,84.057Zm99.339,418.033-22.034,22.046L245.624,483.88h78.443Zm-1.537-2.263h3.8l-1.875,1.9ZM221.619,156.933l-22.239-22.227,6.522-15.73ZM186.4,70.541l33.286,13.794-13.782,33.3Zm36.432,89.32,26.97,65.193-5.517,5.53-72.2-29.971,26.8-64.7Zm31.544,76.156,12.16,29.366-2.517,1.041H209.107l34.762-34.762Zm-9.583-5.288,5.227-5.227,3.69,8.93Zm10.248,5.566,40.861,16.94L267,265.2Zm6.05,31.338-90.833,37.618,37.63-37.618ZM217.8,326.6l-35.549,14.725-22.094-22.106h39.82Zm-14.653-7.381h32.476l-16.238,6.727Zm-102.715,56.53,81.649-33.879,33.807,33.879Zm115.976.508,2.166,2.166L185.5,411.487,100.428,376.3Zm-56.869-57.546-1.379-1.391,9.825-9.825,1.791-.738,28.858,11.955Zm-.726,0h-2.033l1.016-1.028Zm-4.719-5.457,12.656-5.239-8.954,8.942Zm-.932-.932-19.36-19.36.4-.956,34.049,14.12Zm.411,1.149,3.86,3.848-1.343,1.391H140.962Zm2.686,5.747h3.073l22.312,22.312L100.27,375.261Zm28.87,92.672-24.841,24.841-59.99-59.978ZM160.769,438.01l18.44,18.428-26.075-10.793Zm.363-.363,25.2-25.264,71.388,29.572-16.6,40.074L180.443,456.9Zm25.591-25.591,32.669-32.669L264.863,424.7l-6.945,16.77Zm32.282-34-1.863-1.754h3.63Zm-2.42-2.311-34.024-34.036,35.815-14.834,36.565,15.149-33.722,33.722Zm3.376-49.524,16.94-7.006h40.873l-21.864,21.876Zm59.543-7.006h9.341l9.861,23.812-5.578,13.479L257.119,341.6Zm.52-.508,6.05-6.05,2.517,6.05Zm5.977-7.7-4.283-10.345,24.974-10.357Zm-.4.387-7.26,7.26h-40.2l43.075-17.847Zm-48.786,7.26H201.848L171.4,306.123l92.853-38.465h3.206l13.564,32.754Zm30.673-52.4L297.5,253.816l30.249,12.56h-60.22Zm31.58-13.092,12.1-5.009,17.121,17.121Zm-1.573-.653-43.111-17.775-3.92-9.619,18.827-18.839,40.994,40.994ZM250.21,224.547l-26.365-63.729,45.1,45.1Zm-6.848,6.848-34.968,34.98h-63.56l26.789-64.685Zm-36.178,36.19-37.679,37.666-34.8-14.411,9.68-23.256Zm-72.949,23.05-4.525-1.863-21.2-21.138h35.259Zm-.472,1.125-.3.75-1.573-1.452Zm-.121,1.658L152.7,312.536,137.8,318.707H123.175Zm2.94,25.748-16.431,6.8,2.819-6.8Zm3.158,0H155.59L99.932,374.825l19.589-47.3Zm20.182,117.875-7.986,7.986-28.8-11.858L99.92,377.1Zm-8.385,8.385-16.468,16.468-11.652-28.059ZM135.166,463.54l7.925,19.13H116.036Zm.4-.387,17.17-17.182,27.418,11.4,25.409,25.337H143.648Zm45.834-5.3,59.531,24.659-.073.157H206.228Zm58.95,26.027-9.68,23.28-23.28-23.28Zm1.319,0h2.589l59.615,24.708-17.29,17.278L260.3,536.756l-28.664-28.664Zm63.415,25.2,11.011,4.562-26.619,11.011Zm-62.41-26.414-.436-.181,16.6-40.062,40.534,16.782,23.461,23.461Zm16.359-40.728,6.764-16.31L298.464,458.3Zm6.05-17.75-45.289-45.277,2.662-2.662h62.483Zm-42.107-48.4,33.214-33.226,36.469,15.113-7.514,18.15Zm70.8-17.641,13.479,5.578,5,12.1H286.461Zm.46-1.125,5.118-12.354,7.26,17.472Zm4.743-14.6-9.583-23.147h19.154Zm-9.789-23.715-2.7-6.534,23.123-23.123,13.794-5.711-14.629,35.367Zm21.38-30.552,18.549-18.561-5.433,13.128Zm-2.916,1.21-26.123,10.817-13.491-32.548h61.346Zm4.743-41.671,8.373-3.461,8.373,20.207Zm-.932-.92-41.345-41.345,24.441-24.454L320.3,243.108Zm-41.708-41.708-47.189-47.189-16.383-39.566,14.036-33.77,41.526,17.218,32.6,78.709ZM226.41,68.109l-6.522,15.73-33.77-13.963-.738-1.767Zm-41.587,0,.617,1.488-3.63-1.488Zm-4.32,0,5.215,2.154,19.892,48.048-6.619,16-66.21-66.2ZM99.436,34.521,177.6,66.9H131.621L99.411,34.738Zm0,1.924L129.878,66.9H99.411Zm0,31.665H131.1l67.335,67.408-26.873,64.9-72.151-29.9Zm0,103.719,71.739,29.7-26.886,64.891H107.3l-7.889-7.889Zm0,87.433,7.163,7.163H99.411Zm0,8.373h8.373L128.487,288.3,99.448,276.273Zm0,9.946,31.241,12.959,2.529,2.541-10.611,25.627H99.411Zm0,41.635h22.989l-2.928,7.078-20.061,8.313Zm0,16.7,19.36-8.034-19.36,46.85Zm0,41.308,22.989,55.659-22.989-9.547Zm0,46.669,23.328,9.68,11.93,28.773L114.318,482.67H99.411Zm0,59.99h13.673l-13.7,13.709Zm0,55.937V499.3l15.391-15.415h28.761l23.171,55.937ZM144.2,483.88h62.568l23.788,23.8-13.31,32.137H167.315Zm48.108,116.157L180.044,570.55l29.463-12.2Zm17.533-42.349-29.935,12.4-12.318-29.741h49.439Zm1.585-.653,6.909-16.686h33.335Zm41.454-17.218H218.5L231.431,508.6l28.362,28.374Zm1.343,0,5.917-2.42,2.42,2.42Zm6.437-2.674L285.6,526.822l-13,13h-9.28Zm7.26,7.26-4.114-4.114h8.24Zm53.916,53.9-.169-.157.569-.242Zm8.313-4.985-4.441,1.839,4.441-4.441Zm0-3.327-5.675,5.675-3.739,1.549L268.856,545.31l4.985-4.973h56.385Zm0-50.226h-55.8l14.205-14.205,28.217-11.688,13.455,5.578Zm0-20.884L317.364,513.6l12.789-5.3Zm0-11.144L316.7,513.319l-11.289-4.683,21.683-21.683,3.061,3.061Zm0-18.452-2.7-2.7,2.7-2.7Zm0-7.1-.448.436h-6.219L300.5,459.632l29.62,12.269Zm0-10.805-30.564-12.656-33.661-33.649L286.243,376.3h26.208l17.775,42.894Zm0-53.626L313.008,376.3h17.218Zm0-42.059H312.729l-4.84-11.8,22.312,9.244Zm0-3.872-22.989-9.51-7.635-18.428,10.248-24.72h20.352Zm0-53.166H310.08l14.895-35.972,5.251-2.166Zm0-38.719L325.18,282l4.973-11.991Zm0-16.068-8.3-20.1,8.361-3.461Zm0-24.95-8.821,3.63-25.857-62.5,34.75-34.75Zm0-94.378-34.92,34.992L263.29,102.412,330.2,130.12Zm0-15.016L262.963,101.7,249.109,68.109h81.068Zm1.21,1.065,9,3.727-9,9.014Zm0,13.467,9.522-9.522,37.63,15.584L344.1,233.186l-12.741,5.275Zm13.673,90.046,30.249-12.547L332.44,264.4Zm-13.673,5.663,12.1-5.009-12.1,29.2Zm0,30.249,3.352,8.095-3.279,1.392Zm13.963,3.7-4.949,2.057-7.006-7.006ZM333.8,267.67h26.232L346.911,273.1Zm5.372,8.639-3.34,1.379-3.34-8.046Zm-7.8,3.787,3.545-1.464,16.613,40.111H331.436Zm0,39.155h20.376l23.413,56.53h-35.6l-8.119-3.364Zm0,54.449,4.949,2.057h-4.949Zm0,48.4,17.266,41.684-10.89,10.89-6.425-2.662ZM339,475.12l10.127-10.127,7.163,17.29Zm16.94,7.574H331.532l7.139-7.175Zm-24.587-10.176,6.05,2.493-6.05,6.05Zm0,11.386h25.6l4.525,10.89-18.295,7.587-11.834-11.846Zm26.16,0h1.343l14.52,6.05-11.41,4.719Zm22.251,55.078-36.13-36.2,18.15-7.49Zm-48.4-47.685,11.325,11.325-11.325,4.695Zm0,16.577,11.713-4.84,36.372,36.36-48.012-19.952Zm0,12.1,47.83,19.819H331.436Zm0,20.34h48.568l-48.5,48.5Zm32.572,39.034-32.5,13.54v-3.315l48.4-48.4Zm16.3-6.752-15.548,6.5,15.621-37.715Zm0-33.879-18.077-43.644,11.882-4.913,6.2,2.565Zm0-46.548-5.517-2.287,5.517-2.287Zm0-5.13-6.2,2.565-13.83-5.735h20.025Zm0-4.38H357.244l-.327-.133-7.32-17.9,30.709-30.709Zm0-50.516-31.145,31.278L331.436,420.78V376.3h6.147l42.676,17.678Zm0-39.53L340.789,376.3H375.43l4.84,11.773Zm0-7.756-3.5-8.555h3.569Zm0-9.123h-3.775L353.046,319.2h27.188Zm0-57.038H352.9l-16.807-40.582,3.533-1.452,40.679,40.667Zm0-3.073-39.385-39.457L346.076,274l34.23,14.181Zm0-28.761-32.669-13.527,13.782-5.711H380.21Zm0-20.449H364.359l15.947-6.606Zm0-7.163-17.242,7.175H332.258l46.052-46.039,1.972-.823Zm0-42.567-2.662,2.662-31.81,13.213,33.94-81.939.6.254Zm0-66.379-.411-.169.411-.992Zm0-4.32-1.525,3.63L341.273,134.1,380.234,95.14Zm0-51.509-39.469,39.481-9.4-3.9V68.109h48.871ZM533.1,65.617l1.283,1.283h-2.565ZM564.222,96l-27.9-27.89h39.457Zm.181.907,31.871,31.883-54.449,22.542Zm-.4-.387-22.82,55.09L472.651,180l-15.8-38.138,73.808-73.748h4.985Zm-68.7,443.3-16.31-6.764,82.75-34.278,3.388,3.388-8.99,21.779L540.2,539.878Zm44.394.52-12.644,12.62L496.56,540.325Zm-95.213-.52-10.248-24.744,42.494,17.605-17.218,7.139Zm13.794.52-11.592,4.84-1.984-4.84ZM408.535,405.631l23.425,9.68-19.517,47.116L394.657,419.5ZM394.161,418.3l-9.317-22.481,22.481,9.3ZM511.818,205.344l6.05,2.517L501.013,248.54l-13.685-33.056Zm-24.671,9.68-9.934-23.994,33.879,14.06Zm19.989,51.424H494.189l6.473-15.633Zm.508,1.21,10.89,26.293-24.78,24.756H472.53l21.138-51.073Zm-14.411,51.581-10.2,10.2-12.753-5.275,2.045-4.925Zm-11.12,11.132-24.575,24.575,12.281-29.669Zm-12.305-6.4-11.41-4.731h13.31Zm-.46,1.113-12.765,30.806-18.016,17.992L383.9,319.215h71.388Zm22.276,103.6-7.139,7.127-51.593-21.38,13.031-31.459ZM440.938,376.3h7.2l-2.105,5.094ZM492.7,440.539l-20.812,8.579,12.2-12.2Zm-9.135-3.787-12.886,12.874-54.207,22.457-3.715-8.966,19.71-47.588ZM469.687,450.63,437.6,482.718H420.816L416.63,472.6Zm-33.3,33.3-10.66,10.66-4.4-10.66ZM432.384,513.8l-17.775-7.369,10.406-10.406Zm-6.473-18.755,11.168-11.168H546.907l13.975,13.975-83.464,34.533L433.969,514.4ZM548.529,483.88h24.139l-4.525,10.89-6.11,2.529Zm25.409,0h20.57l-24.78,10.273Zm-6.461,12.511-1.839,4.537-2.686-2.674Zm-1.464,6.7,5.433,5.433-13.128,13.128Zm.5-1.21,2.541-6.147,25.93-10.745-22.663,22.675Zm7.95-19.214,2.94-7.078,17.1,7.078Zm-1.307,0h-25.8l-33.371-33.359,62.35,25.821Zm-27.563,0H438.325l32.6-32.56,22.457-9.3,17.69,7.332Zm-50.674-42.555,5.735-2.42,8.131,8.131Zm-.678-.278-9.28-3.848,6.982-6.969,8.325,8.325ZM446.48,381.746l2.275-5.493h95.322L492.459,427.8Zm1.936-6.05H440.43l-.992-1,15.947-15.947Zm-9.68,0h-.29l.145-.145Zm.508.508,6.3,6.3-13.1,31.653-22.989-9.51,28.459-28.35Zm-23.909,96.29-7.841,3.255,4.6-11.1Zm.206.484,3.993,9.68H404.615l2.577-6.2Zm-11.458,9.68H392.237l14.314-5.929Zm.06,1.21h15.9l4.84,11.579-10.72,10.72-16.4-6.8Zm9.583,22.687-32.391,32.391,16.189-39.094Zm.508.218,18.452,7.635L443.2,539.817h-62.06Zm64.129,26.547,15.645,6.485H462.681Zm76.6-6.522-5.4,13.007h-7.611Zm2.226-2.238L572.317,509.4l9.74,9.74-8.53,20.678H550.84Zm16.044-16.044,22.675-22.675L582.6,517.9Zm4.707-34.049,7.683-18.585,10.89,26.293Zm-1.113-.472L511.782,447.06l-9.837-9.837L566.8,410.362l18.15,43.922ZM501.521,436.8l-8.688-8.676,51.908-51.908h7.889l13.939,33.637Zm43.728-61.091,5.07-5.07,2.093,5.07Zm5.989-6.05,7.623-7.623,32.814,13.709H553.732Zm-.206-.52-5.167-12.475,12.475,5.167Zm-.932.932-5.614,5.675H448.9l7.417-17.908,26.994-26.994,60.958,25.264Zm-65.859-40.244,10.708-10.708H529l14.629,35.4Zm11.216-11.216,23.619-23.473,9.68,23.57Zm13.491-51.073h35.876l-25.409,25.409Zm-.508-1.21-7.127-17.073,17.048-41.139,60.837,25.2-33.165,33.165Zm9.68-59.047-5.59-2.311,7.913-3.279Zm-6.3-2.493-34.883-14.447-3.836-9.22,67.42-27.926-19.844,47.915Zm-40.28-24.32-9.22,3.811-33.879-14.024,27.491-27.478ZM426.31,68.109H528.891l-72.538,72.6ZM472,181.581l3.352,8.107-11.458-4.755ZM471.5,4.017l60.741,60.741L530.1,66.9H425.8L420.78,54.8ZM419.473,54.679l.194.484-.678.678Zm-.992,2.42,1.379-1.44,4.646,11.216H414.391Zm-2.251,2.19L413.1,66.875h-4.441Zm-35.38,8.8H406.72L380.827,93.979Zm0,26.619L407.47,68.085h5.13l-31.738,76.64Zm0,53.239,33.044-79.8h11.132l30.395,73.421-28.18,28.192-46.415-19.239Zm0,3.17,45.979,19.069-45.979,45.979Zm0,66.815,47.189-47.189,33.577,13.9-80.79,33.4Zm0,1.452,82.4-34.133,12.4,5.142,10.406,25.119L380.851,259.067Zm0,40.256,105.4-43.656,14.157,34.182-6.74,16.262H380.827Zm0,8.034h112.31l-21.187,51.037h-14.81l-76.337-31.629Zm0,20.763,73.167,30.249H383.38l-2.553-2.565Zm0,29.463.847.847h-.847Zm0,1.355h1.355l55.526,55.526-.992,1H380.827Zm0,57.038H436.2l-27.938,27.95-24.066-9.97-3.364-8.131Zm0,13.007,1.779,4.32-1.779-.738Zm0,4.84,2.42,1,9.97,24.078-12.4,12.414Zm0,39.191,12.91-12.91,18.053,43.559-5,12.1-16,6.594H380.79Zm0,50.541h7.115l-7.115,2.952Zm0,3.509,8.47-3.509H403.6l-6.34,15.306-16.431-6.715Zm0,5.566,16.177,6.776-16.2,39.131Zm0,79.459v-31.1l10.987,26.535Zm11.471-4.755-10.987-26.51L403.3,563.1Zm11.483-4.755L381.71,540.858l37.678,15.609Zm16.286-6.752-38.223-15.8h61.527l2.178,5.251Zm1.585.653L446.056,546.7l10.1,24.405Zm71.812,29.753-35.743-14.81-10.563-25.494,14.278-5.917h33.782L526.7,553.345Zm31.338,12.983L494.7,587.042l33.2-33.19,13.527,5.6Zm16.77-40.522-13.31-5.518,13.14-13.128h7.9Zm20.473,8.47-19.36-8.01,7.925-19.118h22.675Zm34.908,14.459-33.782-13.987,11.434-27.6h22.348Zm0-42.107H574.834l8.192-19.759,13.951,13.951Zm0-7.514L583.521,518.86l13.455-32.452Zm0-52.126-10.708-25.881,10.708-25.869Zm0-54.909-11.35,27.442-17.738-42.809,29.1-12.1Zm0-27.975-29.293,12.1-13.745-33.1h38.949l4.041,1.682Zm0-20.678-.871-.363h.871Zm0-.871h-2.117l-35.089-14.52,37.195-37.195Zm0-52.452-37.7,37.7-14.06-5.82-14.895-35.96h66.657Zm0-4.586H530.1l-10.14-24.5L546.581,267.6h50.444Zm0-52.283H547.742l32.669-32.669,16.565,6.861Zm0-26.365-16.189-6.7,16.177-16.177Zm0-24.587-17.4,17.375-61.031-25.276,2.517-6.05,75.9-31.459Zm0-45.979-75.623,31.35,19.856-47.915,55.768-23.11Zm0-41.006-.182.073L564.609,96.4l11.725-28.289h20.642Zm0-61.6H576.83l20.146-48.653Zm0-50-20.7,50H535.134l-1.646-1.658L593.612,5.106,596.976,6.5Zm0-11.713-2.42-1.016,2.42-2.42ZM744.133,70.057l-19.275,46.487-18.44,7.635-4.84-11.616Zm-34.1,140.175-15.79,15.79-9.5-9.438,29.681-71.667L725.766,172.3Zm16.383-36.4,5.868,14.157-20.013,20.013ZM703.768,376.3l-31.532,31.459-36.456-15.1,5.445-13.152,7.9-3.279Zm-53.408-.508L742.4,337.582l-38.126,38.126Zm87.541,60.5L718.724,482.67H600.63l124.627-51.617Zm-11.083-5.9,16.335-6.764-4.84,11.555ZM718.2,483.868l-17.218,41.575L600.63,483.88Zm-118.057-2.3,72.332-72.332,51.146,21.187Zm15.113-97.342,3.291-7.95h22.735l-1.355,3.255-18,7.429Zm5.058,3.412-7.768,3.182,2.287-5.517ZM639.6,380.21l-4.985,12.1-12-5.118Zm-4.332,13.624,36,14.907-71.981,71.981Zm6.2-14.955,1.077-2.6h5.2Zm0-3.11H618.8l23.413-56.53h22.675Zm17.8-109.321h-4.67l1.379-1.379Zm-2.928-1.767,12.221-12.233-5.8,14h-2.117Zm5.844,2.977h.073l-21.138,51.049H602.3l51.085-51.073Zm-19.759,51.049,20.957-50.589,19.36,8.022L665.11,318.707Zm21.15-51.061H686.26l-3.327,8.034Zm.508-1.21,6.727-16.226,23.437-23.449,6.328,6.34-13.806,33.335Zm13.31-129.673,28.725-11.894,7.635,18.44L683.8,215.617l-42.615-42.591Zm-37.086,35.367-14.145-14.145,48.326-20.049Zm38.042-36.3L701.179,113l4.731,11.41Zm6.159,81.25,9.353,9.341-22.566,22.566Zm16.94,16.94,32.415,32.415H688.075Zm-.714-1.44L694.56,226.4l14.919-14.907Zm13.31-89.949-7.417-18,17.956-7.441Zm-12.935-31.314-8.724-21.066L743.2,69.2Zm-9.2-22.179-8.724-21.066h59.591Zm50.819-22.276H682.69L670.24,36.844ZM598.2,7.006l2.42,1.016-2.42,5.965Zm0,8.325,2.94-7.115,68.424,28.35L682.134,66.9H598.2Zm0,52.779H682.63l8.809,21.259L598.2,127.991Zm0,61.2,93.7-38.816,8.809,21.259-25.264,25.252-49.609,20.57-27.6-27.6Zm0,1.391,27.079,27.091L598.2,169.009Zm0,38.864,27.479-11.386,14.29,14.3L598.2,214.262Zm0,46.415,42.627-42.639,42.809,42.785-14.52,35.089-13.31,13.31-57.631-23.873Zm0,25.143,57.244,23.715-1.6,1.585H598.186Zm0,26.51h54.449l-51.061,51.073H598.21Zm0,51.581h2.856l-2.856,2.868Zm0,3.63,3.63-3.63h39.131l-23.413,56.53H598.2Zm0,53.444h19.081l-3.1,7.49L598.2,377.16Zm0,2.178,15.524,6.437-2.759,6.631-12.765,5.3Zm0,18.924,12.487-5.179L598.2,422.377Zm0,28.144,14.048-34.012,8.76-3.63,13.164,5.445-36,86.924Zm0,114.318v-4.6l4.586,4.6Zm0-6.3V486.264l22.179,53.553H604.49Zm33.407,33.371L604.986,540.3h15.609Zm63.427-27.1H621.684l-22.989-55.4,101.88,42.155Zm.557,0L701,526.774l31.459,13.043Zm49.609,3.957-8.325-3.436H745.2Zm0-3.957h-9.535l-34.194-14.169,17.254-41.768h26.5Zm0-57.147H719.256l19.13-46.173,6.836,2.831Zm0-44.648-6.377-2.638,4.985-12.027,1.391-.569Zm0-16.552-.738.3.738-1.767Zm0-2.807-1.416,3.4-18.561,7.683-51.8-21.453L705.474,376.3h39.748Zm0-42.918h-39.2l39.227-39.227Zm0-40.945-1.875,1.863-94.378,39.082h-6.219l23.413-56.53h79.011Zm0-16.093H666.416L683.852,276.6l61.37,25.409Zm0-17.242-61.164-25.337,3.509-8.47h47.552l10.1,10.091Zm0-24.466-9.377-9.365H745.2Zm0-10.575H734.61l-32.9-32.9,10.043-24.2,20.739-20.739L745.222,219.3Zm0-48.568L732.868,188.1l12.33-12.318Zm0-42.8-12.523,12.487L726.7,173.111l18.525-44.7Zm0-49.754L726.02,171.586,714.682,144.2l11.446-27.636,19.069-7.9Zm0-17.194-18.791,7.78,18.815-45.35Zm41.284,267.634h-22.99l22.99-55.465Zm0-58.151-6.546-15.826,6.546-6.534Zm-16.516-5.868,4.61-4.6,11.12,11.12Zm15.488,6.982H763.033l6.57-6.582Zm-10.515-11.955,4.6-4.6,6.51,15.73Zm11.543-13.31-7.054,7.066-13.636-32.923h20.691Zm0-129.346-8.688-20.981,8.688-8.688Zm0-30.395-8.893,8.905-16.722-40.425,13.31-5.505,12.305,12.354Zm-28-37.267,4.525-10.89,10.769,10.769-13.116,5.433Zm1.065,5.735-4.162,1.73,2.42-5.88ZM748.864,66.9l24.8-10.273L769.409,66.9Zm20.037,1.21-2.928,7.078-17.109-7.078Zm-3.4,8.2-2.916,7.066L748.453,69.247Zm20.981,31L775.338,96.169l11.144-4.61Zm0-16.31-11.531,4.84L763.492,84.3l3.122-7.526,19.868,8.24Zm0-7.26-19.36-8.083,3.134-7.55h16.226Zm0-16.807h-15.73l4.525-10.89,11.2-4.755Zm0-38.163V49.984l-10.587,4.465Zm-1.464.375L774.382,55.042,748.44,65.786Zm-22.99,55.477L757.781,94.9l-10.273-24.8Zm-15.6-14.132,10.745,25.942-3.364,8.119-7.381,3.049Zm0,37.679,7.1-2.9-7.1,17.157Zm0,17.363,8.675-20.969,4.634-1.912,16.94,40.921-30.249,30.249Zm0,49.04,30.479-30.491,9.571,23.219v99.121h-21.15l-18.9-45.64Zm0,47.564,18.343,44.285H746.432Zm0,45.495h18.839l13.806,33.311-4.961,4.961-27.684-27.7Zm0,11.3,27.321,27.333-4.961,4.961-22.36-9.268Zm0,23.582,21.961,9.111-7.078,7.078H746.432Zm0,16.7h14.374l-14.374,14.374Zm0,16.093,16.081-16.093H785.5l-39.07,16.177Zm0,.641,39.929-16.516-23.328,56.312h-16.6Zm0,40.3h16.347l-16.347,39.481Zm0,40.824,16.94-40.824h23.11v28.108l-40.05,16.613Zm0,5.2,40.05-16.6v49.452l-40.05-16.613Zm0,17.557,40.05,16.6V482.67h-40.05Zm0,44.043h40.05v55.937h-40.05Zm0,60.4v-3.945h40.05v20.57Z" fill="#cbb999"/>
    </g>
  </g>
</svg>
