<svg id="Layer_2" data-name="Layer 2" xmlns="http://www.w3.org/2000/svg" width="25.217" height="39.48" viewBox="0 0 25.217 39.48">
  <g id="Layer_1" data-name="Layer 1" transform="translate(0)">
    <path id="Tracé_4756" data-name="Tracé 4756" d="M23.812,13.311a2.953,2.953,0,0,0-1.667.619,2.381,2.381,0,0,0,1.667.691,1.9,1.9,0,0,0,1.4-.6,1.214,1.214,0,0,0-1.4-.714Zm-1,1.738a3.524,3.524,0,0,0-1,0,2.167,2.167,0,0,0-.381-1.262A2.619,2.619,0,0,0,21,13.454a6.144,6.144,0,0,0,.857-.119,3.262,3.262,0,0,0,2.834-3.286,8.263,8.263,0,0,0-3.024-.524,3.619,3.619,0,0,0,.9-.476,4.762,4.762,0,0,0,1.238-3.357A8.977,8.977,0,0,0,19.93,6.739a3.381,3.381,0,0,0-1.238,1.119,3.6,3.6,0,0,0-2.167,0h0a7.143,7.143,0,0,0,2.524-1.81,3.072,3.072,0,0,0,.6-3.667,5.024,5.024,0,0,0-2.976.643A4.048,4.048,0,0,0,16.835,0s-1.024,0-2,1.524A6.786,6.786,0,0,0,14,5.143a5.834,5.834,0,0,0,1-.381,6.5,6.5,0,0,0-.81,2.381,3.238,3.238,0,0,0-.786,0L13.263,6.5a7.977,7.977,0,0,0,.4-2.072,4.024,4.024,0,0,0-1.9-3.643,8.31,8.31,0,0,0-1.9,3.262A4.191,4.191,0,0,0,8.215,2a7.81,7.81,0,0,0-.524,3.238,5.048,5.048,0,0,0-2-.857,11.525,11.525,0,0,0,.19,3.643H5.405a1.714,1.714,0,0,0-.643-.881A6.429,6.429,0,0,0,2.048,6.5a5.715,5.715,0,0,0,.9,2.381A9.287,9.287,0,0,0,0,9.263a3.238,3.238,0,0,0,2.548,2.643h.667l.143.286A4.024,4.024,0,0,0,.6,14.287a6.572,6.572,0,0,0,4.905.881,4.048,4.048,0,0,0,2.381-2.024,4.762,4.762,0,0,1,.262.476,8.215,8.215,0,0,0-.81,1.072,7.144,7.144,0,0,0,1.119.357,23.263,23.263,0,0,1-2.381.524,6.715,6.715,0,0,0-3.691,1.976,6.262,6.262,0,0,0,4.1.9,3,3,0,0,0,1.048-.333L8,18.787a3.215,3.215,0,0,0-.881,2.381,4.762,4.762,0,0,0,1.929-.548,18.264,18.264,0,0,1,1.072,9.858A12.739,12.739,0,0,1,4.477,36.86a9.167,9.167,0,0,0,4.048-.738A7.143,7.143,0,0,0,11.43,34.36s-.262,1.1-.691,2.381A18.62,18.62,0,0,1,9.525,39.48a18.787,18.787,0,0,0,3.048-2.262,10.334,10.334,0,0,0,1.572-1.929,4.762,4.762,0,0,0,.667,1.572,4.119,4.119,0,0,0,1.238,1.381,6.024,6.024,0,0,1-.167-1.953,13.525,13.525,0,0,1,.262-1.834A6.715,6.715,0,0,0,19.716,37.1a4.762,4.762,0,0,0,4.1-.19,7.31,7.31,0,0,1-4.929-3.072,16.5,16.5,0,0,1-3.072-10.882.881.881,0,0,1,0-.262,2.167,2.167,0,0,0,.429.31,2.786,2.786,0,0,0,1.476-2.643,2.691,2.691,0,0,0-1.048-1.643c.262-.738.524-1.381.738-1.929a4.762,4.762,0,0,0,1.738,3.167c1.929,1.524,3.286.786,3.286.786a9.691,9.691,0,0,0-1.881-3.548,4.31,4.31,0,0,0-1.976-1.119h.262a4.762,4.762,0,0,0-1.667-2.834h0l.31-.31a4.762,4.762,0,0,0,2.262.691,2.953,2.953,0,0,0,.9,1.738,6.643,6.643,0,0,0-1.119.381,6,6,0,0,0,2.667,1.286c1.548.262,2,0,2,0a1.524,1.524,0,0,0-1.31-1.976ZM4.929,12.1l-.167-.19a2.881,2.881,0,0,0,1.048-.548,3.81,3.81,0,0,0-.286-.833l.738.81a2.1,2.1,0,0,0,.381.762,8.953,8.953,0,0,0-1.714,0Zm2.524-1.381-.571-.31L6,9.691a3.476,3.476,0,0,0,1-.167,2.381,2.381,0,0,0,.738.31,2.119,2.119,0,0,0-.286.881ZM8.715,7.524a4.762,4.762,0,0,0,.571.5,2.381,2.381,0,0,0-.19.929,1.1,1.1,0,0,0-.452,0,9.525,9.525,0,0,0,.071-1.429Zm.167,3.524a1.857,1.857,0,0,0,.643-.667,3.953,3.953,0,0,0,1.286,1.524,4.548,4.548,0,0,0-1.691.857,3.762,3.762,0,0,0-.738-1.333,1.9,1.9,0,0,1,.5-.381Zm1.976,4.286-.143.214v-.19Zm-1.81,2.381-.429-.429a5.239,5.239,0,0,0,.667-.619l.238.738Zm1,2.238.5-.6.524,2.381Zm0-12.668a2.643,2.643,0,0,0,.167-.714,3.5,3.5,0,0,0,2.143,1.643h0l.31.857a1.143,1.143,0,0,0-.524.452h-.238A5.953,5.953,0,0,0,10,7.405Zm1.524,11.12v-.333l.167-1.4.167,1.762ZM13.5,24.121l-.667-1.1-.929-3.738.286-.238a12.1,12.1,0,0,0,.976,1.929,3.524,3.524,0,0,0,.619.571Zm.167-6.667h0v.452l-.6.429a17.359,17.359,0,0,0-.714-3.5,5.072,5.072,0,0,0,.738-.429,3.857,3.857,0,0,0,.524,3.167Zm-.238-3.167a2.143,2.143,0,0,0,.4-.476,2.881,2.881,0,0,0-1.691-1.9,2.381,2.381,0,0,0,.167-1.238,1.072,1.072,0,0,1,.333-.238,1.119,1.119,0,0,0,.333-.333,16.978,16.978,0,0,1,.857,3.81v.6a1.524,1.524,0,0,0-.4-.214Zm.214-5.953a1.762,1.762,0,0,0,.833.476h.5a3.881,3.881,0,0,0-.952,1.4C13.906,9.525,13.787,8.977,13.644,8.334Zm.786,11.072a1.691,1.691,0,0,0-.143-.357l.143-.619.333.167a6.382,6.382,0,0,0-.333.81Zm-.143-4.786v-.786a3.5,3.5,0,0,0,.452.952h0Zm1.857,2.143a3.6,3.6,0,0,0-.429-.857,2.024,2.024,0,0,0-.238-.333h.143a5.381,5.381,0,0,0,1.31.5,6.644,6.644,0,0,0-.81.6Zm0-4.31a10.763,10.763,0,0,0-1.857-.714,3.648,3.648,0,0,0-.19-1.357,2.715,2.715,0,0,0,2.572.167,5.191,5.191,0,0,0,1.453-1.214,3.143,3.143,0,0,0,0,.524,20.287,20.287,0,0,0-2.024,2.6Zm2.048-1,.238-.81,2.381-.4Z" transform="translate(0)" fill="#8b755b"/>
  </g>
</svg>
