<svg xmlns="http://www.w3.org/2000/svg" width="458.366" height="678.823" viewBox="0 0 458.366 678.823">
  <g id="Layer_2" data-name="Layer 2" transform="translate(458.346 0.03) rotate(90)">
    <g id="Layer_1" data-name="Layer 1" transform="translate(-0.03 -0.02)">
      <path id="Tracé_4759" data-name="Tracé 4759" d="M642.929,10.833h.98c-.078-.343-.245-.6-.824-.441a1.6,1.6,0,0,0-.157.441Zm-389.981,0c-.059-.461-.127-.922-.186-1.382h-.794l.176,1.382Zm361.775,0a9.666,9.666,0,0,1,1.2-.843,4.658,4.658,0,0,1-1.961-.539h-2.265c0,.48.235.686-.206.98,0-1.118-2.441-1.118-2.4,0a17.906,17.906,0,0,1,2.274.441Zm54.609-1.245-.147-.137H660.8c0,.549-.225.98-1.294,1.343h6.2a1.539,1.539,0,0,1-.216-1.235c1.069,0,.873,1.255,1.961,1.2h.49v47.06c.4.127.784.167.745-.284.275.176.373.539.647.716ZM656.4,10.833c-.265-.431-.422-.98-.726-1.382h-.51a2.069,2.069,0,0,1,0,1.382Zm1.186,0h1.529a1.961,1.961,0,0,1,.706-1.382h-1.373a2.537,2.537,0,0,1,.255.539c-1.167-.363-1.177.186-1.118.843Zm-4.118-3.245v.529h2.941a9.4,9.4,0,0,0-2.941-.529ZM.156,319.44c.5,1.294,1.755.353,1.6-1.206-.6-.069-1.48.147-1.6-.392.863.069.176-1.422.392-2.01a2.382,2.382,0,0,1,1.392-.392V315.1a3.97,3.97,0,0,0-1.961.373v3.049a5.048,5.048,0,0,0,1.353.52C.774,319.92.372,318.538.156,319.44Zm4-113.287c2.52-.608-.529-2.216,0-3.608a1.274,1.274,0,0,0-.843.186v1.275C4.254,204.348,4.6,204.731,4.156,206.152ZM.98,329.852,0,329.175v4.039a3.716,3.716,0,0,0,.98-3.363Zm7.147-4.471v-1.755c-.853,0-1.7-.373-1.961.98,1.578.4,1.784-.226.8,1.2a3.02,3.02,0,0,1,1.127-.422Zm-2.745-2.343c-.559-1.765,2.4,0,2.4-1.2-.98,0-1.4-.735-1.961-1.206-1.412-.216-.98,1.422-2.4,1.206h0v.343a2.333,2.333,0,0,1,1.931.853ZM4.156,216.957c0,1.373,2.431.235,2.4,1.6-.529,0-.363.706-.8.8-.088-.314-.333-.461-.794-.4.2.559.088.814-.1.98H7.2c.657-.559,1.294-.716.157-1.382.422.088.627,0,.745-.206v-1.265a7.423,7.423,0,0,0-1.961.676c0-.51.51-.559.4-1.206-1.177-.108-1.49,1.608-1.961,0,.471-.059,1.137.069,1.2-.4-1.765-.4-.108-.578,0-.794a1.961,1.961,0,0,0-2.441-.274v1.5h0a.461.461,0,0,1,0,.167v1.039h0C3.921,217.751,3.725,217.055,4.156,216.957Zm5.294,105.4c.353-.333.549-.686,1.108-.108a1.216,1.216,0,0,1,.275-1.726v-.98a8.591,8.591,0,0,0-1.382.441ZM1.96,40.2V28.824A25.158,25.158,0,0,0,.882,31.246,8.157,8.157,0,0,1,0,36.53v5.079A4.9,4.9,0,0,0,1.96,40.2ZM248.908,10.784h.706c-.069-.461-.127-.922-.186-1.382h-.667c.029.52.088.98.127,1.431ZM10.833,366.853v-.559C10.441,366.363,10.637,366.559,10.833,366.853Zm-1.382-13.6a2.756,2.756,0,0,0,1.382-.049v-1.422a3.6,3.6,0,0,0-.676-.314c.235,1.637-.275.98-.706.667ZM1.96,118.719a2.188,2.188,0,0,1-.186-.235c.157.686-.6.98,0,1.2-.049-.176,0-.255.186-.265Zm7.49,241.664a1.51,1.51,0,0,1,1.108-1.314c.176-.392-.569-.549-1.108-.461Zm626-349.549h.01S635.458,10.784,635.448,10.833Zm41.384,69.492V99.708c.127-.637.98-.539,1.961-.549V80.531A2.941,2.941,0,0,1,676.832,80.325Zm-1.451,95.463V162.063h-4.775v19.7H675.4v-5.226a.51.51,0,0,1-.294-.833c-.461.147-.98.706-.4.8-.157.98-1.549,0-1.2-.8,1.216-.294,1.372-.157,1.873.088Zm1.451-106.179a6.157,6.157,0,0,0,1.961,2.726V66.786c-.529.284-1.1.686-1.961,1.167Zm1.961-52.452v-.49c-.235-.147-.422-.52-.892-.647a3.689,3.689,0,0,0,.882,1.1Zm-1.961,50.619a15.5,15.5,0,0,0,1.059-3.3c.618-.157.784.147.892.5V63.6a.549.549,0,0,1-.088-.324.706.706,0,0,1,.088-.559V17.794c-.686-.431-1.333-.882-1.961-1.343Zm-1.451-52.452c-1.716-1.451-3.235-2.99-4.794-4.5V29.167h4.794Zm0,299.41h-4.775v19.7H675.4Zm-7.441-12.843v.8a1.351,1.351,0,0,1,.343,0c.059-.5-.078-.726-.343-.843Zm7.441,50.982h-4.775v19.687H675.4Zm0-214.437v-.2c-.265-.137-.382-.147,0,.167Zm0,63.923c-.853.931-2.667,1.088-4.794,1.157v11.5c.6.225.167,1.48,1.294,1.167a5.038,5.038,0,0,1-1.294,1.069v2.716h4.794ZM669.3,4.9l-.226-.078.226.343Zm6.079,129.572c-.235-.118-.343-.353-.7-.353-.824.108-.794,1.069-1.2,1.6-.98-1.216-1.784.216-2.941.343v4.9c.814-.235,1.961.118,1.7,1.176-1.373.147-1.118-.7-1.7-.667v2.2h3.167a1.394,1.394,0,0,0-.265-.333c0-.735.657-.235.8.333h.275c.206-.98-1.147-2.02-1.824-1.961v-.8h1.961c-.137.627.245.745.7.794V138.66c-.461.441-1.382-1.1-2.7-.559.245-.353.48-.716,0-.794,1.333,0,1.441-1.441,2.7-2.265Zm0,256.556h-4.775V410.7a1.343,1.343,0,0,0,.5-1.186c1.137,1.314,2.608.382,4.294-.52Zm0-254.085h-.294l.294.294ZM669.332,61.56a.863.863,0,0,1-.255.078,3.023,3.023,0,0,1,.255.235Zm7.5-46.854c.637-.235.637-1.1,1.863-.745l.088.078V10.01a6.1,6.1,0,0,1-1.961-1.039Zm0,119.778h.255a1.549,1.549,0,0,0-.255-.98Zm-7.5-67.433a2.3,2.3,0,0,1-1.049.186v.8c.265.549.628.471,1.049.294Zm0-1.775a1.284,1.284,0,0,0-.647-.441,5.639,5.639,0,0,1,.647.765Zm0,6.863c-.461-.088-.922-.167-1.392-.216v8.088c.48-.157.98-.333,1.392-.51ZM9.451,254.526a2.059,2.059,0,0,0,.706-.343c-.333.716.422,1.078.676,1.1v-.127a1.149,1.149,0,0,0-.275-.167c.069-1.049-.549-1.333-1.108-.873Zm659.881,47.923c-.392.1-.853-.147-1.392.5v.441a4.358,4.358,0,0,1,.745-.363c.245-.088.451-.157.647-.206ZM5.754,293.017v.8c-.51,0-.549-.52-1.2-.4-.088.3,0,.784-.4.794a4.716,4.716,0,0,0,.3,2.029h.5C5.117,294.772,6.2,294.243,5.754,293.017Zm-3.794-20.4v-.559a.775.775,0,0,1-.186-.255.98.98,0,0,0,.186.814Zm3,12.393c-.294-1.088,1.882.294,1.6-.794-1.882.412-1.069-1.873-2.8-1.608.549,1.108.167,1.461-.441,1.7v.3c.549-.137,1.127-.235,1.647-.392C5,284.664,4.372,284.831,4.96,285.007Zm-3.02.98v-1.167a1.3,1.3,0,0,0-.588.98Zm1.412,3a.245.245,0,0,1,0,.216v.667c.275-.392.569-.784,0-.853Zm2.8-2.8a2.883,2.883,0,0,0-2.843-.471v3.069c1.588-.108,2.569-.382,2.843-2.569Zm3.294-4.108c.235.245.49.529.706.5.863-1.5,0-1.461-.706-1.706ZM1.96,269.027v-.392H1.754a2.48,2.48,0,0,1,.206.392Zm7.51,37.932c.647-.1,1.147-.343,1.108-1.128-.471.412-.824.382-1.108.2Zm0-10.089a2.843,2.843,0,0,0,.706-1.451,1.2,1.2,0,0,0-.706.392ZM1.96,258.889v-.216C1.8,258.722,1.774,258.83,1.96,258.889Zm5.392,30.53c0-1.873-1.137-.775-2.392-.8.343,1.284-1.039.833-1.206,1.6,1.069-.235,1.2,2.49,1.961,1.206-.706-.2.176-.431.4-.8a1.765,1.765,0,0,1-1.6-.8C5.656,289.341,6.225,288.949,7.353,289.419Zm-5.392,2.3c-.686-.382-1.677-1.657-.98-1.912a2.8,2.8,0,0,0,.98.392v-.745c-.373-.059-.657-.216-.588-.451a5.328,5.328,0,0,0,.588-.078V286.87A1.755,1.755,0,0,0,0,287.4v7.069a5.8,5.8,0,0,1,1.961.363Zm0-9.363a1.255,1.255,0,0,1-.588-.559c-.108-.98.167-1.422.588-1.5v-.578a.48.48,0,0,1-.186.078c0-.157,0-.284,0-.4h0c0-.98-.069-1.108-.814-2.775a2.765,2.765,0,0,1,.98.245v-1.961a1.726,1.726,0,0,0-.98-1.088c1.118,0,.088-1.4-.4-2.4,1.108.245.775-.98,1.392-1.206v-.52c-.216.49-.98.686-1.392,1.324.088-.98-.2-1.039-.549-.98v.559H.156L0,270.684v5.951a4.236,4.236,0,0,0,.549-.833c1.412.108-.98,1.49.4,1.608a3.039,3.039,0,0,0-.98.353v1.392c.216-.284.363-.637.98-.549v1.6a2.059,2.059,0,0,0-.98.088v5.118c.569-.392,1.333-.52,1.961-.98ZM0,285.851v.431c.127-.186.167-.353,0-.422Zm8.1,7.981c-.147.578-.2,1.157-.343,1.578a1.9,1.9,0,0,0,.343-.176ZM1.96,279.488v-.176c-.088,0-.157,0-.176.069h0a.294.294,0,0,1,.176.108Zm7.51,29.266c.235-.5.892-.569,1.382-.814v-.559c-.431,0-.98.1-1.382.1Zm-5.7-18.138c0,.363-.206.471-.441.461v4.206l.441.137c-1-1.294,1.392-3.255-.02-4.8ZM0,241.006v2.51C.186,242.869,1.382,241.183,0,241.006Zm9.451,35.011c.353-.549,1.088.412,1.382-.118v-.549c-.49-.206-.882-.51-1.382-.706ZM8.1,252.163a1.432,1.432,0,0,0-.343-.382c-.706.784-.216,1.265.343,1.755ZM4.96,253.791c.451,1.51,1.578.716,2.392,0a2.216,2.216,0,0,0-2.392,0ZM8.1,256.2c-.912.137-1.961.814-1.137-.412h-.8c0,.4-.324.471-.4.794,1.333.118,1.177.814.98,1.5h.775c0-.245.422-.529.618-.98ZM6.862,276.537a3.087,3.087,0,0,1-.265.471,2.619,2.619,0,0,0,.8-.471ZM4.2,246.144c.412-1.324-.343-1.471-.843-1.882v1.706c.225-.1.4-.176.8.216Zm-.775,11.9h.6c.294-.677.647-1.108,1.078-.892-.8-.765.363-1.873-.539-3.01a1.549,1.549,0,0,0-1.245.216v.6a1.843,1.843,0,0,1,1.245-.412A1.529,1.529,0,0,1,3.313,256.7v1.039h0a.461.461,0,0,1,.069.343Zm-1.461-14.3H1.774a1.167,1.167,0,0,1,.186.382Zm-1.961,0v.216a1.173,1.173,0,0,0,.157-.157c-.088-.01-.157-.029-.157-.078ZM1.96,255.889v-.98c-.48-.412-1.412-.333-.588-1.127-.755-.4-1.088.706-1.353.755v1.833C.656,256.8,1.284,256.193,1.96,255.889ZM669.332,102.561c-.716.48-.49.578,0,.725ZM3.754,253.389a4.971,4.971,0,0,0,3.206-1.608c-1.569,0-1.833-1.363-2.4-2.4.765.755.726-.235,1.961,0,.882.578-.51.98.4,1.206.078-.451.441-.627.794-.8,0,.451-.578.627,0,.8,0-.461.167-.529.343-.461v-1.4c0,.108-.137.2-.343.265.353-1.284-1.039-.833-1.2-1.608,0,0,.98-2.177.4-1.2-1.108-.176-.382,1.49-1.206,1.6-.882-.578.51-.98-.4-1.206-.647.853-1.353.686-2.039.716v1.735h0c.549.314.392.647,0,.892v1.765l.441-.255a5.474,5.474,0,0,0-.441.6v1.029a1.776,1.776,0,0,0,.48.333Zm5.7,11.981h.706a5.127,5.127,0,0,0,.676,2.451V266.3a.343.343,0,0,0-.275-.137.784.784,0,0,0,.275-.431v-.039c0-.324-.441-.578-.275-1.471a.717.717,0,0,1,.275.1v-.745c-.4-.275-.814-.392-1.069.245.52,0,.51,1.118,0,1.206,0-.98-.127-.824-.314-.5Zm-8.1,4.03c-.373-1.775.078-1.608.4-2.4a.216.216,0,0,1,.186.088v-.922c-2.941-.431.539-3.7-1.784-4.373a14.712,14.712,0,0,1,1.784.353v-1.578a1.539,1.539,0,0,1-1.784.824c.059-.471-.069-1.137.392-1.2.333,1.559.578,0,1.392-.431v-.549c-.2,0-.51-.333-.98-.225a1.843,1.843,0,0,1,.98-1.088v-.98c-.98.1-1.912.167-1.784.833A.372.372,0,0,1,0,257.693v8.981a2.331,2.331,0,0,0,.549-.049A1.412,1.412,0,0,1,0,267.5v.912c.392.373.51,1.049,1.353.99ZM8.1,277.6v-.225c-2.059-1.353-.578,3.353-1.961,2.039v1.2H7.353c-.176-.716.49-1.216.745-1.6v-.382c-.451.1-.863.667-1.137,0-.1-.843.882-.559,1.137-1.029ZM1.96,250.232a2.277,2.277,0,0,1-.588,0,.98.98,0,0,1,.588-.863v-1.833a.382.382,0,0,1,0-.471V245.5c-.235.637-.765.98-1.392.3,0-.529.706-.363.8-.8a1.039,1.039,0,0,0-1.353.382V249.3a1.756,1.756,0,0,1,.529-.275c.078-.343-.157-.382-.392-.4,1.2-1.059.284.843.794,1.6a2.059,2.059,0,0,0-.98.088v1.382a1.961,1.961,0,0,1,1.382-.706c0,.853-.745,1.539-1.353,2.147v.843A18.088,18.088,0,0,1,1.96,252.5Zm-1.8-21.667H0v.245a.323.323,0,0,0,.157-.245ZM8.1,283.821a.4.4,0,0,0,0,.765Zm-7.549,20.4c-.275-1.333.833-.647,1.206-.4a1.577,1.577,0,0,0,.186-.3v-1.853c-.069,0-.137-.088-.186-.245a4.554,4.554,0,0,1,.206-.431v-.451a1.109,1.109,0,0,0-.186-.265,1.159,1.159,0,0,1,.186-.1v-2.029c-.363-.48-.726-.745-1.392-.275-.3-1.186,0-2.059-.549-2.657v5.324A2.426,2.426,0,0,1,1,301.871c-.353,0-.686-.422-.98-.3v2.294a.745.745,0,0,0,.529.363ZM3.313,279.8v.922a3.8,3.8,0,0,1,.441.284,1.069,1.069,0,0,0-.441-1.206Zm2.853-3.265H5.382a1.147,1.147,0,0,1,0,.471c-1.843.186,0,1.52-1.961,1.6a3.392,3.392,0,0,0,0-.98v1.216C5.882,278.243,5.254,277.635,6.166,276.537Zm3.284,8.647c.078-.265.176-.578.314-.98H9.451ZM8.1,282.713c-.98-.637-2.608-.5-1.539,1.1-.235-.529,1.177-.628,1.539-.284Zm1.353,5.451a2.127,2.127,0,0,1,.314-.353c-.108.677.755.176,1.069-.2v-.245a3.8,3.8,0,0,0-1.382-.265ZM8.1,287.508a2.462,2.462,0,0,0-.343.3A2.143,2.143,0,0,1,8.1,287.7Zm0-2.373c-.333.3-.775.176-1.137-.529-.706,1.422.265.98.392,2.4-.216,0-.451.333,0,.412.225-.735.4-.725.745-.608Zm1.353,26.726a3.049,3.049,0,0,0,1.382-1.078v-.147a8.471,8.471,0,0,0-1.382.431Zm0-18.353a1.363,1.363,0,0,0,0-1.127ZM217.3,452.571v-2.422H206.221c-2.186,1.226-5.167,1.431-8.373,1.353v3.412h10.108c.127-1.539-1.167-1.637-1.206-3,1.226.3.765-1.1,1.961-.8.471,1.2.108,1.363-.4,2.4,0,.98,1.343.794,2.4.8a.765.765,0,0,1-.059.6h6.608v-1.451a41.794,41.794,0,0,0-5.353,1.255c-1.167-.343.52-.98,0-1.961a17.332,17.332,0,0,0,5.363-.186Zm-150.71,2.343V450.12H47.148v4.794Zm113.013,0V450.12H160.151v4.794Zm-37.668,0V450.12H122.483v4.794Zm-37.668,0V450.12H84.815v4.794Zm150.641-4.765H235.486v4.765h19.422v-3.451a8.62,8.62,0,0,0-2.588.049c.069-.667.922-.882,1.833-.882l-.088.667a6.847,6.847,0,0,0,.314-.657l.529.049Zm-7.687,1.059c.431-.088.588.186.784-.157-.147,0-.245-.118-.294-.333a3.52,3.52,0,0,1,1.1-.314c0,.363,0,.814-.255.922a3.057,3.057,0,0,1,.52-.078,1.716,1.716,0,0,1-1.824-.039Zm2.451-.451a2.191,2.191,0,0,1-.265-.4,4.365,4.365,0,0,1,.51,0,1.276,1.276,0,0,1-.216.4Zm-119.062-3.333H10.833V412.031l-.275.284c-.98-.1.549-.7,0-1.608a1.282,1.282,0,0,0,.275,0v-6.334l-.275-.078a1.137,1.137,0,0,0,.275-.451v-.127a1.853,1.853,0,0,1-.275-.98c.088.049.186.078.275.118V391.089c-.206-.137-.529-.157-1.069.049.157-.833.98-.608,1.069-.676h0a3.694,3.694,0,0,0-.676-.5.441.441,0,0,1,.677-.147v-3.706a1.059,1.059,0,0,1-1.382-.608v12.51c.363.147.284.363,0,.539v3.01a.549.549,0,0,0,.314-.382,1.265,1.265,0,0,1-.314,1.216v46.491h362c-.353-.657-.98-1.569-1.8-1.275l.52-.118H131c.676.2,1.961-.245,1.657.922-.775-1.059-2.275,1.029-2.8-.8.422.314.716.294.784-.186Zm124.3,3.392a2.094,2.094,0,0,1,0,.235h0Zm168.9-.667v4.765h17.226a4.52,4.52,0,0,0,2.226-1.775v-2.706a2.259,2.259,0,0,0-.147-.314Zm-131.2,4.765V450.12H273.154v4.794Zm37.678,0V450.12H310.792v4.794ZM258.222,1.294a6.356,6.356,0,0,1,0,.647h.245C258.369,1.519,258.252,1.235,258.222,1.294Zm222.732,453.62V450.12H461.5v4.794ZM224.643,1.96c-.225-.618.255-2.216-.294-1.48V1.96ZM28.922,454.914V450.12H9.47v4.794ZM253.281,8.117h1.628V3.333H254.5a7.334,7.334,0,0,1-.431,2.637,14.237,14.237,0,0,0-.1-2.637h-1.6C252.712,4.9,253.006,6.5,253.281,8.117Zm-83.394-6.53a1.1,1.1,0,0,1,.8-1.206c.98.127.745,1.392,1.961,1.206-.686-3.118-4.392-.559-5.206-.4a3.412,3.412,0,0,0,2.441.4Zm87,7.843a10.31,10.31,0,0,1,0,1.206c0,.324-.225-.324-.422-1.206h-2.941c.078.461.147.922.216,1.382h4.735c-.088-.451-.157-.922-.235-1.382ZM1.352,368.637c.108-1.167-.9-1.225-.8-2.4a1.47,1.47,0,0,0,1.392.657v-4.137a1.068,1.068,0,0,0-.588-.088,2.783,2.783,0,0,1,.588-.343v-1.892c-.284-.578.549-1.314-1.392-.98-.216-.892.765-.569.8-1.206a2.51,2.51,0,0,0,.588.765v-7.843a5.136,5.136,0,0,1-1.784,1.1A3.921,3.921,0,0,0,0,351.617V367.5H.156L0,367.892v1.882C.431,369.373.235,368.373,1.352,368.637ZM75.864,10.784H93.826c.265-.451.52-.912.775-1.382H77.933a5.216,5.216,0,0,1-2.118,1.431ZM52.864.313c.245.98-.882.647-.657,1.627h.078A10.422,10.422,0,0,0,56.55-.02H48.707L47.06,1.029a1.069,1.069,0,0,0-.873-.245A16.51,16.51,0,0,1,45,1.96h3.618A11.059,11.059,0,0,1,52.864.313ZM45.932,1.764a1.4,1.4,0,0,1-.147-.176,2.088,2.088,0,0,1,.529-.059ZM60.187,8.117c1.961-1.461,3.539-2.941,6.4-2.726V3.333H62.746a.98.98,0,0,0-.686.931c-.059,1.461.922-.157,1.314.657-1.549,1.069-3.167,2.137-4.833,3.2ZM223.819,1.96a6.138,6.138,0,0,0-.284-1.775,11.24,11.24,0,0,0,0,1.775Zm15.128,0A8.992,8.992,0,0,0,238.741,0h-.5c.157.7.392,1.373.578,1.961ZM222.329.784A1.48,1.48,0,0,1,221.466,0h-3.226a4.187,4.187,0,0,0-1.108,1.961h2.029C221.27,1.647,220.672.235,222.329.784ZM211,1.96c1.471-.529,3.716-.1,5.324-.353a2.636,2.636,0,0,0-.216.353h.98C215.378-.638,211.2,1.215,209.1.8c.98-.1.539-.363.226-.784H207.78c.078.275.167.529.931.784-.922.108-3.608.9-1.961-.4-.716,0-2.333,1.078-2.8,0a1.873,1.873,0,0,1-.02-.4h-4.373a2.029,2.029,0,0,1-1.51,1.961Zm43.668,0c-.049-.451,0-.98,0-1.48a3.049,3.049,0,0,1,.48,1.48H257.1c-.1-.657-.206-1.3-.333-1.961h-.225a1.726,1.726,0,0,1-.275.745A6.19,6.19,0,0,0,256.193,0h-2.118c.137.657.255,1.3.333,1.961ZM258.516.784c.078.392.147.775.216,1.157h.892c-.108-.382-.225-.775-.324-1.177a15,15,0,0,1,5.157,1.2h1.716c0-.353.167-.539-.216-.755.186.657-2.177.657-1.961,0A1.1,1.1,0,0,0,265.2.4c-2.255.578-3.333-.127-5.51-.382H259.6c.255.559,0,.686-.294.647-.049-.206-.088-.431-.137-.647h-.765L258.5.47c-.373-.118-.569-.137-.1.333ZM253.771,1.96C253.644,1.294,253.5.637,253.33,0h-.245c.186.51.392.98-.088,1.294-.118-.49-.206-.912-.284-1.294h-1.049q.216.98.441,1.961ZM455.738,456.346h0c1.471,1.029,3.922,1.118,5.579,1.961h56.217a2.911,2.911,0,0,0-.147-.716c-.9.108-1.5-.1-1.6-.8,1.569.931,1.49-.49,3.206-.4.157.627.294,1.284.471,1.961h18.922q2.1-1.029,4.373-1.961ZM195.5.382c-.1,1.265,2.353.794,3.206,0A2.726,2.726,0,0,0,197.387,0h-.7a6.735,6.735,0,0,1-2.569,0h-.98a2.765,2.765,0,0,1-.637,0h-1.628a7.637,7.637,0,0,1-1.255,0H185.7C189.358.264,193.407,1.882,195.5.382ZM412.374,456.326H410.8a2.941,2.941,0,0,1,.069.422c1.333,1.274,3.441,1.5,5.735,1.52H429.56a3.922,3.922,0,0,0,.8-1.961H414.021a2.7,2.7,0,0,1-1.647.02Zm-263.4,0h.1c-.373.461-3.461.922-3.922,0H1.96V375.5c-.167,0-.363-.118-.588-.431,0-.275.294-.343.588-.363v-.441a11.658,11.658,0,0,1-1.784-.392c.059-1.961,1.049-1.539,1.784-1.961v-1.549l-.186-.078c-1.137.157-.539,2.039-1.755,2.1v85.895H127.111c.882-.657,2.2-.373,3.226,0h3.1c.8-.451,1.873-.059,3.628-.324a.823.823,0,0,1-.147.323H322.557a7.54,7.54,0,0,1,2.618-.324l-.127.324h84.189a18.353,18.353,0,0,0-.059-1.961Zm-40.334,1.226c.167-.892,1.961-.167,2.8-.4C111.228,458.522,109.512,457.757,108.64,457.551Zm209.016-.8c1.569-1.167,3.53.539,5.206-.4C321.8,457.963,318.636,456.748,317.655,456.748ZM175.092,0h0c-.51.412-1.206.2-1.843,0h-1.324C172.328.607,175.23,2.509,175.092,0ZM676.832,452.345a2.1,2.1,0,0,1,.637-.373,1.549,1.549,0,0,1,1.294.637V413.737c-.637.343-1.275.814-1.961,1.2ZM669.332,431a6.754,6.754,0,0,0-1.392-.265V447.4H514.8a.986.986,0,0,1,.167.118,4.7,4.7,0,0,1-2.059,1.275h3.157l-.3-.078c-.069-.333.157-.373.4-.392a.4.4,0,0,0,.4-.4c.451.069.216.4,0,.4a1.961,1.961,0,0,0,.98.471h.755c1.059-.147,2.167-.8,3.039-.873,1.529.686-1.559,0-1.206.794a.639.639,0,0,0,.088.078h43.746l.206-.078a.643.643,0,0,0,.088.078H567.2c.265-.48.52-.98,1.382-.873a1.441,1.441,0,0,1-.265.873h1.9c.461-.667.255-1.343,1.961,0h71.953a3.919,3.919,0,0,0,.088-.873c1.049.471,1.667.931,2.4.4.431.059.529.274.431.471h22.275Zm-37.7,19.148H612.183v4.765h19.452v-.539l-.186-.059a.891.891,0,0,1,.186-.3Zm-37.668,4.765V450.12H574.525v4.794Zm-37.677-2.177c-1.549.755-3.177,1.51-4.8,2.177h4.8Zm0-2.618H536.848v4.794h9.471c3.3-1.216,6.706-2.324,9.971-3.412ZM667.518,1.96c.8-1.392,3.275-1.118,4.657-1.961h-6.1a2.431,2.431,0,0,1-2.2,1.588A16.351,16.351,0,0,1,662.41,0h-3.49a2.881,2.881,0,0,1-.647.382c.049-.137.1-.255.137-.382H627.468c6.049.48,11.873,1.108,17.246,1.961ZM293.213,0H292.9c0,.569,0,1.088.3,1.294A5.216,5.216,0,0,1,293.213,0ZM289.36,1.96c-.088-.647-.186-1.3-.284-1.961h-.461a8.341,8.341,0,0,1-.1,1.569A15.856,15.856,0,0,1,288.243,0H273.536L273.8,1.96ZM488.993,447.424h-.559c.118.363,0,.912.51.922-1.961.716-4.539,0-7.216-.4a5.884,5.884,0,0,1,1.48-.52H408.922a5.133,5.133,0,0,1,0,.52,3.667,3.667,0,0,1-.735-.52h-9.922c.216.588-.637,1.078.98.922-.775.382-4.333.52-4.755-.922h-.98c-.784.294-1.52.628-2.3.922a1.059,1.059,0,0,0,.912.471h.108c.824,0,1.843-.569,2.578-.471a.705.705,0,0,1-.049.471h1.333a1.392,1.392,0,0,1,.784-.078.3.3,0,0,0,0,.078h47.06a23.706,23.706,0,0,1,8.441,0h37.472a1.8,1.8,0,0,1-.853-1.392Zm176.181,7.49H669.3V450.12H649.851v4.794h7.275v-.2c.98-.186,2.941-.118,4-1.206.451.078.225.4,0,.4.265,1.2.853-.382,1.6,0-.176.794-2.186.6-3.559.98h5.726c.51-.745-.059-1.7-1.363-1.4.52-1.686,1.873.49,3.6,0C666.92,454.483,666,454.659,665.175,454.914ZM60.923,10.833h2.8c.745-.451,1.5-.912,2.147-1.382H62.913C62.256,9.912,61.6,10.382,60.923,10.833Zm608.409,172.1c-.559-.078-1.147-.176-1.049.392a1.323,1.323,0,0,0-.343-.392v2.451a1.04,1.04,0,0,1,.343.343.382.382,0,0,1-.343.333v7.99c.549.353.98.49,1.392.216Zm0,11.932c-.451.127-.98.314-.647.873a1.7,1.7,0,0,0-.745-.343v2.059a7.311,7.311,0,0,1,1.392-.422Zm0-34.315a3.118,3.118,0,0,0-1.392.52v19.873a14.665,14.665,0,0,1,1.392.873Zm0,101.964-1.392-.323v22.716c.265.353.461.314,1.392.451Zm0-103.591c-.863.069-.52.137,0,.284Zm8.559-85.3a9.541,9.541,0,0,1-1.059,0V78.8a7.842,7.842,0,0,0,1.961,1.559V74.511c-.941,0-1.647-.1-.9-.863Zm-2.51-26.03h-2.6c0,.255-.078.52-.1.8a4.736,4.736,0,0,1-1.137-.8h-.98v.647a1.667,1.667,0,0,1,1.314-.206,1.157,1.157,0,0,1-1.275,1.5V65.56l.1.078h-.1v1.677h3.147a8.609,8.609,0,0,1-2.647-1.686c-.167-.98.726-.873.392-1.961.324.275,1.1.618,1.206,0,1.176.333-.235,1.284,0,1.961,1.128-1.853,1.3,1.118,2.7,1.549Zm-3.922,3.608c.127-.814.8-1.069,1.206-1.6.431.1.275.794.8.794-.039.9-.99.882-1.99.824Zm-2.128,30.844V81.59l-.255.059c.118-.98-.137-1.686-1.137-1.6v3.157h.343a2.364,2.364,0,0,0-.343.726v3.716a1.471,1.471,0,0,1,0,1.833v5.157a.667.667,0,0,1,.745.216,2.187,2.187,0,0,0-.745.755v6.647c.265-.716.775.373,1.392.265V98.728c-.412-.225-.824-.5-.647-1.069a2.794,2.794,0,0,0,.647-.382V82.718a1.147,1.147,0,0,0-.647-.265.755.755,0,0,1,.647-.4Zm0,204.712c-.6-.98-.569-.637-1.392-.2v4.667a2.657,2.657,0,0,1,1.392.775Zm6.049-86.532h-.745a5.877,5.877,0,0,1,0,1.52,2.11,2.11,0,0,0,.7-.441Zm0-99.316c-1.451.088-2.941-.98-4.794-1.206v5.765h4.794Zm-6.049,114.415V203.564h-1.392v13.108a5.482,5.482,0,0,0,1.392.284v-.824c-.284-.059-.461-.216-.255-.765a.815.815,0,0,1,.255-.039Zm0-89.659a11.551,11.551,0,0,1-1.392-.422v4.167a.98.98,0,0,1,.343.314l-.343.382v1.637c.088-.1.186-.216.343-.422a1.872,1.872,0,0,0,.4,1.206c-.255.069-.608.049-.745.245v.167c.314.069.735,0,.745.382-.373,0-.471.275-.745.373v5.5c.206-.275.735-.206.745-.667a1.4,1.4,0,0,1,.647.284Zm-.255-8.392a.9.9,0,0,1,.255.255V103.865a6.53,6.53,0,0,0-1.049-.2c0-.539,0-1.059-.343-1.167v1.2a10.992,10.992,0,0,0,1.137.765c0,.618-.51.784-1.137.824V109c.392.784-.088.676.343,1.873a1.383,1.383,0,0,1-.343,0v12.383c.471.127.912.726,1.392,1.039V120.67a.824.824,0,0,1-.647-.98h.647v-.647c-.539-.412-.941-1.392-.255-1.765Zm6.3-18.442a1.294,1.294,0,0,1-.294,0c.225.755.118,1.363.294,1.647ZM670.587,295.9v.343h.078a.529.529,0,0,0-.059-.343Zm-1.255-156.485c-.382-.451-.98.637-1.392,0v6.6c.255-.441.49.451,0,.5v.186c.128.2.343,0,.343-.167.48.765.186,1.039-.343.98v1.961a10.731,10.731,0,0,1,1.137.176,2.705,2.705,0,0,1-1.137.98v7.314a8.486,8.486,0,0,1,1.392.6V147.631c-.127-.088-.078-.206,0-.363v-6.863a.412.412,0,0,1,0-.7Zm6.049-52.5V85.776h-4.775v9.579c.363-.059,2.422,1.275,1.294,1.9.569,0,1.137-.059,1.206.4.637-1.226-.343-.98,1.6-1.2.226.882-.765.569-.794,1.2.559.294.912-.059,1.49-.4V87.806c-.863-.1-1.735-.49-2.7-.549C673.4,86.277,674.949,87.649,675.381,86.914Zm0,189.623h-4.775v17.648a2.039,2.039,0,0,0,.5-.755c-.157.176.314,1.7-.1,2.824H675.4Zm0-38.148h-4.775v19.7H675.4Zm-4.294,11.765c.324.078.392.4.794.4.078-.343-.157-.373-.4-.4,1.3-1.657.245,2.392,1.608,1.961-.912,1.206-2.039-.8-2-1.931Zm-1.755-32.471a3.922,3.922,0,0,1-1.392.059v42.07c.608,0,.824-.431,1.392-.49Zm0,78.649v-4.167c-.265-.049-.814,0-1.392-.059v8.147h.343a.725.725,0,0,1-.343.51v.922c.284-.647.745.137,1.392.255v-4.5a3.5,3.5,0,0,1-.647,0c0-.569.059-1.128-.4-1.2.274-.627.627-.225,1.049.118ZM350.833,3.99a2.4,2.4,0,0,0,2.373-.657h-2.373ZM670.685,95.659a.893.893,0,0,1-.1-.127v1.059a.98.98,0,0,1,.892.275c-.343-.324-.235-1.1-.794-1.206ZM66.589,6.686c-.6.48-1.186.98-1.8,1.431h1.8ZM237.084,3.333h-1.412a1.4,1.4,0,0,0-.186.284v.235c.059.078.2.127.451.137a1.824,1.824,0,0,1,1.147-.657ZM8.1,370.892a3.255,3.255,0,0,0-2.343,1.392,2.774,2.774,0,0,0,.127.274H6.47c.265-.2.578-.451.922-.265a2.7,2.7,0,0,1-.078.265h.824Zm235.85-364.5c2.392-.735,2.794,0,4,1.2-.6-.98.137-1.726-.4-1.961-.755.137-3.2-1.49-4.8-.794C244.124,4.813,242.81,5.706,243.947,6.392Zm30.226-1.049c.118.922.225,1.853.343,2.775h16.667c-.137-1.588-.265-3.186-.373-4.784h-.873a19.206,19.206,0,0,1,0,3.186c-.1-1.088-.216-2.147-.353-3.186h-.363c.167,1.353-.353.931-.578,0H273.938a6.257,6.257,0,0,0,.1.716,1.431,1.431,0,0,0-.843-.059,1.333,1.333,0,0,0,.98,1.353ZM241,3.333h-3.314C238.761,3.48,239.869,4.2,241,3.333Zm269.958,444.61v-.52H503.66C505.249,448.767,506.876,447.581,510.955,447.943Zm-122.092.4a1.088,1.088,0,0,0-.755-.922h-3.059c.647.853,2.824-.353,3.814.922Zm-2.01,1.8h-.52l-.167.069v.471a.912.912,0,0,0,.7-.343.412.412,0,0,0-.01-.2ZM505.7,448.816a11.564,11.564,0,0,0-2.333,0ZM651.076,10.833h1.314a.98.98,0,0,0,.275-.441c-.755-.088-.882.451-1.6.4C651.066,10.784,651.076,10.784,651.076,10.833Zm-417.659-.726a3.2,3.2,0,0,1-.118-.657h-.353c.176.245-.392,1.02.49.657ZM651.851,8.147h.225a.343.343,0,0,0-.225-.127ZM676.812,100.1v29.216a2.015,2.015,0,0,0,.255,0c.137.52,0,.726-.255.882v1.716a4.068,4.068,0,0,0,1.461.206c.451.078.216.4,0,.4v.814c-.745-.147-.373-1.412-1.461-1.216v1.137c.3.343.775.52.657,1.284a2.04,2.04,0,0,1,1.294-.4V117.65c-.726-.824-.98-1.814,0-2.579V100.865h-1.7a3.792,3.792,0,0,1-.235-.794Zm-1.451,30.226a6.01,6.01,0,0,0-3.1.186c-.216.892.765.578.8,1.206.451-.078.216-.4,0-.4.088-.578,1.2-.137,1.2-.8a1.961,1.961,0,0,1,.8,1.961c-1.078-.275-.775.824-1.2,1.2.2.676,1.157-.7,1.49-.059Zm0-3.461v-2.941h-3.186c-.392.431-1.637,0-1.49.98a.3.3,0,0,1-.1,0v8.128a12.749,12.749,0,0,0,.5-3.677c.922-.461,2.569,0,4.294.108v-2.3c-.4.686-1.343,1.176-1.892.6.275-.98.392-1.647-.4-2.4-.451.078-.225.4,0,.4-.647.627-1.275.147-1.961,0,.549-1.078,2.118-.7,3.6-.4-.461,1.118-.3,1.118.657,1.48Zm0-117.366h-4.53a1.069,1.069,0,0,0-.167.127c.157.9,2.49-.069,1.2,1.2,1.6-.833,2.088.98,3.5,1.48ZM259.173,10.863h.775c.3-.363.343-1.333-.637-1.275a3.324,3.324,0,0,0-.118,1.245Zm-19.7-.176a.343.343,0,0,1-.049.176h.216a2.4,2.4,0,0,0,.137-1.382h-.186a4.708,4.708,0,0,0-.1,1.177Zm435.9,131.072c-1.078.618-.353.98,0,1.873h0ZM607.526,10.833c.1-.147.274-.108.461,0h1.039c-.314-.088-.471-.333-.4-.8-1.128.392-1.3-.186-1.686-.539h-.686a2.569,2.569,0,0,0,.853,1.382ZM3.313,9.47v2.4A12.1,12.1,0,0,1,4.46,9.47ZM662.292,3.333H652.2c.98.206,1.961.422,2.873.657,1.343-.51,4-.4,4.4,1.2-1.529-.98-.98.657-1.618,1.353.98-.412,1.637.833,1.961.255-.422,0-.314-.52.4-.4a5.686,5.686,0,0,0,.2,1.726h7.245a28.275,28.275,0,0,0-6.226-4.128,1.441,1.441,0,0,1,.853-.657Zm7.039,305.6V303.8a6.321,6.321,0,0,1-1.392.49V430.4a4.145,4.145,0,0,0,1.392-.108V309.557a5.2,5.2,0,0,0-1.049-.127C667.44,308.989,668.567,309.116,669.332,308.93ZM657.861,6.539a1.882,1.882,0,0,0-.392.255.8.8,0,0,0,.392-.255ZM645.3,10.833a7.294,7.294,0,0,1-1.108-1.382h-.814a13.061,13.061,0,0,1,1.275,1.382ZM592.614,8.117h1.353v-2.1c-.3-1.137-.6-2.029-1.343-2.029a4.366,4.366,0,0,0-.049-.657h-2.52a11.636,11.636,0,0,1,2.559,4.784ZM575.81,5.99c-.382-.745,1.2-1.333,0-1.6-.167.373-.814.255-1.294.157v.559l.088.078h-.088v.6C574.653,5.647,574.957,5.735,575.81,5.99ZM677.087,411.109c.9-.333.294-.284-.255-.363V413c.627-.451,1.294-.863,1.961-1.284v-.529c-.647-.3-1.667.588-1.706-.078Zm.382-273.409a1.764,1.764,0,0,0-.657-.461v1.637h.255a1.96,1.96,0,0,1-.255.9V263.5a2.852,2.852,0,0,0,.657.294,1.51,1.51,0,0,1-.657.775V408.3a5.547,5.547,0,0,1,1.461-.382c1.108.48-.892.314-1.461.618v.549c.3.382.824-.7,1.461-.373a6.736,6.736,0,0,1-1.461,1.284v.363a4.3,4.3,0,0,0,1.961-.333V134.16c-.726.451-.775,3-.892,3.922C677.175,138.239,677.067,137.719,677.469,137.7ZM669.283,3.382H663.4c-.157.9.814.7.814,1.461,1.49-1.9,2.686-.922,5.088-.814Zm7.549,4.461a4.284,4.284,0,0,1,1.961.451V3.627a6.235,6.235,0,0,1-1.961-.255ZM671.851,1.96h1.618c-.353-.118-.745-.245-1.186-.353a1.383,1.383,0,0,0-.431.353ZM651.87,10.01c.6.069,1.471-.137,1.6.4a.582.582,0,0,0-.637.441h1.108c.833-.686.588-.775.127-1.382H651.89ZM480.954,6.863A1.137,1.137,0,0,0,479.7,8.117h1.255ZM10.559,313.038c0-.235.167-.3.275-.206v-.745C10.382,312.459,10.059,312.881,10.559,313.038ZM576.26,5.99c1.049,0,2.412,1.6,2.8-.8h-.8c-.029,1.882-1.3-1.078-2.049.8ZM295.38,10.833l-.088-1.382h-.5a13.2,13.2,0,0,0,.137,1.382Zm2.265,0c-.059-.451-.127-.912-.186-1.382h-.294c0,.471.069.931.1,1.382Zm70.306-5.765-.3.118a1.226,1.226,0,0,1,.3,0ZM508.151.784c-.294,1.765-3.549-.931-3.99,1.177h5.049C508.837,1.549,508.5,1.176,508.151.784Zm80.983,2.549h-.471C588.829,3.431,588.986,3.47,589.133,3.333Zm-6.52,3.059c.52-1.49-2.373-1.588-2.8-.8.814.431,1.637,1.922,2.8.8Zm-5.147-3.059h-1.578a.343.343,0,0,0,0,.255C576.486,4.225,576.917,3.784,577.466,3.333ZM511.778,6.392c1.49-1.461,4.451-.676,6.863-.5V4.549c-2.461-.2-5.03,0-6.941-1.216h-.98c.1.284.471.51-.118.657-1.284,0-2.608.1-3.108-.657h-.784a1.45,1.45,0,0,1,.294.255,15.412,15.412,0,0,0-6.4.4C503.935,5.147,510.023,3.588,511.778,6.392ZM6.862,10.1a17.51,17.51,0,0,0-3.52,2.108v2.3c1.333-1.373,2.745-2.677,4.147-3.99C7.529,10.108,7.676,10.088,6.862,10.1ZM47.148,4.461v.794c.98,0,1.235-.6,1.765-.98A1.833,1.833,0,0,1,47.6,3.921C47.569,4.294,47.344,4.372,47.148,4.461Zm-5.167,4.99H37.432a2.235,2.235,0,0,1-.637,1.382H40.01C40.667,10.4,41.324,9.931,41.981,9.451Zm-9.716,1.382h3.177q.882-.676,1.677-1.382h-3C33.491,9.9,32.883,10.372,32.265,10.833ZM7.245,9.686h0A6.667,6.667,0,0,0,8.068,10V9.51H6.862l.225.108a.52.52,0,0,0,.157.069Zm15,1.147h4.441q.98-.676,1.961-1.382H24.382Zm-10.883-.441a.98.98,0,0,1,.559-.98h-.716a.294.294,0,0,1-.245.147V9.412h-.255A1.382,1.382,0,0,0,11.362,10.392ZM5.754,353.068c0-.088.078-.147.118-.225H5.235A.794.794,0,0,0,5.754,353.068Zm3.7,12.442c.412.078.98,0,1.108.363a2.34,2.34,0,0,0,.275,0v-2.167c-.588-.225-.98-.392-1.382-.559Zm0,1.52a1.166,1.166,0,0,1,.706.049,1.9,1.9,0,0,1-.392-1.206H9.451ZM1.96,346.392v-3.48c-.49-.118-.431-.069-1.392.147-.726-.314.245-.431.8-.4-.176-.353-.353-.716-.8-.794,0-.294.8-.1,1.392.3v-.4a3.344,3.344,0,0,1-.588.1c-1.52-1.1-.392-1.157-.8-2.4H0v4.118c.059,0,.108.108.157.284a.353.353,0,0,1-.157.265v.98a1.325,1.325,0,0,0,.549,0c0-.627-.049-1.392.8-1.2A6.6,6.6,0,0,1,0,346.029v.157a1.961,1.961,0,0,1,1.961.206ZM54.246,10.833h.824c.922-.431,2.02-.863,3.039-1.382H56.472ZM1.754,350.264c-.755-1.49-.676-.48-1.755-.873v.7C.627,350.539,1.509,350.735,1.754,350.264Zm7.7,34.864a1.48,1.48,0,0,0,1.382-.1v-5.216c-.088-.1-.186-.206-.275-.323-.343-.078-.373.147-.4.392-.716-.333-.108-.667.676-.8v-2.471a4.814,4.814,0,0,1-.676.873c-2.265-.588,1.882-1.52,0-2.8,0-.451.294-.3.676-.118v-.853a.785.785,0,0,0-.275.176c-.814-.49-.353-.657.275-.784v-2.137a4.4,4.4,0,0,0-1.382-.206Zm-2.49,6.765a2.618,2.618,0,0,0,1.137.775v-1.108C7.921,391.873,7.735,392.167,6.96,391.893Zm379.1,56.864c-.8-.706-1.392-.353-2.02.078H386a.382.382,0,0,0,.059-.1ZM5.353,367.872v-.794c.98.108,0,1.49-.392,1.6A7.362,7.362,0,0,0,8.1,369.931V367.8a.98.98,0,0,1-.745.069c.618-1.539.392-.794-.794-.392a1.1,1.1,0,0,0-.8-1.206c.529-.98,1.373-.735,2.343-.529v-.98c-.294-.186-.588-.186-.745.284-.627-.147.353-.706-.392-.8.147-.578.726-.167,1.137-.1v-1.961l-.343-.324c-.235,1.961-2.814-.3-4.441.873v3.922h0c.343.078.382-.157.4-.4.618.451.147.559-.441.725v.686a2.294,2.294,0,0,1,0,.588C4.186,368.049,4.647,367.137,5.353,367.872Zm377.1,80.473c-1.2-.373-2.529.2-3.922.471h3.088C381.99,448.738,382.451,448.767,382.451,448.345ZM1.96,348.931v-1.422a1.186,1.186,0,0,0-.588.755A5.308,5.308,0,0,0,1.96,348.931ZM6.137,18.412a23.02,23.02,0,0,0-2.824,3.922v1.294c.7-1.333,1.422-2.628,2.167-3.922C6.264,19.961,7.568,18.343,6.137,18.412ZM1.96,25A23.109,23.109,0,0,0,0,30.961v.588A43.256,43.256,0,0,1,1.96,26.471ZM5.353,359.47c1.186.127,2.265,0,2.745.529v-1.4c-.392-.48-.3-.588,0-.569v-4.461a5.883,5.883,0,0,1-1.441-.725H6.578c.1.843-.873.627-1.226.98-.265-.51-.922-.627-1.3-.98H3.313v1.451a.981.981,0,0,0,.441,0c-1.088.853,1.039,1.127.8,0,1.853.667-.608,1.078-.4,2.4-.422.206-.667,0-.843-.363V359.4a3.156,3.156,0,0,0,.843-.3c.6-.431-.088.216-.843.824v2.069C4.225,361.774,5.039,361.372,5.353,359.47ZM294.066,9.461h-.284c0,.461-.069.98-.069,1.382h.3a13.5,13.5,0,0,0,.049-1.392ZM9.451,370.118c.441.049.892.088,1.382.108v-2.333a4.392,4.392,0,0,1-1.382-.235ZM498.141,0h-6.6c1.441.755,3.765.627,5.4,1.186C498.552-.1,501.18,1.568,498.141,0ZM478.1,0h-4.226A5.147,5.147,0,0,0,478.1,0ZM296.772,1.96c0-.608-.059-1.275-.1-1.961h-.422a12.628,12.628,0,0,0,.4,1.961Zm39.07,0a10.157,10.157,0,0,0,1.775-.755c-5.461,1.814-11.951-.127-18.363-1.186h-5.314c3.206.51,6.657,1.343,10.03,1.961Zm250.213,0h2.069a1.157,1.157,0,0,1-.706-.755A1.51,1.51,0,0,0,588.163,0h-1.392c-1.157.216-2.3.431-2.157,1.961h.3a3.666,3.666,0,0,1,1.137,0ZM354.029.784A3.384,3.384,0,0,1,353.862,0h-.98a1.715,1.715,0,0,0,0,1.186c-1.5.1-2.294.6-2.8,0,.245,0,.471-.059.4-.4-.794.235-1.049.706-1.039,1.157h2.53A3.853,3.853,0,0,1,354.029.784ZM518.641,450.149H499.17v4.765h19.471ZM591.026.784c.6-.176.441-.431.225-.784h-1.177c.186.118.363.245.549.382a2.51,2.51,0,0,1-1.706,1.578h3.118a8.814,8.814,0,0,0-1.01-1.177ZM497.2,448.836h3.206a9.028,9.028,0,0,0-3.206-.02Zm173.407-17.53v17.54H675.4v-19.7h-4.794v1.314a10.475,10.475,0,0,0,2.1.265,2.735,2.735,0,0,1-2.1.579ZM675.567,0h-2.177c1.775.98,3.922,1.618,5.392,2.882V1.9A18.411,18.411,0,0,1,675.567,0ZM6.156,1.588c2.657.186,5.461.3,8.285.353h5.3c6.863-.118,13.5-.716,17.981-1.961H25.765c-.108.824-2.814,2.2-2.392,0H21.824C16.745,1.235,11.039,1.1,5.353.362V-.02h-.98C4.147.656,3.921,1.3,3.764,1.96H5.607a2.206,2.206,0,0,1,.549-.373ZM494.405,448.816h1.412c.059-.775-1.314-.118-.873-1.275,1.824-.382,5.951,1.177,8.03-.118H489.6a23.472,23.472,0,0,0,3.343,1.314A3.922,3.922,0,0,1,494.405,448.816ZM37.687.98a1.049,1.049,0,0,0-1.412.98H44.04c-.471-.775-1.637-.873-3.02-.755a.814.814,0,0,1,.157-.412C41.618.519,42.059.264,42.51,0H37.785a1.677,1.677,0,0,0,.2.843ZM0,1.843v.314a1.265,1.265,0,0,1,.157-.2ZM676.832,453.13v3.2H657.861a2.252,2.252,0,0,0,0,.422.981.981,0,0,1-.372-.422h-110.1c-1.569.4-3.1,0-4.4.4a11.7,11.7,0,0,0-2.49,1.52H678.783v-5.01C678.175,452.757,677.9,453.051,676.832,453.13ZM99.022,1.96C100.149,1.284,101.355.647,102.59,0H100.4A10.3,10.3,0,0,1,97.61.647V0H63.05a1.422,1.422,0,0,0-.235,1.961ZM274.86,10.853h16.559a13.2,13.2,0,0,0-.137-1.382h-16.6ZM290.076,1.96c-.088-.539-.167-1.226-.245-1.961h-.3c.088.647.176,1.3.245,1.961Zm-38.452,0L251.33,0h-.6c.078.647.167,1.294.255,1.961Zm43.138,0c-.059-.647-.127-1.294-.186-1.961h-.451c0,.647.088,1.294.137,1.961Zm-46.521,0c-.118-.647-.235-1.3-.363-1.961h-.314a18.059,18.059,0,0,0,.186,1.961Zm-15.6,0A15.553,15.553,0,0,0,232.427,0h-.6c.1.657.186,1.3.284,1.961Zm-13.549,8.892h.255c0-.441-.1-.9-.127-1.382h-.7a4.02,4.02,0,0,0,.569,1.363Zm-42-5.667h1.2c-.343-1.863,1.324.275,1.206-.794-.529,0-.363-.706-.8-.8a2.02,2.02,0,0,1-1.235,1.206c.118-.657-.539-1.088-.8-.4C177,4.48,177.161,4.725,177.093,5.186Zm-7.206-.794c-1.314.647-1.529-.1-3.206,0C166.759,5.823,169.945,6.088,169.886,4.392Zm230.987,447.15a2.334,2.334,0,0,0-1.059-1.392h-2.745c-.686,1.128-3.157,1.206-5.03,1.392-1.618.167-3.775.392-5.883.529v2.843h19.452V450.12h-3.284a5.441,5.441,0,0,0,2.137.6C403.648,452.2,401.971,450.993,400.873,451.542ZM161.082,4.794c-.382,1.49,5.628.98,4,0-1.373.412-3.2-.3-4.9-.186V6.235a.353.353,0,0,1,.127.157.275.275,0,0,0-.127,0v.333h.127C160.974,6.549,160.249,4.9,161.082,4.794ZM207.5,3.333a2.314,2.314,0,0,1,2.02,1.461,3.921,3.921,0,0,1,.127-1.461Zm53.3,7.5h.441c-.108-.461-.206-.922-.3-1.382h-.451A7.61,7.61,0,0,0,260.791,10.833Zm-28.54-1.382A5.275,5.275,0,0,0,232,10.833h.667c-.059-.608-.176-1.118,0-1.382Zm18.932-6.118c.206,1.569.422,3.177.637,4.784h.706c-.216-1.588-.451-3.186-.686-4.784Zm-6.079.255a2.539,2.539,0,0,1-.755-.255H243.32C244.045,3.755,244.5,4.461,245.1,3.588Zm3.422,4.53h.657c-.235-1.618-.48-3.226-.745-4.784h-.559c.245,1.569.48,3.206.686,4.784ZM197.819,3.4l.627-.069h-.627ZM364.49,451.542c1.343,1.51,1.716-.059,3.51,0v-1.392H348.5v4.765h19.452v-1.961l-1.108-.167a2.942,2.942,0,0,1,1.108-.676v-.431c-.863.98-2.716.892-3.922,1.51-1.961-.333.931-1.4-.4-2.01.343-1.167.98.52,1.961,0,1.324.3-.657.49-1.147.363ZM194.5,1.96h2.128a2.069,2.069,0,0,0-2.128,0ZM8.1,403.324c-.412.225-.833.422-1.137.578-1.137-.4,1.265-.373,0-1.2-.578.529-.98,1.824-1.961.8.8,0,2.3-2.1,3.137-.51v-4.235a1.336,1.336,0,0,1-.343-.069c.52-.529.245-1.206-.4-1.6.069-.676.392-.245.745.118v-4.471a3.363,3.363,0,0,1-1.961,0c.7-.814-.294-.784.4-1.6.8-.235,1.206.922,1.206-.1H3.313V410.7H8.1ZM4.96,407.109c-.392,0-.314.49-.4.8-1.2,0-1.069-2.392.4-2.01,0,.392-.49.314-.8.4a2.873,2.873,0,0,0,1.2.8c-.069.451-.4.225-.392,0Zm367.657,41.707a.56.56,0,0,1-.127-.078c-.088-.892.539,0,.922.078h.078c.108,0,.186-.147.2-.471-.333-.6-1.284-.588-1.961-.8-.9.088.2.549.118,1.275Zm2.667-.471a.481.481,0,0,0-.235.471H376.3a3.782,3.782,0,0,1-1.059-.471ZM8.1,429.149H3.313v19.7H8.1Zm-4.343,9.187c.98-1.6,2.686.294,4,0-1.461.824-2.324-.088-4,0ZM96.62,3.608c.118-.1.255-.186.373-.275H84.815V8.117H95.257a17.863,17.863,0,0,0,1.363-4.51ZM75.129,9.49H71.364a2.941,2.941,0,0,1,.1,1.382h.863a.844.844,0,0,0,0-.314c1.137.627,2.118-.02,2.8-1.108ZM1.96,8.343a25.108,25.108,0,0,0-.588,4.451c-.98.078-.98,1.059-1.353,1.755v5.883A15.461,15.461,0,0,0,1.98,16.157ZM28.922,6.549,26.471,8.117h2.451ZM67.335,9.49a.245.245,0,0,0,0,.078s.078-.049.118-.078Zm526.142,1.382h2.471a1.341,1.341,0,0,1,.275-.441,3.7,3.7,0,0,1-.98-.98h-2.255c.167.461.343.931.49,1.382ZM.548,182.926c.245,0,.48-.059.4-.392a5.638,5.638,0,0,1-.98-.108v1.186a2.55,2.55,0,0,0,.549.118Zm.8,1.961c-.186-.353-.784-.373-1.353-.235v2.814l.549.216a5.294,5.294,0,0,1,.8-2.745ZM.98,177.73c-.559-.108-.451-.882-.794-1.206.569.1.667.657,1.2.8a2.265,2.265,0,0,0-.4-1.608,1.549,1.549,0,0,0-.98.294v1.353C.333,177.857.862,178.436.98,177.73Zm.4,27.618c.235-1.078-.52-1.176-1.353-1.186v.637c.49-.078.657-.02,1.324.549Zm0-30.393c.059-.471-.069-1.137.4-1.206,0,.225.1.294.186.294v-2.471c-.686-.461-1.618-.833-.98-.206.314.088.471.333.4.8a1.451,1.451,0,0,1-1.353.373v.8a1.961,1.961,0,0,1,.549.422.98.98,0,0,1-.549.108v.98a1.853,1.853,0,0,0,1.314.069Zm.578,37.05V210.79l-.186.137c0-.52-.51-.559-.4-1.206H1.96v-.539A5.882,5.882,0,0,1,0,208.633v1.912H.156A.657.657,0,0,1,0,210.79v1.284c.471-.088.892-.755,1.755-.676a2.637,2.637,0,0,0,.206.608Zm0-45.217v-.755l-.186.078c-.088-.441-.441-.618-.8-.794-.216.578.471,2.069-.4,1.961-.049-1.343-1.127-1.961,0-2.8-.245,0-.471-.059-.392-.4A.49.49,0,0,0,0,163.73V167.7a3.235,3.235,0,0,0,1.353.412,5.882,5.882,0,0,1,.608-1.324ZM1.774,193.74a5.765,5.765,0,0,0-.794-3.608.8.8,0,0,0,.98-.627v-.98c-.578,0-.618-.578-.98-.814-.3.324-.627.647-.98.98v.647a2.567,2.567,0,0,0,.549,0,1.176,1.176,0,0,1-.549.51v1.333a4.246,4.246,0,0,1,.98.127c0,.353-.569.647-.98.98v.98l.157.1c-.108-1.765,1.245.108,1.6.373Zm.186-23.471v-.216c-.392-.167-.529-.353-.98.069-.51-.98.206-1.255-.4-1.608,0,.363-.216.441-.549.451v.647C.637,169.995.98,170.916,1.96,170.269Zm-.588,10.657c-.765.373,0,.98.588,1.059v-.745C1.294,180.7.745,178.916,0,178.5v.412a.461.461,0,0,1,0,.422V182.2c1.108.235-.078-1.8,1.353-1.275Zm1.961-16.8v.667a8.014,8.014,0,0,0,.441-.677,3.16,3.16,0,0,0-.461.01Zm-1.373-1.6v-.4c-.775-.088-1.088-.637-1.392-1.206.412.422.814.206,1.392,0V155.71H1.774a1.216,1.216,0,0,1,.186-.8v-1.755a7.392,7.392,0,0,0-1.961.98v.774a8.616,8.616,0,0,0,1.755-.373C.9,154.71.686,155.553,0,155.886v.7l.157-.118a.647.647,0,0,1,.151.527.647.647,0,0,1-.308.454v3.2a1.108,1.108,0,0,1,.157.255L0,161.132v1.2a9.4,9.4,0,0,1,.98-.637C.725,162.23,1.352,162.465,1.96,162.524Zm-1.8,40.825L0,203.123v.5C.078,203.6.137,203.535.156,203.348Zm5.2-29.226c-.735-.637-1.49-.127-2.039-.118v2.118h0C3.117,174.514,5,175.1,5.353,174.122Zm-4.8,42.835c.255.873-1.127,1.275.4,1.206.108-.48.1-2.235.98-1.961v-.98a2.293,2.293,0,0,1-.588-.284c.059-.471-.069-1.137.4-1.206h.186v-.559a1.961,1.961,0,0,1-1.382.559c.118-.245.98-1.539,0-1.6-.706.833.324,1.51-.392,1.961H0v1.961a5.046,5.046,0,0,0,.549,0c-.255.255-.422.4-.549.51v.559a.48.48,0,0,1,.549-.167ZM.156,151.71a2.528,2.528,0,0,1-.157.324v1.5a3.478,3.478,0,0,1,.549.176c-.216-.588.431-2.069-.392-2Zm6,16.412c.127.922-1.157.441-1.2,1.2.539.127.765.569,1.6.4C6.49,169.122,6.7,168.24,6.156,168.122ZM4.2,171.72c.451,0,.618.588.8,0-.8,0-.51-1.088-1.608-.8a.774.774,0,0,1,0,.088v2.02c.461-.176.167-1.176.765-1.3ZM1.96,202.74v-.775a.647.647,0,0,1-.186.176c-.216-1.245-1.677-1.265-1.6-2.8.745-.373,1.333,1.206,1.6,0a7.3,7.3,0,0,0-1.6-3.6c.794,0,.5,1.088,1.6.8a4.353,4.353,0,0,1,.186-.628v-1.471c-.275.127-.755-.108-.98-.3-.882.578.51.98-.4,1.2-.1-.422-.275-.294-.549-.147v1.784a4.745,4.745,0,0,1,.98,1.167c-.343.069-.373-.157-.4-.4-.2.225-.147,1.167-.549,1.8v3a4.5,4.5,0,0,0,1.9.2Zm1.373,9.441v.98a.794.794,0,0,0,.441-.206c.294-.725-.059-.774-.461-.774Zm0-6.863h0v.382c.216-.147.294-.3.02-.353Zm-1.6,1.2a1.292,1.292,0,0,0,.186-.078v-.549c-.157.118-.245.3-.167.657Zm.225,12.951a7.852,7.852,0,0,0-.98-.108c-.118.245-.98,1.539,0,1.6.176-1.608.52-.127.98.265Zm0,5.883v-.314a.539.539,0,0,0-.186.294,1.348,1.348,0,0,0,.186.049Zm0,3.3v-.843a1.255,1.255,0,0,1-.588-.078c.471-.853-.069-.9.588-1.431v-.147A3.48,3.48,0,0,0,0,226.731v.314a5.657,5.657,0,0,1,1.961,1.637ZM6.578,315.8c-.745.226-1.961-.245-3.245-.539v.461c1.275.52,2.431,1.294,3.226.108ZM0,311.057v.363H.156C.107,311.293.048,311.165,0,311.057Zm9.451,6.677c.686,0,.578.755,1.108.9.167-.98-.726-.863-.4-1.961a3.208,3.208,0,0,1-.706,0ZM4.549,244.2c.255-1.294-.451-1.255-1.245-.98v.539a2.216,2.216,0,0,0,.843-.373c.1.3.02.735.412.794Zm4.9,71.571a3.824,3.824,0,0,0,1.382-.98v-.118c-.373-.108-.275-.686-.676-.784-.078.294-.3.441-.706.4v.6a2.235,2.235,0,0,0,.314.608H9.451ZM8.1,248.438v-1.373C7.46,247.418,7.98,247.987,8.1,248.438ZM.98,235.771a7.6,7.6,0,0,0,.98.363v-1.274c-.814-.265-.216-.882,0-1.588V232.5a1.1,1.1,0,0,0-.186-.324l.186.088v-3.108c-.608,0-1.235.676-1.961.716v1.451l.549.049c-.059.265-.333.3-.549.422v2.392a1.039,1.039,0,0,0,.549,0c-.069-.324-.4-.4-.392-.8-.373-.726,1.108.824.794,1.961-.343.078-.373-.157-.4-.4s-.275-.353-.549-.4V236.5C.539,236.487,1.068,236.447.98,235.771Zm2.363,3.922v1.226a.647.647,0,0,0,.441-.294,4.942,4.942,0,0,0-.471-.98Zm-1.961-.667a.843.843,0,0,1,.588.314v-2.265a3.921,3.921,0,0,0-1.961,0v3.686a4.412,4.412,0,0,0,1.343-1.784ZM8.1,314.714H7.666a.677.677,0,0,0,.431.245Zm1.353-61.129c.4-.412,1.373-.52.314-.98a2.7,2.7,0,0,1-.314.333ZM8.1,316.332a1.176,1.176,0,0,0-.745.3c.265.078.627.049.745.255Zm2.461-71.757a.892.892,0,0,1,.275-.539v-.284c-.373.373-1.029.6-.275.824ZM5.353,315.038a.922.922,0,0,0,0-.343h-.6A.708.708,0,0,0,5.353,315.038ZM8.1,317.381v-.343C5.274,317.087,6.205,317.724,8.1,317.381Zm-4.745-75.6c.245.225,1.9.931,1.961,0-.363-.108-1.059-1.775-.392-1.608,1.843.216.422,1.363,1.6,2.4H4.96c-.324.912.441,2.686.794,1.608-.245,0-.471-.059-.4-.4.343-.6,1.294-.578,1.961-.8-.559-1.177-.108-1.588.745-1.451v-.539c-.314-1.3-1.735.176-1.961-1.216,1.294-.284,1.294-1.255,0-.392.382-.471.422-.775.314-.98H4.441a1.961,1.961,0,0,1,.118.588c-.186-.216-.363-.412-.539-.588H3.313v.627h0C4.9,239.751,4.382,242.016,3.352,241.781Zm-1.392-22.6v-.98A7.844,7.844,0,0,1,0,218.633v.451a1.09,1.09,0,0,1,.157-.118,2.676,2.676,0,0,0,1.8.216Zm0,93.189v-2.843a4.4,4.4,0,0,0-.588,2.3C1.529,313.185,1.715,313.077,1.96,312.371Zm0-95.414v-.539c-.98,0-.412,1.431,0,1.235v-.333c-.137,0-.235-.127-.186-.363ZM.548,312.234a2.774,2.774,0,0,1-.549.294v.98a1.628,1.628,0,0,1,.794.451C.5,313.126,1.313,312.753.548,312.234Zm.245,1.686a1.334,1.334,0,0,0,.157.314.785.785,0,0,0-.157-.314Zm.98-6.863a.98.98,0,0,0,.186.618V306.3A2.245,2.245,0,0,0,0,306.194v1.961c.392-.588,1.167-.765,1.755-1.128Zm9.079,43.58v-1.765c-.686-.167-1.333.343-1.078,1.755a4.414,4.414,0,0,1,1.059-.02ZM1.96,328.322v-.167c-.108-.078-.069-.2,0-.343v-.8c-.667-.059-1.853.412-1.784-.363a6.246,6.246,0,0,1,1.784.069V325.5H1.774a.589.589,0,0,0,.186-.059v-.784c-1.108-.265-1.52.167-1.961-.353v.716c.441.167.882.343.98.882a3.774,3.774,0,0,1-.98,0v2.431a3.755,3.755,0,0,0,1.961-.01ZM.98,113.728c-.569,0-.588.549-.98.765v.216C.725,114.473,1.294,113.924.98,113.728Zm0-11.667a2.608,2.608,0,0,0-.98-.1v.667C.49,102.61.872,102.493.98,102.061Zm.8,231.379C.95,334,.49,334.372.029,334.725v1.069a3.638,3.638,0,0,0,1.726-2.343ZM.548,125.689a6.078,6.078,0,0,1,1.412-.873v-.755C.882,124.356.245,125.552.548,125.689Zm.431-8.412c-.078.451-.441.627-.794.8.745-.706-.48-1.176.392-1.961a4.47,4.47,0,0,0-.549.137v3.461C1.088,119.611,1.96,117.944.98,117.277Zm9.883,227.457v-.382a.735.735,0,0,0-.275.275.372.372,0,0,1,.245.137ZM6.941,203.721c.078-.49.441-.255.794,0a5.333,5.333,0,0,1,.343-.647v-1.108c-.863.51-1.422,1.255-1.118,1.784ZM3.313,319.038v.1a.412.412,0,0,1,0-.1ZM9.451,32.755c.412-.294.324-.98,0-1.392Zm0,169.544a3.039,3.039,0,0,0,1.108-.931,3.256,3.256,0,0,0-1.108.078ZM1.96,338.9c-.422.118-.676.49-.186.157l.186.088Zm7.49-314.93a9.51,9.51,0,0,1,1.382-1.52v-3.6c-.471.353-.98.716-1.382,1.078Zm0-14.167A1.961,1.961,0,0,0,9.8,9.451H9.451ZM9.8,361.068c.108.784.647,1.137,1.069,1.608v-1.745a1.794,1.794,0,0,1-1.069.137ZM9.49,342.44a2.048,2.048,0,0,1,.706.578c-.2-.843.382-.9.676-1.245v-.588a1.3,1.3,0,0,1-1.382.323ZM7.784,25.981c.118-.108.216-.216.314-.324V21.02a24.511,24.511,0,0,0-4.784,5.451V29.2H6.862a3.4,3.4,0,0,0,.922-3.216ZM1.96,336.43c-.3.5.127,1.735-.588,1.824A11.5,11.5,0,0,1,0,337.529v1.559a10.431,10.431,0,0,0,1.961-.578Zm7.51,14.226h.167l-.167-.049Zm0,7.53c.51,0,.912-.245.706-1.118.265.176.529.353.676.245v-1.128c-.5-.059-.98-.118-1.382-.2Zm-8.118-17.53a.844.844,0,0,0,.588.245V339.7C1.588,339.891,1.078,340.136,1.352,340.656ZM.98,347.068a6.259,6.259,0,0,1-.98,0v.7a1.128,1.128,0,0,0,.98-.7ZM9.8,350.607H9.666l.147.049a.167.167,0,0,1-.01-.059Zm-.353-315c1.265,2.794-.412,6.255.3,8.471a7.589,7.589,0,0,0,1.078-.98V32.314a9.569,9.569,0,0,0-1.382,1.294Zm0,301.45a1.96,1.96,0,0,1,1.108.392.98.98,0,0,1,.275-.745v-.98l-.275.167c-.088-.314,0-.794-.4-.8.3,1.137-.422,1.235-.706,1.775Zm-1.353-4.7a1.363,1.363,0,0,0-1.539.667,1.873,1.873,0,0,1-1.206-.4c.471,1.431,1.608.98,2.745,1.078ZM6.96,334.254v.137h.726C7.588,334.2,7.421,334.077,6.96,334.254Zm2.49-90.8c.676.6.98.108,1.382-.353v-.755c-.088-.059-.186-.108-.275-.176a2.824,2.824,0,0,1-.794,1.206c0-.167-.2-.343-.314-.216ZM10.833,71.119V69.374a1.8,1.8,0,0,1-.275-.137C9.921,70.021,10.147,71.011,10.833,71.119ZM9.451,325.224a3.813,3.813,0,0,0,1.382-.51v-.255c-.667-.98-.265-.98-1.069.186,0-1.284-.059-1.137-.314-.833Zm0,22.295a1.538,1.538,0,0,1,.706.343,1.961,1.961,0,0,1,.4-1.206,3.421,3.421,0,0,0-1.108,0Zm-4.1-27.677c-.471-.069-1.137.069-1.2-.4.314-.088.784,0,.8-.4a1.794,1.794,0,0,0-1.647.539v1.431h0C3.607,320.224,5.225,320.773,5.353,319.842Zm4.1,11.02a2.591,2.591,0,0,0,.314-.216,1.619,1.619,0,0,1-.314.078ZM4.156,212.956c-.245,0-.471.059-.4.4,1.373-.088,1.206-1.324,1.961,0-.451-2.324,0-3.628,1.206-1.608-1.167-.147-.882,2.128.392,2.4,1.069-.98.412-1.882.745-3v-.216a5.255,5.255,0,0,1-2.745-1.588,7.764,7.764,0,0,0-2.039.637v1.677C4.215,211.77,4.833,212.751,4.156,212.956ZM9.451,334.715c.431-.147.912-.245,1.382-.363v-.931c-.471-.2-.98-.422-1.382-.608Zm-6.137-9.8v.118h0a.637.637,0,0,0,0-.108ZM1.96,322.2v-1.824a.608.608,0,0,0-.186-.137,14.112,14.112,0,0,1-.794,1.6c-.716-.157-.892-.451-.98-.775v.784a3.079,3.079,0,0,0,1.961.353Zm-1.392.833c-.059.294-.294.412-.549.51v.343c.618,0,1.363-.843.529-.853Zm2.8,8.824c.314.088.794,0,.8.4,1.461-.98,2.765-.814,3.922-.98v-1.471a.892.892,0,0,0-.343,0c0,.627.059,1.382-.794,1.2,1.275-2.941-.931.98-1.961-1.6,1.853-1.726.373-.922.794-3.206a15.385,15.385,0,0,1-2.441-.52v1.343a2.725,2.725,0,0,0,2.039-.422,2.765,2.765,0,0,1-.794,1.2c-.343-.48-.755-.176-1.245-.137v2.941c.461.235.569.706,0,1.245ZM0,107.032v.1c.049-.088.1-.176.157-.265Zm1.353,216.81a.883.883,0,0,1,.588.431v-.628A.4.4,0,0,0,1.352,323.842Zm4-122.494c-.549-.088-1.48.657-2.039.412v.716a3.863,3.863,0,0,0,2.039-1.127Zm-1.177-1.118H3.313v.912a3.676,3.676,0,0,0,.863-.912ZM1.96,143.455v-.225A4.52,4.52,0,0,0,0,142.964v.608a3.823,3.823,0,0,0,1.961-.118ZM0,128.748v.716a.441.441,0,0,1,0,.2v1.147a7.472,7.472,0,0,1,.98-.755c0-.765-.578-.912-.98-1.265ZM.98,139.66a3.224,3.224,0,0,0-.98-.294v2.275H.156c-.588-1.441,1.1-.716.824-1.941ZM0,121.807v.588a3.137,3.137,0,0,1,.98-.314.892.892,0,0,1-.98-.275Z" transform="translate(0.03 0.02)" fill="#8b755b" fill-rule="evenodd"/>
    </g>
  </g>
</svg>
