<svg xmlns="http://www.w3.org/2000/svg" width="68.122" height="78.298" viewBox="0 0 68.122 78.298">
  <g id="Layer_2" data-name="Layer 2" transform="translate(0.001 0.004)">
    <g id="Layer_1" data-name="Layer 1" transform="translate(-0.001 -0.004)">
      <path id="Tracé_4758" data-name="Tracé 4758" d="M63.742,71.142c-2.9-3.455-7.3-6.69-12.164-12.5a26.129,26.129,0,0,1-5.693-9.147,11.653,11.653,0,0,1-3.893,2.433,38.706,38.706,0,0,1-14.305,1.362,11.97,11.97,0,0,1-7.3-3.065,26.2,26.2,0,0,1-4.525,9.05A67.34,67.34,0,0,1,4.721,71.044a7.566,7.566,0,0,0,4.355-2.433A14.767,14.767,0,0,1,15.5,64.184,14.889,14.889,0,0,0,21.386,59.1a12.554,12.554,0,0,1-.462,3.26,12.724,12.724,0,0,1-2.433,3.528,8.636,8.636,0,0,0,2.8-2.263,14.6,14.6,0,0,0,2.068-3.333,23.015,23.015,0,0,1-2.433,8.856,18.3,18.3,0,0,0-1.9,8.71,19.463,19.463,0,0,1,2.092-5.814A30.629,30.629,0,0,1,29,63.624a9.731,9.731,0,0,0,3.43-3.893,34.973,34.973,0,0,0,.268,4.355,29.546,29.546,0,0,1,.17,4.428,17.711,17.711,0,0,1,2.19-5.328c1.435-2.092,1.362-2.822,1.362-2.822a37.052,37.052,0,0,1,3.26,8.783,40.872,40.872,0,0,0,3.26,9.147s-.73-6.69-.827-11.313a50.676,50.676,0,0,1,.268-7.3,13.989,13.989,0,0,0,2.9,3.82,13.089,13.089,0,0,1,2.9,3.893A8.977,8.977,0,0,0,47,62.773c-1.265-1.9-.73-2.9-.73-2.9a14.451,14.451,0,0,0,3.26,3.625c2.19,1.7,8.685,3.8,12.407,7.493a21.312,21.312,0,0,0,6.179,4.671,28.391,28.391,0,0,1-4.379-4.525ZM6.035,22.047S5.5,23.531,7.373,25.088s5.45.146,5.45.146-.73.438-.584,1.022a1.825,1.825,0,0,0,.851.9A4.866,4.866,0,0,0,8.225,29.37c-1.338,2.676.487,6.593,3.26,6.666a3.576,3.576,0,0,0,3.43-2.846,3.284,3.284,0,0,0,2.968,1.143c1.995-.195,2.433-1.046,2.433-1.046a2.919,2.919,0,0,0,3.284,3.43,2.627,2.627,0,0,0,2.433-1.265A17.03,17.03,0,0,1,27.979,43.8a20.168,20.168,0,0,1-1.825,6.058,15.521,15.521,0,0,0,3.163-6.228,8.539,8.539,0,0,0,0-4.866A14.743,14.743,0,0,1,31.628,44.6a10,10,0,0,0,1.752,4.428,24.864,24.864,0,0,1-.292-5.766A6.861,6.861,0,0,1,34.4,40.1a8,8,0,0,0,0,3.163,7.3,7.3,0,0,0,1.143,2.433,10.51,10.51,0,0,1,.146-2.992,7.444,7.444,0,0,1,1.143-2.822,10.753,10.753,0,0,0,.827,5.4,11.994,11.994,0,0,0,3.309,4.744,32.381,32.381,0,0,1-1.46-5.425,16.665,16.665,0,0,1,1.557-9.342l.195-.438c1.046,1.265,2.725,2.433,3.747,1.679,1.508-1.143-.706-4.063-.706-4.063a4.233,4.233,0,0,0,2.433-.511,4.136,4.136,0,0,0,1.411-2.238,1.873,1.873,0,0,0,1.922,1.533,1.922,1.922,0,0,0,1.971-1.411,4.549,4.549,0,0,0,1.143,2.433c.876.754,4.257,1.776,5.012-1.216s-1.825-3.065-1.825-3.065a1.508,1.508,0,0,0,.316-1,1.338,1.338,0,0,0-.633-.9,3.479,3.479,0,0,0,1.63-.584.8.8,0,0,0,.268-.949,2.919,2.919,0,0,0,3.5-.949,2.773,2.773,0,0,0,0-3.625,2.6,2.6,0,0,0,2.992-2.676c.243-3.114-1.8-4.257-3.893-3.893a3.82,3.82,0,0,0-2.749,2.433s-.438-1.776-1.46-2.287a4.16,4.16,0,0,0-2.092-.389s.8-.973-.73-1.825a2.822,2.822,0,0,0-2.871,0s.389-.949-.706-2.287A4.866,4.866,0,0,0,46.639,7.62s1.46-.949.195-1.533a3.017,3.017,0,0,0-2.433,0s.706-1,0-1.265a1.241,1.241,0,0,0-1.022,0,1.606,1.606,0,0,0-1.7-2.092A2.433,2.433,0,0,0,39,4.312s-.584-1.192-2.676-.706a3.309,3.309,0,0,0-2.287,2.871S33.769,5.455,31.75,5.09a4.4,4.4,0,0,0-3.309.56,1.387,1.387,0,0,0-.584-1.241,3.722,3.722,0,0,0-2.019-.122,2.846,2.846,0,0,0,.487-1.9A3.5,3.5,0,0,0,21.9.176c-2.433.73-1.825,2.579-1.825,2.579s-.73-.535-2.7,0-2.044,3.211-2.044,3.211a6.131,6.131,0,0,0-6.106,0C5.913,7.815,6.473,9.98,6.473,9.98a3.893,3.893,0,0,0-4.866.681,3.284,3.284,0,0,0,0,4.866,2.871,2.871,0,0,0-.973,4.379,5.279,5.279,0,0,0,5.4,2.141ZM28.758,42.215a28.609,28.609,0,0,0-.462-4.306,20.12,20.12,0,0,0-1.314-3.674A8.32,8.32,0,0,1,28.9,37.763a13.235,13.235,0,0,1-.146,4.452Zm3.528-1.776a11.629,11.629,0,0,0,0-3.357,6.593,6.593,0,0,0-1.07-2.846,6.641,6.641,0,0,1,.535,1.922,8.831,8.831,0,0,1-.292,2.433,4.306,4.306,0,0,0-.924-1.922A18.976,18.976,0,0,0,28.1,34.357a5.936,5.936,0,0,0,2.749-.778,2.433,2.433,0,0,0,1.508-1.946,7.3,7.3,0,0,1,.779,3.309A23.817,23.817,0,0,1,32.285,40.439Zm6.52-4.866a35.494,35.494,0,0,0-.535,4.866,20.752,20.752,0,0,1-.924-4.525,47.381,47.381,0,0,1,0-4.866l-.389,1.995-.462-1.265a20.169,20.169,0,0,1-.389,3.99,23.039,23.039,0,0,1-1.387,3.455,14.086,14.086,0,0,0,.17-4.6A13.21,13.21,0,0,0,33.575,30a3.065,3.065,0,0,0,1.922.243,3.625,3.625,0,0,0,1.849-1.46,3.26,3.26,0,0,0,.754,1.752,4.136,4.136,0,0,0,2.068,1.022,12.919,12.919,0,0,0-1.241,4.063Zm11.215-18.2c3.528,1.995,2.433,4.063,2.433,4.063s.341-1.971-2.968-3.163a4.987,4.987,0,0,0-5.45,1s2.457-3.844,5.985-1.849ZM43.793,32.8s1.484,1.971.341,2.433a2.433,2.433,0,0,1-2.9-1.508c-.462-1.095,0-1.63,0-1.63s.535,1.07,1.387,1.192A1.046,1.046,0,0,0,43.793,32.8ZM34.061,11.586a4.428,4.428,0,0,1,4.525,3.844,3.406,3.406,0,0,1,3.309-.389c1.679.851,1.07,1.922,1.07,1.922s0-.924-1.533-1.216S38.2,17.035,38.2,17.035s-.146-3.625-2.992-4.306-3.382,2.676-3.382,3.211a10.1,10.1,0,0,0,.146,1.387,1.922,1.922,0,0,0-2.287-.924c-1.606.462-.779,2.433-.389,2.773A17.248,17.248,0,0,1,30.607,21.1a3.065,3.065,0,0,0-2.992-.243A2.9,2.9,0,0,0,25.838,23.7a3.43,3.43,0,0,1,0-3.236,2.919,2.919,0,0,1,2.433-1.289s-1.07-.851-.365-2.919a2.019,2.019,0,0,1,2.749-1.241S30.217,11.829,34.061,11.586ZM27.128,8.229c2.725-.316,3.625,1.143,3.625,1.143a4.039,4.039,0,0,0-3.893,0,5.912,5.912,0,0,0-2.871,2.53S24.33,8.521,27.128,8.229Zm-8.953,17.03a4.014,4.014,0,0,0-2.919,2.433,3.455,3.455,0,0,1,2.6-3.236,2.433,2.433,0,0,1,3.236,1.387s-.633-1.046-2.919-.511ZM9.2,13.97a4.525,4.525,0,0,1,5.4-3.284S13.723,8.107,16.01,7.3a4.379,4.379,0,0,1,4.7,1.387s-2.992-1.387-4.16.146a3.09,3.09,0,0,0,.1,3.333,4.306,4.306,0,0,0-4.866,2.676,5.936,5.936,0,0,0,1.606,5.839S7.738,17.571,9.2,13.97Z" transform="translate(0.001 0.004)" fill="#8b755b"/>
    </g>
  </g>
</svg>
