<svg xmlns="http://www.w3.org/2000/svg" width="75" height="49.667" viewBox="0 0 75 49.667">
  <g id="lb_msg" data-name="lb msg" transform="translate(22)">
    <g id="_018---Competition" data-name="018---Competition" transform="translate(0 0)">
      <g id="Icons" transform="translate(0 0.528)">
        <path id="Shape" d="M29.5.528v4.75a4.222,4.222,0,0,1-3.695,4.191,13.232,13.232,0,0,1-1.583.032A4.219,4.219,0,0,1,20,5.278V.528A.528.528,0,0,1,20.528,0h8.445A.528.528,0,0,1,29.5.528Z" transform="translate(-8.916)" fill="#c5a072"/>
        <path id="Shape-2" data-name="Shape" d="M32.555,0H30.971A.528.528,0,0,1,31.5.528v4.75a4.222,4.222,0,0,1-3.913,4.211,16.222,16.222,0,0,0,1.8-.021,4.222,4.222,0,0,0,3.695-4.191V.528A.528.528,0,0,0,32.555,0Z" transform="translate(-12.499)" fill="#c5a072"/>
        <path id="Shape-3" data-name="Shape" d="M29.333,24.622a.528.528,0,0,1-.528.528H23.528A.528.528,0,0,1,23,24.622a2.634,2.634,0,0,1,2.639-2.639,7.7,7.7,0,0,1,1.583.053A2.639,2.639,0,0,1,29.333,24.622Z" transform="translate(-10.333 -10.372)" fill="#c5a072"/>
        <path id="Shape-4" data-name="Shape" d="M29.408,22.047a9.625,9.625,0,0,0-1.779-.033,2.639,2.639,0,0,1,2.307,2.619.528.528,0,0,1-.528.528h1.583a.528.528,0,0,0,.528-.528A2.639,2.639,0,0,0,29.408,22.047Z" transform="translate(-12.519 -10.383)" fill="#c5a072"/>
        <path id="Shape-5" data-name="Shape" d="M29.111,17.94v2.2a2.487,2.487,0,0,0-.528-.053H27.528a2.487,2.487,0,0,0-.528.053v-2.2a4.36,4.36,0,0,0,.528.032h1.056A4.36,4.36,0,0,0,29.111,17.94Z" transform="translate(-12.222 -8.471)" fill="#c5a072"/>
        <path id="Shape-6" data-name="Shape" d="M24.056,4.056h-.528a.528.528,0,0,1,0-1.056h.528a.528.528,0,1,1,0,1.056Z" transform="translate(-10.333 -1.417)" fill="#c5a072"/>
        <path id="Shape-7" data-name="Shape" d="M31.167,4.056H28.528a.528.528,0,1,1,0-1.056h2.639a.528.528,0,0,1,0,1.056Z" transform="translate(-12.694 -1.417)" fill="#c5a072"/>
        <rect id="Rectangle-path" width="5" height="5" rx="1" transform="translate(0 26.14)" fill="#c5a072"/>
        <path id="Shape-8" data-name="Shape" d="M7.583,48H6a.528.528,0,0,1,.528.528V52.75A.528.528,0,0,1,6,53.278H7.583a.528.528,0,0,0,.528-.528V48.528A.528.528,0,0,0,7.583,48Z" transform="translate(-2.305 -22.666)" fill="#c5a072"/>
        <rect id="Rectangle-path-2" data-name="Rectangle-path" width="5" height="7" rx="1" transform="translate(4 15.14)" fill="#c5a072"/>
        <path id="Shape-9" data-name="Shape" d="M15.583,30H14a.528.528,0,0,1,.528.528V34.75a.528.528,0,0,1-.528.528h1.583a.528.528,0,0,0,.528-.528V30.528A.528.528,0,0,0,15.583,30Z" transform="translate(-6.083 -14.166)" fill="#c5a072"/>
        <rect id="Rectangle-path-3" data-name="Rectangle-path" width="7" height="5" rx="1" transform="translate(8 26.14)" fill="#c5a072"/>
        <path id="Shape-10" data-name="Shape" d="M23.583,48H22a.528.528,0,0,1,.528.528V52.75a.528.528,0,0,1-.528.528h1.583a.528.528,0,0,0,.528-.528V48.528A.528.528,0,0,0,23.583,48Z" transform="translate(-9.861 -22.666)" fill="#c5a072"/>
        <rect id="Rectangle-path-4" data-name="Rectangle-path" width="5" height="5" rx="1" transform="translate(31 31.14) rotate(180)" fill="#c5a072"/>
        <path id="Shape-11" data-name="Shape" d="M55.583,48H54a.528.528,0,0,1,.528.528V52.75a.528.528,0,0,1-.528.528h1.583a.528.528,0,0,0,.528-.528V48.528A.528.528,0,0,0,55.583,48Z" transform="translate(-24.972 -22.666)" fill="#c5a072"/>
        <rect id="Rectangle-path-5" data-name="Rectangle-path" width="5" height="7" rx="1" transform="translate(26 22.14) rotate(180)" fill="#c5a072"/>
        <path id="Shape-12" data-name="Shape" d="M47.583,30H46a.528.528,0,0,1,.528.528V34.75a.528.528,0,0,1-.528.528h1.583a.528.528,0,0,0,.528-.528V30.528A.528.528,0,0,0,47.583,30Z" transform="translate(-21.194 -14.166)" fill="#c5a072"/>
        <rect id="Rectangle-path-6" data-name="Rectangle-path" width="4" height="5" rx="1" transform="translate(22 31.14) rotate(180)" fill="#c5a072"/>
        <path id="Shape-13" data-name="Shape" d="M39.583,48H38a.528.528,0,0,1,.528.528V52.75a.528.528,0,0,1-.528.528h1.583a.528.528,0,0,0,.528-.528V48.528A.528.528,0,0,0,39.583,48Z" transform="translate(-17.416 -22.666)" fill="#c5a072"/>
      </g>
      <g id="Icons_copy_2" transform="translate(0.528 0.528)">
        <path id="Shape-14" data-name="Shape" d="M.528,53.278H2.111a.528.528,0,0,1-.528-.528V48.528A.528.528,0,0,1,2.111,48H.528A.528.528,0,0,0,0,48.528V52.75A.528.528,0,0,0,.528,53.278Z" transform="translate(0 -22.666)" fill="#c5a072"/>
        <path id="Shape-15" data-name="Shape" d="M8.528,35.278h1.583a.528.528,0,0,1-.528-.528V30.528A.528.528,0,0,1,10.111,30H8.528A.528.528,0,0,0,8,30.528V34.75A.528.528,0,0,0,8.528,35.278Z" transform="translate(-3.778 -14.166)" fill="#c5a072"/>
        <path id="Shape-16" data-name="Shape" d="M25.26,11.611h.018c0-1.856-.013-2.121.014-2.145a4.218,4.218,0,0,1-3.709-4.189V.528A.528.528,0,0,1,22.111,0H20.528A.528.528,0,0,0,20,.528v4.75a4.218,4.218,0,0,0,3.709,4.189c-.027.023-.015.393-.014,2.221a2.616,2.616,0,0,0-2.111,2.563.528.528,0,0,0,.528.528h1.583a.528.528,0,0,1-.528-.528,2.918,2.918,0,0,1,2.111-2.586v-.053Z" transform="translate(-9.444 0)" fill="#c5a072"/>
      </g>
      <g id="Icons_copy" transform="translate(0)">
        <path id="Shape-17" data-name="Shape" d="M17.272,7.591l-.768.724a5.144,5.144,0,0,1-1.1-2.058,10.437,10.437,0,0,1-.4-2.186l1.053-.079a9.388,9.388,0,0,0,.353,1.961,4.127,4.127,0,0,0,.861,1.638Z" transform="translate(-7.086 -1.885)" fill="#c5a072"/>
        <g id="Groupe_1733" data-name="Groupe 1733">
          <path id="Shape-18" data-name="Shape" d="M16.409,8.025a.528.528,0,1,0-.53-.106.528.528,0,0,0,.53.106Z" transform="translate(-7.416 -3.305)" fill="#c5a072"/>
          <path id="Shape-19" data-name="Shape" d="M25.056,4h-.528a.528.528,0,1,0,0,1.056h.528a.528.528,0,0,0,0-1.056Z" transform="translate(-11.333 -1.889)" fill="#c5a072"/>
          <path id="Shape-20" data-name="Shape" d="M29.528,5.056h2.639a.528.528,0,1,0,0-1.056H29.528a.528.528,0,1,0,0,1.056Z" transform="translate(-13.694 -1.889)" fill="#c5a072"/>
          <path id="Shape-21" data-name="Shape" d="M30.612,25.334H29.028V24.278a1.056,1.056,0,0,0-1.056-1.056H24.806V22.167h1.583a1.056,1.056,0,0,0,1.056-1.056V16.889a1.056,1.056,0,0,0-1.056-1.056H24.806V14.778a1.056,1.056,0,0,0-1.056-1.056H19.343A3.178,3.178,0,0,0,17.417,11.8V10.433a4.763,4.763,0,0,0,3.46-3.161c2.273-.624,2.766-3.728,2.87-5.084a1.05,1.05,0,0,0-.276-.792,1.068,1.068,0,0,0-.782-.341H21.111A1.056,1.056,0,0,0,20.056,0H11.611a1.056,1.056,0,0,0-1.056,1.056H8.978A1.068,1.068,0,0,0,8.2,1.4a1.05,1.05,0,0,0-.276.792.533.533,0,0,0,.528.489h.041a.528.528,0,0,0,.489-.566h1.578V5.806c0,.073.008.145.011.217a2.058,2.058,0,0,1-.38-.317.573.573,0,0,0-.711-.053.5.5,0,0,0-.057.775,2.973,2.973,0,0,0,1.372.84,4.764,4.764,0,0,0,3.46,3.166V11.8a3.178,3.178,0,0,0-1.926,1.926H7.917a1.056,1.056,0,0,0-1.056,1.056v1.056H5.278a1.056,1.056,0,0,0-1.056,1.056v4.222a1.056,1.056,0,0,0,1.056,1.056H6.861v1.056H3.695a1.056,1.056,0,0,0-1.056,1.056v1.056H1.056A1.056,1.056,0,0,0,0,26.389v4.222a1.056,1.056,0,0,0,1.056,1.056H5.278a1.056,1.056,0,0,0,1.056-1.056V26.389a1.056,1.056,0,0,0-1.056-1.056H3.695V24.278h7.389v1.056H9.5a1.056,1.056,0,0,0-1.056,1.056v4.222A1.056,1.056,0,0,0,9.5,31.667h4.222a1.056,1.056,0,0,0,1.056-1.056V26.389a1.056,1.056,0,0,0-1.056-1.056H12.139V24.278a1.056,1.056,0,0,0-1.056-1.056H7.917V22.167H9.5a1.056,1.056,0,0,0,1.056-1.056V16.889A1.056,1.056,0,0,0,9.5,15.834H7.917V14.778h4.222a1.056,1.056,0,0,0,1.056,1.056h5.278a1.056,1.056,0,0,0,1.056-1.056H23.75v1.056H22.167a1.056,1.056,0,0,0-1.056,1.056v4.222a1.056,1.056,0,0,0,1.056,1.056H23.75v1.056H20.584a1.056,1.056,0,0,0-1.056,1.056v1.056H17.945a1.056,1.056,0,0,0-1.056,1.056v4.222a1.056,1.056,0,0,0,1.056,1.056h4.222a1.056,1.056,0,0,0,1.056-1.056V26.389a1.056,1.056,0,0,0-1.056-1.056H20.584V24.278h7.389v1.056H26.389a1.056,1.056,0,0,0-1.056,1.056v4.222a1.056,1.056,0,0,0,1.056,1.056h4.222a1.056,1.056,0,0,0,1.056-1.056V26.389A1.056,1.056,0,0,0,30.612,25.334ZM22.695,2.107c-.077,1-.385,3.131-1.594,3.919,0-.073.011-.146.011-.22V2.111ZM5.278,30.612H1.056V26.389H5.278Zm8.445,0H9.5V26.389h4.222ZM9.5,21.111H5.278V16.889H9.5ZM11.611,5.806V1.056h8.445v4.75A3.7,3.7,0,0,1,16.361,9.5H15.306A3.7,3.7,0,0,1,11.611,5.806Zm3.695,4.75h1.056v1.056H15.306Zm-2.111,4.222a2.111,2.111,0,0,1,2.111-2.111h1.056a2.114,2.114,0,0,1,2.111,2.111Zm8.972,2.111h4.222v4.222H22.167Zm0,13.722H17.945V26.389h4.222Zm8.445,0H26.389V26.389h4.222Z" transform="translate(0 0)" fill="#c5a072"/>
        </g>
      </g>
    </g>
    <text id="leaderboard_maping_msg" data-name="leaderboard maping msg" transform="translate(-22 34.667)" fill="#c5a072" font-size="11" font-family="SegoeUI, Segoe UI" letter-spacing="0.001em"><tspan x="6.749" y="12">Leaderboard</tspan></text>
  </g>
</svg>
