<svg xmlns="http://www.w3.org/2000/svg" width="280.966" height="293.674" viewBox="0 0 280.966 293.674">
  <g id="pirate" transform="translate(-11.077)">
    <g id="Groupe_1808" data-name="Groupe 1808" transform="translate(15.376 4.299)">
      <path id="Tracé_4853" data-name="Tracé 4853" d="M47.395,36.106H21.679A3.107,3.107,0,0,1,18.572,33V10.6a3.107,3.107,0,0,1,3.107-3.107H47.394V36.106Z" transform="translate(-18.572 -7.495)" fill="#ac7762"/>
      <path id="Tracé_4854" data-name="Tracé 4854" d="M468.343,36.106H441.889V7.5h26.454A3.107,3.107,0,0,1,471.45,10.6V33A3.107,3.107,0,0,1,468.343,36.106Z" transform="translate(-199.082 -7.495)" fill="#ac7762"/>
    </g>
    <path id="Tracé_4855" data-name="Tracé 4855" d="M484.641,10.6v22.4a3.106,3.106,0,0,1-3.107,3.107h-8.713a3.834,3.834,0,0,0,.172-1.124V8.288a3.647,3.647,0,0,0-.086-.8h8.627A3.11,3.11,0,0,1,484.641,10.6Z" transform="translate(-196.896 -3.194)" fill="#a06955"/>
    <path id="Tracé_4856" data-name="Tracé 4856" d="M68.807,57.376V304.331c0,6.693,5.964,11.285,11.476,8.835l95.7-42.531,95.7,42.531c5.512,2.449,11.476-2.142,11.476-8.835V57.376Z" transform="translate(-24.617 -24.466)" fill="#449faf"/>
    <path id="Tracé_4857" data-name="Tracé 4857" d="M431.293,57.371V304.337c0,6.681-5.956,11.273-11.475,8.821l-3.626-1.612V57.371Z" transform="translate(-172.748 -24.464)" fill="#267e8e"/>
    <rect id="Rectangle_2072" data-name="Rectangle 2072" width="214.353" height="28.611" transform="translate(44.19 4.3)" fill="#dda33c"/>
    <rect id="Rectangle_2073" data-name="Rectangle 2073" width="15.101" height="28.611" transform="translate(243.445 4.3)" fill="#bc802a"/>
    <rect id="Rectangle_2074" data-name="Rectangle 2074" width="11.295" height="28.611" transform="translate(32.904 4.3)" fill="#a06955"/>
    <path id="Tracé_4858" data-name="Tracé 4858" d="M236.3,226.876c24.393-11.843,40.782-33.83,40.782-59,0-37.714-36.794-68.287-82.183-68.288s-82.182,30.574-82.182,68.288c0,25.169,16.389,47.155,40.782,59a4.584,4.584,0,0,1,2.531,5.476c-1.566,5.024-3.241,10.026-4.4,15.136-1.616,7.1,3.714,11.7,10.783,11.7,4.873,0,9.052-2.248,10.829-5.448,1.778,3.2,5.957,5.448,10.83,5.448s9.051-2.247,10.83-5.446c1.778,3.2,5.957,5.446,10.83,5.446s9.052-2.247,10.83-5.448c1.778,3.2,5.957,5.447,10.829,5.448,7.587,0,13.021-5.429,10.686-13.022-1.418-4.61-2.871-9.209-4.306-13.814A4.584,4.584,0,0,1,236.3,226.876Z" transform="translate(-43.343 -42.467)" fill="#e8e8ea"/>
    <path id="Tracé_4859" data-name="Tracé 4859" d="M314.416,261.643c1.468,4.709,3.4,9.469,4.442,14.285,1.637,7.527-3.256,12.549-10.821,12.549a14.55,14.55,0,0,1-6.122-1.306c3.8-1.805,6.325-5.011,6.325-8.663a8.019,8.019,0,0,0-.857-3.592l-5.313-17.035a5.275,5.275,0,0,1,2.913-6.3c28.045-13.617,46.89-38.9,46.89-67.833a66.093,66.093,0,0,0-1.833-15.47,58.642,58.642,0,0,1,7.688,28.884c0,25.171-16.389,47.159-40.782,59A4.6,4.6,0,0,0,314.416,261.643Z" transform="translate(-123.987 -71.758)" fill="#d6d6d8"/>
    <g id="Groupe_1809" data-name="Groupe 1809" transform="translate(142.134 163.641)">
      <path id="Tracé_4860" data-name="Tracé 4860" d="M258.4,296.275c-.474-4.775-7.357-9.722-9.041-10.865a.656.656,0,0,0-.739,0c-1.683,1.144-8.562,6.091-9.037,10.865-.3,3.047,3.054,5.775,7.675,6.243.544.055,2.922.055,3.466,0C255.347,302.05,258.7,299.322,258.4,296.275Z" transform="translate(-239.565 -285.296)" fill="#449faf"/>
      <path id="Tracé_4861" data-name="Tracé 4861" d="M252.445,302.519c-.545.053-2.924.053-3.465,0a11.011,11.011,0,0,1-5.384-1.926c.714.046,2.834.043,3.343-.01,4.621-.466,7.978-3.194,7.677-6.243-.294-2.94-3.016-5.946-5.457-8.087.5-.37.909-.657,1.183-.842a.657.657,0,0,1,.74,0c1.681,1.143,8.565,6.088,9.038,10.865C260.422,299.322,257.067,302.05,252.445,302.519Z" transform="translate(-241.284 -285.297)" fill="#449faf"/>
    </g>
    <circle id="Ellipse_129" data-name="Ellipse 129" cx="23.687" cy="23.687" r="23.687" transform="translate(95.582 112.957)" fill="#449faf"/>
    <path id="Tracé_4862" data-name="Tracé 4862" d="M213.068,221.345a23.681,23.681,0,0,1-37.558,19.194,23.685,23.685,0,0,0,20.617-41.9A23.681,23.681,0,0,1,213.068,221.345Z" transform="translate(-70.117 -84.704)" fill="#449faf"/>
    <circle id="Ellipse_130" data-name="Ellipse 130" cx="23.687" cy="23.687" r="23.687" transform="translate(160.164 112.957)" fill="#449faf"/>
    <path id="Tracé_4863" data-name="Tracé 4863" d="M325.665,221.345a23.681,23.681,0,0,1-37.558,19.194,23.685,23.685,0,0,0,20.617-41.9A23.681,23.681,0,0,1,325.665,221.345Z" transform="translate(-118.131 -84.704)" fill="#449faf"/>
    <path id="Tracé_4864" data-name="Tracé 4864" d="M284.638,0H258.922c-.064,0-.126.007-.189.01s-.125-.01-.189-.01H123.663a4.3,4.3,0,0,0,0,8.6H254.244V28.61H48.5V8.6H96.529a4.3,4.3,0,1,0,0-8.6H18.483a7.414,7.414,0,0,0-7.406,7.406V29.8a7.415,7.415,0,0,0,7.406,7.407H39.89V150.416a4.3,4.3,0,1,0,8.6,0V37.209H254.247V279.866a5.484,5.484,0,0,1-2.265,4.631,3.2,3.2,0,0,1-3.166.276l-95.7-42.531a4.3,4.3,0,0,0-3.491,0l-95.7,42.531a3.21,3.21,0,0,1-3.166-.276,5.483,5.483,0,0,1-2.264-4.631V177.318a4.3,4.3,0,1,0-8.6,0V279.865a13.961,13.961,0,0,0,6.177,11.84,11.733,11.733,0,0,0,11.344.923l93.956-41.755,93.956,41.755a11.731,11.731,0,0,0,11.344-.924,13.962,13.962,0,0,0,6.177-11.84V37.209h21.793a7.415,7.415,0,0,0,7.406-7.407V7.406A7.413,7.413,0,0,0,284.638,0ZM39.891,28.61H19.676V8.6H39.891Zm243.554,0H263.221V8.6h20.224Z" transform="translate(0)"/>
    <path id="Tracé_4865" data-name="Tracé 4865" d="M234.984,227.548a81.565,81.565,0,0,0,31.173-25.89,63.956,63.956,0,0,0,12.031-36.976c0-40.024-38.8-72.586-86.483-72.587s-86.481,32.563-86.481,72.587a63.957,63.957,0,0,0,12.031,36.976,81.566,81.566,0,0,0,31.173,25.89c.228.11.325.265.306.329q-.409,1.308-.823,2.616c-1.313,4.157-2.669,8.456-3.669,12.847A13.271,13.271,0,0,0,146.6,254.8c2.783,3.487,7.381,5.487,12.617,5.486a18.213,18.213,0,0,0,10.83-3.436,18.786,18.786,0,0,0,21.66,0,18.787,18.787,0,0,0,21.661,0,18.209,18.209,0,0,0,10.829,3.436h0c5.442,0,10.171-2.178,12.978-5.976a13.859,13.859,0,0,0,1.817-12.609q-1.423-4.628-2.878-9.245-.718-2.291-1.433-4.583C234.66,227.813,234.757,227.659,234.984,227.548Zm-3.755-7.735h0a8.874,8.874,0,0,0-4.758,10.623q.717,2.3,1.437,4.594,1.44,4.6,2.864,9.2a5.365,5.365,0,0,1-.513,4.972c-1.151,1.557-3.416,2.487-6.062,2.487h0c-3.622,0-6.205-1.678-7.071-3.237a4.3,4.3,0,0,0-7.516,0c-.866,1.559-3.449,3.237-7.073,3.237s-6.206-1.677-7.072-3.236a4.3,4.3,0,0,0-7.516,0c-.866,1.558-3.448,3.236-7.072,3.236s-6.206-1.678-7.072-3.237a4.3,4.3,0,0,0-3.758-2.211h0a4.3,4.3,0,0,0-3.758,2.211c-.866,1.558-3.448,3.237-7.072,3.237-2.567,0-4.77-.841-5.9-2.252a4.748,4.748,0,0,1-.7-4.193c.921-4.047,2.166-7.99,3.485-12.166q.417-1.322.832-2.646a8.872,8.872,0,0,0-4.758-10.623,72.961,72.961,0,0,1-27.9-23.114,55.406,55.406,0,0,1-10.456-32.017c0-35.283,34.938-63.988,77.883-63.988S269.59,129.4,269.59,164.682A55.412,55.412,0,0,1,259.134,196.7,72.971,72.971,0,0,1,231.23,219.813Z" transform="translate(-40.146 -39.271)"/>
    <path id="Tracé_4866" data-name="Tracé 4866" d="M206.882,217.423A27.983,27.983,0,1,0,178.9,245.406,28.015,28.015,0,0,0,206.882,217.423ZM178.9,236.808a19.384,19.384,0,1,1,19.385-19.384A19.406,19.406,0,0,1,178.9,236.808Z" transform="translate(-59.63 -80.781)"/>
    <path id="Tracé_4867" data-name="Tracé 4867" d="M291.494,189.44a27.983,27.983,0,1,0,27.983,27.983A28.014,28.014,0,0,0,291.494,189.44Zm0,47.368a19.384,19.384,0,1,1,19.385-19.384A19.406,19.406,0,0,1,291.494,236.808Z" transform="translate(-107.642 -80.781)"/>
    <path id="Tracé_4868" data-name="Tracé 4868" d="M248.584,278.654a4.928,4.928,0,0,0-5.569,0c-3.81,2.587-10.293,7.845-10.9,14-.548,5.519,4.4,10.225,11.522,10.946.415.042,1.289.063,2.164.063s1.752-.021,2.168-.063c7.116-.72,12.069-5.426,11.52-10.946C258.871,286.5,252.392,281.241,248.584,278.654Zm-1.444,16.383c-.44.032-2.248.032-2.644,0-2.382-.241-3.588-1.245-3.817-1.643.228-1.42,2.317-3.872,5.118-6.118,2.8,2.246,4.887,4.7,5.115,6.119C250.685,293.8,249.479,294.8,247.14,295.036Z" transform="translate(-94.235 -118.455)"/>
  </g>
</svg>
