<svg xmlns="http://www.w3.org/2000/svg" width="86" height="86.005" viewBox="0 0 86 86.005">
  <g id="telescope" transform="translate(-0.017 0)">
    <path id="Tracé_4772" data-name="Tracé 4772" d="M231.607,52.932l-19.192,19.2a3.358,3.358,0,0,0,0,4.75L229.041,93.5a3.36,3.36,0,0,0,4.751,0l19.192-19.2Z" transform="translate(-175.901 -44.04)" fill="#ffd87d"/>
    <g id="Groupe_1804" data-name="Groupe 1804" transform="translate(20.271 1.681)">
      <path id="Tracé_4773" data-name="Tracé 4773" d="M356.219,30.486a5.039,5.039,0,0,1-7.125,7.126l-19-19a5.038,5.038,0,1,1,7.126-7.125Z" transform="translate(-293.673 -10.009)" fill="#b37051"/>
      <path id="Tracé_4774" data-name="Tracé 4774" d="M136.837,195.481l16.626,16.628L138.2,227.367a3.358,3.358,0,0,1-4.75,0l-11.876-11.876a3.36,3.36,0,0,1,0-4.751Z" transform="translate(-120.594 -164.326)" fill="#b37051"/>
    </g>
    <rect id="Rectangle_2064" data-name="Rectangle 2064" width="19.612" height="16.795" transform="translate(33.13 64.724) rotate(135)" fill="#ffd87d"/>
    <path id="Tracé_4775" data-name="Tracé 4775" d="M27.362,404.164a3.359,3.359,0,1,1-4.751,4.75L10.734,397.038a3.359,3.359,0,0,1,4.751-4.75Z" transform="translate(-8.099 -325.573)" fill="#b37051"/>
    <path id="Tracé_4776" data-name="Tracé 4776" d="M321.15,242.535a1.68,1.68,0,1,0,2.377,0A1.681,1.681,0,0,0,321.15,242.535Z" transform="translate(-266.781 -201.384)"/>
    <path id="Tracé_4777" data-name="Tracé 4777" d="M65.046,1.97a6.718,6.718,0,0,0-11.24,6.488L35.368,26.9a5.047,5.047,0,0,0-.983,5.733L20.108,46.909a5.05,5.05,0,0,0-.982,5.734l-11.9,11.9A5.04,5.04,0,0,0,1.49,72.653L13.366,84.529a5.04,5.04,0,0,0,8.112-5.735l11.9-11.9a5.044,5.044,0,0,0,5.733-.983L53.384,51.638a5.04,5.04,0,0,0,5.737-.986L77.559,32.21a6.717,6.717,0,0,0,6.487-11.239ZM18.117,82.154a1.68,1.68,0,0,1-2.376,0L3.865,70.278A1.68,1.68,0,0,1,6.24,67.9h0L18.117,79.779A1.678,1.678,0,0,1,18.117,82.154ZM19.3,76.216l-9.5-9.5L21.3,55.223l9.5,9.5Zm17.43-12.681a1.681,1.681,0,0,1-2.375,0L22.484,51.66a1.683,1.683,0,0,1,0-2.376L36.555,35.212,50.806,49.465Zm20.01-15.259a1.68,1.68,0,0,1-2.376,0L37.744,31.65h0a1.678,1.678,0,0,1,0-2.375l17.8-17.8L69.8,25.723,59.12,36.4A1.68,1.68,0,0,0,61.5,38.776L72.171,28.1l2.376,2.375ZM81.671,28.1a3.363,3.363,0,0,1-3.827.653C76.976,28.34,57.426,8.51,57.266,8.173l0-.006a3.359,3.359,0,0,1,5.407-3.822l19,19A3.357,3.357,0,0,1,81.671,28.1Z" transform="translate(0 0)"/>
  </g>
</svg>
