<svg xmlns="http://www.w3.org/2000/svg" width="70.631" height="80.006" viewBox="0 0 70.631 80.006">
  <g id="treasure-chest" transform="translate(-30)">
    <g id="Groupe_1794" data-name="Groupe 1794" transform="translate(31.172 1.172)">
      <path id="Tracé_3844" data-name="Tracé 3844" d="M103.17,322.661h47.763v20.314H103.17Z" transform="translate(-92.908 -273.413)" fill="#ab7b64"/>
      <path id="Tracé_3845" data-name="Tracé 3845" d="M150.935,322.66v3.647H138.342a.464.464,0,0,0-.419.26,7.038,7.038,0,0,1-6.338,3.99h-9.063a7.04,7.04,0,0,1-6.34-3.991.464.464,0,0,0-.419-.26H103.172V322.66Z" transform="translate(-92.91 -273.413)" fill="#9a6a53"/>
      <path id="Tracé_3846" data-name="Tracé 3846" d="M105,168h47.191v17.412H105Z" transform="translate(-94.452 -142.92)" fill="#ab7b64"/>
      <g id="Groupe_1784" data-name="Groupe 1784" transform="translate(56.567 23.517)">
        <path id="Tracé_3847" data-name="Tracé 3847" d="M399.5,320.255l.583,11.214-.583,9.852h9.376V324.278l-.274-1.347.274-2.677Z" transform="translate(-399.5 -294.901)" fill="#ffe07d"/>
        <path id="Tracé_3848" data-name="Tracé 3848" d="M409.719,175.658l-5.135.625-4.084-.625V159.719a1.563,1.563,0,0,1,1.563-1.563l.625-.156h5.469a1.563,1.563,0,0,1,1.563,1.563Z" transform="translate(-400.344 -158)" fill="#ffe07d"/>
        <g id="Groupe_1783" data-name="Groupe 1783">
          <path id="Tracé_3849" data-name="Tracé 3849" d="M401.844,158v17.658l-1.268.625-1.076-.625v-16.1A1.563,1.563,0,0,1,401.063,158Z" transform="translate(-399.5 -158)" fill="#ffd064"/>
          <path id="Tracé_3850" data-name="Tracé 3850" d="M399.5,320.26v21.066h2.344V324.907a.625.625,0,0,1,.625-.625h6.407V320.26H399.5Z" transform="translate(-399.5 -294.905)" fill="#ffd064"/>
        </g>
      </g>
      <g id="Groupe_1785" data-name="Groupe 1785" transform="translate(27.502)">
        <path id="Tracé_3851" data-name="Tracé 3851" d="M215.814,14.681l1.329.675a9.859,9.859,0,0,1,3.627,3.627l.519,1.173a.617.617,0,0,0,1.076,0l.675-1.173a8.6,8.6,0,0,1,1.552-2,2.017,2.017,0,0,1,.336-.2,9.041,9.041,0,0,1,1.739-1.267l1.485-.832a.617.617,0,0,0,0-1.076l-1.485-.832A9.042,9.042,0,0,1,223.2,9.3l-.832-1.485a.617.617,0,0,0-1.076,0L220.458,9.3a9.042,9.042,0,0,1-1.511,1.991.348.348,0,0,1-.045.074,9.237,9.237,0,0,1-1.913,1.454l-1.176.784a.617.617,0,0,0,0,1.076Z" transform="translate(-215.186 -7.501)" fill="#c3ddff"/>
        <path id="Tracé_3852" data-name="Tracé 3852" d="M223.243,37.25a9.087,9.087,0,0,0-1.732,2.2l-.833,1.486a.616.616,0,0,1-1.074,0l-.833-1.486a9.024,9.024,0,0,0-3.47-3.47l-1.486-.833a.616.616,0,0,1,0-1.074l1.486-.833a8.968,8.968,0,0,0,1.96-1.48A8.849,8.849,0,0,0,223.243,37.25Z" transform="translate(-213.501 -27.972)" fill="#a4ccff"/>
      </g>
      <g id="Groupe_1786" data-name="Groupe 1786" transform="translate(42.347 10.781)">
        <path id="Tracé_3853" data-name="Tracé 3853" d="M309.706,81.143l.8.382a6.678,6.678,0,0,1,2.4,2.4l.382.8a.4.4,0,0,0,.7,0l.382-.8a6.7,6.7,0,0,1,1.358-1.668,2.566,2.566,0,0,1,.6-.3q.217-.148.447-.277l.961-.538a.4.4,0,0,0,0-.7l-.961-.538a5.851,5.851,0,0,1-2.246-2.246l-.538-.961a.4.4,0,0,0-.7,0l-.538.961a5.848,5.848,0,0,1-1.083,1.391,2.426,2.426,0,0,1-.344.433,6.878,6.878,0,0,1-.818.578l-.8.382A.4.4,0,0,0,309.706,81.143Z" transform="translate(-309.346 -76.497)" fill="#c3ddff"/>
        <path id="Tracé_3854" data-name="Tracé 3854" d="M315.483,95.759a5.848,5.848,0,0,0-1.8,1.97l-.537.959a.4.4,0,0,1-.7,0l-.538-.959a5.857,5.857,0,0,0-2.247-2.247l-.959-.538a.4.4,0,0,1,0-.7l.959-.538a5.816,5.816,0,0,0,1.164-.855,4.765,4.765,0,0,0,4.392,2.913C315.308,95.767,315.4,95.763,315.483,95.759Z" transform="translate(-308.5 -90.298)" fill="#a4ccff"/>
      </g>
      <g id="Groupe_1787" data-name="Groupe 1787" transform="translate(17.345 10.781)">
        <path id="Tracé_3855" data-name="Tracé 3855" d="M149.706,81.143l.8.382a6.677,6.677,0,0,1,2.4,2.4l.382.8a.4.4,0,0,0,.7,0l.382-.8a6.7,6.7,0,0,1,1.358-1.668,2.565,2.565,0,0,1,.6-.3q.216-.148.447-.277l.961-.538a.4.4,0,0,0,0-.7l-.961-.538a5.851,5.851,0,0,1-2.246-2.246l-.538-.961a.4.4,0,0,0-.7,0l-.538.961a5.847,5.847,0,0,1-1.083,1.391,2.433,2.433,0,0,1-.344.433,6.89,6.89,0,0,1-.818.578l-.8.382A.4.4,0,0,0,149.706,81.143Z" transform="translate(-149.346 -76.497)" fill="#c3ddff"/>
        <path id="Tracé_3856" data-name="Tracé 3856" d="M155.483,95.759a5.847,5.847,0,0,0-1.8,1.97l-.538.959a.4.4,0,0,1-.7,0l-.538-.959a5.858,5.858,0,0,0-2.247-2.247l-.959-.538a.4.4,0,0,1,0-.7l.959-.538a5.818,5.818,0,0,0,1.164-.855,4.765,4.765,0,0,0,4.392,2.913C155.308,95.767,155.4,95.763,155.483,95.759Z" transform="translate(-148.5 -90.298)" fill="#a4ccff"/>
      </g>
      <g id="Groupe_1788" data-name="Groupe 1788" transform="translate(29.534 23.517)">
        <path id="Tracé_3857" data-name="Tracé 3857" d="M236.407,175.658H227.5V159.719a1.563,1.563,0,0,1,1.563-1.563l.625-.156h5.469a1.563,1.563,0,0,1,1.563,1.563v10.524Z" transform="translate(-227.344 -158)" fill="#ffe07d"/>
        <path id="Tracé_3858" data-name="Tracé 3858" d="M228.846,169.462V158h-.781a1.563,1.563,0,0,0-1.563,1.563v16.1h9.376v-5.571h-6.407A.625.625,0,0,1,228.846,169.462Z" transform="translate(-226.502 -158)" fill="#ffd064"/>
      </g>
      <g id="Groupe_1790" data-name="Groupe 1790" transform="translate(2.344 23.517)">
        <path id="Tracé_3859" data-name="Tracé 3859" d="M52.5,320.255l.583,11.214-.583,9.852h9.376V324.278l-.274-1.347.274-2.677Z" transform="translate(-52.5 -294.901)" fill="#ffe07d"/>
        <path id="Tracé_3860" data-name="Tracé 3860" d="M62.72,175.658l-5.135.625-4.084-.625V159.719a1.563,1.563,0,0,1,1.563-1.563l.625-.156h5.469a1.563,1.563,0,0,1,1.563,1.563Z" transform="translate(-53.344 -158)" fill="#ffe07d"/>
        <g id="Groupe_1789" data-name="Groupe 1789">
          <path id="Tracé_3861" data-name="Tracé 3861" d="M54.844,158v17.658l-1.268.625-1.076-.625v-16.1A1.563,1.563,0,0,1,54.063,158Z" transform="translate(-52.5 -158)" fill="#ffd064"/>
          <path id="Tracé_3862" data-name="Tracé 3862" d="M52.5,320.26v21.066h2.344V324.907a.625.625,0,0,1,.625-.625h6.407V320.26H52.5Z" transform="translate(-52.5 -294.905)" fill="#ffd064"/>
        </g>
      </g>
      <g id="Groupe_1791" data-name="Groupe 1791" transform="translate(0 41.175)">
        <path id="Tracé_3863" data-name="Tracé 3863" d="M104.912,280.22H40.063a1.563,1.563,0,0,1-1.563-1.563v-5.938a1.563,1.563,0,0,1,1.563-1.563l.625-.156h64.38a1.563,1.563,0,0,1,1.563,1.563v5.469l-.156.625A1.563,1.563,0,0,1,104.912,280.22Z" transform="translate(-38.344 -271)" fill="#ffd064"/>
        <path id="Tracé_3864" data-name="Tracé 3864" d="M105.787,278.032v.781a1.563,1.563,0,0,1-1.563,1.563H39.063a1.563,1.563,0,0,1-1.563-1.563v-6.25A1.563,1.563,0,0,1,39.063,271h.781v6.407a.625.625,0,0,0,.625.625Z" transform="translate(-37.5 -271)" fill="#ffc250"/>
      </g>
      <path id="Tracé_3865" data-name="Tracé 3865" d="M211.279,267.1l-8.947-.065a4.688,4.688,0,0,1-4.688-4.688l-.007-9.519a2.377,2.377,0,0,1,2.244-2.475h13.751a2.344,2.344,0,0,1,2.344,2.344v9.821a4.667,4.667,0,0,1-.628,2.345s-.234.277-.33.409A4.49,4.49,0,0,1,211.279,267.1Z" transform="translate(-172.614 -212.404)" fill="#ffe07d"/>
      <path id="Tracé_3866" data-name="Tracé 3866" d="M214.811,264.862a4.683,4.683,0,0,1-4.06,2.343h-9.063A4.688,4.688,0,0,1,197,262.517V252.7a2.345,2.345,0,0,1,2.344-2.344v12.165a2.347,2.347,0,0,0,2.344,2.344Z" transform="translate(-172.076 -212.404)" fill="#ffd064"/>
      <g id="Groupe_1792" data-name="Groupe 1792" transform="translate(31.093 41.943)">
        <path id="Tracé_3867" data-name="Tracé 3867" d="M239.532,282.009a3.047,3.047,0,1,1,3.05-3.047A3.052,3.052,0,0,1,239.532,282.009Z" transform="translate(-236.482 -275.915)" fill="#ffd064"/>
      </g>
      <g id="Groupe_1793" data-name="Groupe 1793" transform="translate(0 68.286)">
        <path id="Tracé_3868" data-name="Tracé 3868" d="M104.912,453.72H40.063a1.563,1.563,0,0,1-1.563-1.563v-5.938a1.563,1.563,0,0,1,1.563-1.563l.625-.156h64.38a1.563,1.563,0,0,1,1.563,1.563v5.469l-.156.625A1.563,1.563,0,0,1,104.912,453.72Z" transform="translate(-38.344 -444.5)" fill="#ffd064"/>
        <path id="Tracé_3869" data-name="Tracé 3869" d="M105.787,451.532v.781a1.563,1.563,0,0,1-1.563,1.563H39.063a1.563,1.563,0,0,1-1.563-1.563v-6.251a1.563,1.563,0,0,1,1.563-1.563h.781v6.407a.625.625,0,0,0,.625.625Z" transform="translate(-37.5 -444.5)" fill="#ffc250"/>
      </g>
    </g>
    <g id="Groupe_1795" data-name="Groupe 1795" transform="translate(30 0)">
      <path id="Tracé_3870" data-name="Tracé 3870" d="M100.631,177.143v-6.251a2.736,2.736,0,0,0-2.344-2.7v-3.783a1.172,1.172,0,0,0-2.344,0v3.752H88.911V153.235a.391.391,0,0,1,.391-.391h6.25a.391.391,0,0,1,.391.391v5.7a1.172,1.172,0,1,0,2.344,0v-5.7a2.738,2.738,0,0,0-2.735-2.735H89.3a2.735,2.735,0,0,0-2.467,1.563H70.986a2.735,2.735,0,0,0-2.467-1.563H62.268a2.735,2.735,0,0,0-2.467,1.563H54.527a1.172,1.172,0,1,0,0,2.344h5.007v5.688H44.064v-5.688h5a1.172,1.172,0,0,0,0-2.344H43.8a2.735,2.735,0,0,0-2.467-1.563h-6.25a2.738,2.738,0,0,0-2.735,2.735v14.954a2.737,2.737,0,0,0-2.344,2.7v6.251a2.736,2.736,0,0,0,2.344,2.7v4.51a1.172,1.172,0,1,0,2.344,0v-4.479H41.72v15.392H34.688v-5.444a1.172,1.172,0,0,0-2.344,0V195.3A2.737,2.737,0,0,0,30,198v6.251a2.738,2.738,0,0,0,2.735,2.735H97.9a2.738,2.738,0,0,0,2.735-2.735V198a2.736,2.736,0,0,0-2.344-2.7V179.846a2.736,2.736,0,0,0,2.344-2.7ZM71.253,154.407H86.567v5.688H71.253Zm0,8.032H86.567v5.719H75.694a3.52,3.52,0,0,0-3.5-3.226h-.938Zm4.369,26.293H86.567v6.538h-42.5v-6.538H70.153a1.172,1.172,0,1,0,0-2.344H44.064v-6.51H55.15a5.869,5.869,0,0,0,5.633,4.251h9.063a5.869,5.869,0,0,0,5.633-4.251H86.567v6.51H75.622a1.172,1.172,0,1,0,0,2.344Zm-13.744-35.5a.391.391,0,0,1,.391-.391h6.251a.391.391,0,0,1,.391.391v11.7H61.878Zm10.313,14.041a1.173,1.173,0,0,1,1.172,1.172v9.821a3.52,3.52,0,0,1-3.516,3.516H60.784a3.52,3.52,0,0,1-3.516-3.516v-9.821a1.173,1.173,0,0,1,1.172-1.172Zm-28.127-4.836h15.47v2.492H58.44a3.52,3.52,0,0,0-3.5,3.226H44.064Zm-9.376-9.2a.391.391,0,0,1,.391-.391h6.25a.391.391,0,0,1,.391.391v14.923H34.688Zm-1.953,24.3a.391.391,0,0,1-.391-.391v-6.251a.391.391,0,0,1,.391-.391H54.924v2.344H42.892a1.172,1.172,0,1,0,0,2.344H54.924v2.344Zm65.552,26.721a.391.391,0,0,1-.391.391H32.735a.391.391,0,0,1-.391-.391V198a.391.391,0,0,1,.391-.391H97.9a.391.391,0,0,1,.391.391Zm-9.376-8.985V179.877h7.032v15.392ZM97.9,177.533H75.707V175.19H87.739a1.172,1.172,0,1,0,0-2.344H75.707V170.5H97.9a.391.391,0,0,1,.391.391v6.251A.391.391,0,0,1,97.9,177.533Z" transform="translate(-30 -126.983)"/>
      <path id="Tracé_3871" data-name="Tracé 3871" d="M323.142,467h-12.97a1.172,1.172,0,1,0,0,2.344h12.97a1.172,1.172,0,0,0,0-2.344Z" transform="translate(-265.403 -394.025)"/>
      <path id="Tracé_3872" data-name="Tracé 3872" d="M119.3,467H106.172a1.172,1.172,0,0,0,0,2.344H119.3a1.172,1.172,0,0,0,0-2.344Z" transform="translate(-93.28 -394.025)"/>
      <path id="Tracé_3873" data-name="Tracé 3873" d="M235.738,279.675v1.954a1.172,1.172,0,1,0,2.344,0v-1.954a3.535,3.535,0,1,0-2.344,0Zm1.172-4.52a1.188,1.188,0,1,1-1.191,1.188A1.191,1.191,0,0,1,236.91,275.155Z" transform="translate(-201.595 -230.181)"/>
      <path id="Tracé_3874" data-name="Tracé 3874" d="M206.915,9.374l1.485.832a7.866,7.866,0,0,1,3.021,3.021l.832,1.485a1.79,1.79,0,0,0,1.56.915h0a1.791,1.791,0,0,0,1.56-.915l.832-1.485a7.866,7.866,0,0,1,3.021-3.021l1.485-.832a1.788,1.788,0,0,0,0-3.121l-1.485-.832A7.867,7.867,0,0,1,216.205,2.4L215.373.915a1.788,1.788,0,0,0-3.121,0L211.421,2.4A7.866,7.866,0,0,1,208.4,5.421l-1.485.832a1.789,1.789,0,0,0,0,3.121Zm2.63-1.907a10.21,10.21,0,0,0,3.921-3.921l.347-.62.347.62a10.21,10.21,0,0,0,3.921,3.921l.62.347-.62.347a10.211,10.211,0,0,0-3.921,3.921l-.347.62-.347-.62a10.21,10.21,0,0,0-3.921-3.921l-.62-.347Z" transform="translate(-178.498 0)"/>
      <path id="Tracé_3875" data-name="Tracé 3875" d="M301,74.469a1.573,1.573,0,0,0,.8,1.371l.961.538a4.676,4.676,0,0,1,1.8,1.8l.538.961a1.571,1.571,0,0,0,2.741,0l.538-.961a4.675,4.675,0,0,1,1.8-1.8l.961-.538a1.571,1.571,0,0,0,0-2.741l-.961-.538a4.677,4.677,0,0,1-1.8-1.8l-.538-.961a1.571,1.571,0,0,0-2.741,0l-.538.961a4.675,4.675,0,0,1-1.8,1.8l-.961.538A1.572,1.572,0,0,0,301,74.469Zm5.469-2.327a7.017,7.017,0,0,0,2.327,2.327,7.017,7.017,0,0,0-2.327,2.327,7.017,7.017,0,0,0-2.327-2.327A7.015,7.015,0,0,0,306.469,72.142Z" transform="translate(-258.653 -58.218)"/>
      <path id="Tracé_3876" data-name="Tracé 3876" d="M141.8,75.84h0l.961.538a4.676,4.676,0,0,1,1.8,1.8l.538.961a1.571,1.571,0,0,0,2.741,0l.538-.961a4.677,4.677,0,0,1,1.8-1.8l.961-.538a1.571,1.571,0,0,0,0-2.741l-.961-.538a4.677,4.677,0,0,1-1.8-1.8l-.538-.961a1.571,1.571,0,0,0-2.741,0l-.538.961a4.676,4.676,0,0,1-1.8,1.8l-.961.538a1.571,1.571,0,0,0,0,2.741Zm4.666-3.7a7.021,7.021,0,0,0,2.327,2.327A7.021,7.021,0,0,0,146.47,76.8a7.021,7.021,0,0,0-2.327-2.327A7.021,7.021,0,0,0,146.47,72.142Z" transform="translate(-123.656 -58.218)"/>
      <circle id="Ellipse_114" data-name="Ellipse 114" cx="1.172" cy="1.172" r="1.172" transform="translate(7.032 29.285)"/>
      <circle id="Ellipse_115" data-name="Ellipse 115" cx="1.172" cy="1.172" r="1.172" transform="translate(7.032 35.223)"/>
      <circle id="Ellipse_116" data-name="Ellipse 116" cx="1.172" cy="1.172" r="1.172" transform="translate(61.255 29.285)"/>
      <circle id="Ellipse_117" data-name="Ellipse 117" cx="1.172" cy="1.172" r="1.172" transform="translate(61.255 35.223)"/>
      <circle id="Ellipse_118" data-name="Ellipse 118" cx="1.172" cy="1.172" r="1.172" transform="translate(7.032 45.863)"/>
      <circle id="Ellipse_119" data-name="Ellipse 119" cx="1.172" cy="1.172" r="1.172" transform="translate(61.255 45.863)"/>
      <circle id="Ellipse_120" data-name="Ellipse 120" cx="1.172" cy="1.172" r="1.172" transform="translate(7.032 56.358)"/>
      <circle id="Ellipse_121" data-name="Ellipse 121" cx="1.172" cy="1.172" r="1.172" transform="translate(61.255 56.358)"/>
      <circle id="Ellipse_122" data-name="Ellipse 122" cx="1.172" cy="1.172" r="1.172" transform="translate(7.032 62.296)"/>
      <circle id="Ellipse_123" data-name="Ellipse 123" cx="1.172" cy="1.172" r="1.172" transform="translate(61.255 62.296)"/>
      <ellipse id="Ellipse_124" data-name="Ellipse 124" cx="1" cy="1.5" rx="1" ry="1.5" transform="translate(6.246 73.507)"/>
      <circle id="Ellipse_125" data-name="Ellipse 125" cx="1.5" cy="1.5" r="1.5" transform="translate(60.246 73.507)"/>
      <circle id="Ellipse_126" data-name="Ellipse 126" cx="1.172" cy="1.172" r="1.172" transform="translate(38.831 72.975)"/>
      <circle id="Ellipse_127" data-name="Ellipse 127" cx="1.172" cy="1.172" r="1.172" transform="translate(34.143 72.975)"/>
      <circle id="Ellipse_128" data-name="Ellipse 128" cx="1.172" cy="1.172" r="1.172" transform="translate(29.455 72.975)"/>
    </g>
  </g>
</svg>
