<svg xmlns="http://www.w3.org/2000/svg" width="79.332" height="92.164" viewBox="0 0 79.332 92.164">
  <g id="XMLID_1491_" transform="matrix(0.799, 0.602, -0.602, 0.799, -22.142, -66.652)">
    <g id="XMLID_1492_" transform="translate(110.752 0)">
      <path id="XMLID_64_" d="M158.4,18.985H146.443l-2.1-15.334A3.214,3.214,0,0,1,148.019.039L157.9,1.57a3.214,3.214,0,0,1,2.682,3.68Z" transform="translate(-144.312 0)" fill="#fce98e"/>
      <path id="XMLID_1495_" d="M180.1,3.553l-5.432-.842V20.968H180.6l2.18-13.735A3.214,3.214,0,0,0,180.1,3.553Z" transform="translate(-166.517 -1.983)" fill="#f8de65"/>
    </g>
    <g id="XMLID_1496_" transform="translate(98.428 11.862)">
      <g id="XMLID_1497_" transform="translate(0 20.686)">
        <path id="XMLID_57_" d="M134.379,182.465H103.432a5,5,0,0,1-5-5V131.118a9.931,9.931,0,0,1,9.931-9.931h21.093a9.931,9.931,0,0,1,9.931,9.931v46.344A5,5,0,0,1,134.379,182.465Z" transform="translate(-98.428 -121.187)" fill="#c1e8e6"/>
        <path id="XMLID_1501_" d="M185.219,121.186H174.672v61.278h15.473a5,5,0,0,0,5-5V131.117A9.931,9.931,0,0,0,185.219,121.186Z" transform="translate(-154.194 -121.186)" fill="#86c7f6"/>
      </g>
      <g id="XMLID_1502_" transform="translate(12.506 5.408)">
        <path id="XMLID_1505_" d="M144.99,119.25l15.879.014.065-54.95L145.057,64.3Z" transform="translate(-144.99 -64.3)" fill="#c1e8e6"/>
        <path id="XMLID_1508_" d="M174.672,64.324v54.95l7.907.007.065-54.95Z" transform="translate(-166.7 -64.318)" fill="#86c7f6"/>
      </g>
      <g id="XMLID_1509_" transform="translate(10.116)">
        <path id="XMLID_1512_" d="M136.093,49.089a1.379,1.379,0,0,0,1.38,1.38l17.959.02a1.381,1.381,0,0,0,1.382-1.379l0-3.547a1.379,1.379,0,0,0-1.378-1.381l-17.958-.018a1.38,1.38,0,0,0-1.382,1.379Z" transform="translate(-136.093 -44.164)" fill="#c1e8e6"/>
        <path id="XMLID_1515_" d="M183.655,44.206l-8.983-.009V50.5l8.977.01a1.381,1.381,0,0,0,1.382-1.379l0-3.547A1.379,1.379,0,0,0,183.655,44.206Z" transform="translate(-164.31 -44.188)" fill="#86c7f6"/>
      </g>
    </g>
    <g id="XMLID_1516_" transform="translate(109.02 36.413)">
      <g id="XMLID_1517_" transform="translate(0 19.963)">
        <path id="XMLID_37_" d="M157.426,235.99c-2.453-6.478-9.649-26.084-9.649-26.084l-9.649,23.4c-.944,2.289.793,4.288,3.215,4.8,3.3.7,8.33,1.8,12.1,2.534A3.525,3.525,0,0,0,157.426,235.99Z" transform="translate(-137.867 -209.906)" fill="#fff"/>
        <path id="XMLID_1518_" d="M184.345,235.989c-2.453-6.478-9.649-26.083-9.649-26.083l-.026.061v29.506c1.97.416,3.963.829,5.692,1.168A3.525,3.525,0,0,0,184.345,235.989Z" transform="translate(-164.786 -209.906)" fill="#eaf0f5"/>
      </g>
      <g id="XMLID_1519_">
        <path id="XMLID_34_" d="M157.426,140.3c-2.453,6.478-9.649,26.084-9.649,26.084l-9.649-23.4c-.944-2.289.793-4.288,3.215-4.8,3.3-.7,8.33-1.8,12.1-2.534A3.525,3.525,0,0,1,157.426,140.3Z" transform="translate(-137.867 -135.577)" fill="#fff"/>
        <path id="XMLID_1520_" d="M180.363,135.649c-1.728.338-3.722.752-5.692,1.168v29.506l.026.061s7.2-19.606,9.649-26.083A3.525,3.525,0,0,0,180.363,135.649Z" transform="translate(-164.786 -135.577)" fill="#eaf0f5"/>
      </g>
    </g>
  </g>
</svg>
